<?xml version="1.0" encoding="utf-8"?>
<svg xmlns="http://www.w3.org/2000/svg" xmlns:xlink="http://www.w3.org/1999/xlink" width="600" height="400" viewBox="0 0 2400 1600">
<defs>
  <clipPath id="clip350">
    <rect x="0" y="0" width="2400" height="1600"/>
  </clipPath>
</defs>
<path clip-path="url(#clip350)" d="
M0 1600 L2400 1600 L2400 0 L0 0  Z
  " fill="#ffffff" fill-rule="evenodd" fill-opacity="1"/>
<defs>
  <clipPath id="clip351">
    <rect x="480" y="0" width="1681" height="1600"/>
  </clipPath>
</defs>
<path clip-path="url(#clip350)" d="
M264.148 1486.45 L2352.76 1486.45 L2352.76 47.2441 L264.148 47.2441  Z
  " fill="#ffffff" fill-rule="evenodd" fill-opacity="1"/>
<defs>
  <clipPath id="clip352">
    <rect x="264" y="47" width="2090" height="1440"/>
  </clipPath>
</defs>
<polyline clip-path="url(#clip350)" style="stroke:#000000; stroke-linecap:butt; stroke-linejoin:round; stroke-width:4; stroke-opacity:1; fill:none" points="
  264.148,1486.45 2352.76,1486.45 
  "/>
<polyline clip-path="url(#clip350)" style="stroke:#000000; stroke-linecap:butt; stroke-linejoin:round; stroke-width:4; stroke-opacity:1; fill:none" points="
  323.26,1486.45 323.26,1467.55 
  "/>
<polyline clip-path="url(#clip350)" style="stroke:#000000; stroke-linecap:butt; stroke-linejoin:round; stroke-width:4; stroke-opacity:1; fill:none" points="
  502.386,1486.45 502.386,1467.55 
  "/>
<polyline clip-path="url(#clip350)" style="stroke:#000000; stroke-linecap:butt; stroke-linejoin:round; stroke-width:4; stroke-opacity:1; fill:none" points="
  681.512,1486.45 681.512,1467.55 
  "/>
<polyline clip-path="url(#clip350)" style="stroke:#000000; stroke-linecap:butt; stroke-linejoin:round; stroke-width:4; stroke-opacity:1; fill:none" points="
  860.638,1486.45 860.638,1467.55 
  "/>
<polyline clip-path="url(#clip350)" style="stroke:#000000; stroke-linecap:butt; stroke-linejoin:round; stroke-width:4; stroke-opacity:1; fill:none" points="
  1039.76,1486.45 1039.76,1467.55 
  "/>
<polyline clip-path="url(#clip350)" style="stroke:#000000; stroke-linecap:butt; stroke-linejoin:round; stroke-width:4; stroke-opacity:1; fill:none" points="
  1218.89,1486.45 1218.89,1467.55 
  "/>
<polyline clip-path="url(#clip350)" style="stroke:#000000; stroke-linecap:butt; stroke-linejoin:round; stroke-width:4; stroke-opacity:1; fill:none" points="
  1398.02,1486.45 1398.02,1467.55 
  "/>
<polyline clip-path="url(#clip350)" style="stroke:#000000; stroke-linecap:butt; stroke-linejoin:round; stroke-width:4; stroke-opacity:1; fill:none" points="
  1577.14,1486.45 1577.14,1467.55 
  "/>
<polyline clip-path="url(#clip350)" style="stroke:#000000; stroke-linecap:butt; stroke-linejoin:round; stroke-width:4; stroke-opacity:1; fill:none" points="
  1756.27,1486.45 1756.27,1467.55 
  "/>
<polyline clip-path="url(#clip350)" style="stroke:#000000; stroke-linecap:butt; stroke-linejoin:round; stroke-width:4; stroke-opacity:1; fill:none" points="
  1935.39,1486.45 1935.39,1467.55 
  "/>
<polyline clip-path="url(#clip350)" style="stroke:#000000; stroke-linecap:butt; stroke-linejoin:round; stroke-width:4; stroke-opacity:1; fill:none" points="
  2114.52,1486.45 2114.52,1467.55 
  "/>
<polyline clip-path="url(#clip350)" style="stroke:#000000; stroke-linecap:butt; stroke-linejoin:round; stroke-width:4; stroke-opacity:1; fill:none" points="
  2293.64,1486.45 2293.64,1467.55 
  "/>
<path clip-path="url(#clip350)" d="M292.901 1530.29 L322.577 1530.29 L322.577 1534.23 L292.901 1534.23 L292.901 1530.29 Z" fill="#000000" fill-rule="evenodd" fill-opacity="1" /><path clip-path="url(#clip350)" d="M332.716 1512.56 L351.072 1512.56 L351.072 1516.5 L336.998 1516.5 L336.998 1524.97 Q338.017 1524.62 339.035 1524.46 Q340.054 1524.27 341.072 1524.27 Q346.859 1524.27 350.239 1527.44 Q353.619 1530.62 353.619 1536.03 Q353.619 1541.61 350.146 1544.71 Q346.674 1547.79 340.355 1547.79 Q338.179 1547.79 335.91 1547.42 Q333.665 1547.05 331.258 1546.31 L331.258 1541.61 Q333.341 1542.74 335.563 1543.3 Q337.785 1543.86 340.262 1543.86 Q344.267 1543.86 346.605 1541.75 Q348.943 1539.64 348.943 1536.03 Q348.943 1532.42 346.605 1530.31 Q344.267 1528.21 340.262 1528.21 Q338.387 1528.21 336.512 1528.62 Q334.66 1529.04 332.716 1529.92 L332.716 1512.56 Z" fill="#000000" fill-rule="evenodd" fill-opacity="1" /><path clip-path="url(#clip350)" d="M471.286 1530.29 L500.962 1530.29 L500.962 1534.23 L471.286 1534.23 L471.286 1530.29 Z" fill="#000000" fill-rule="evenodd" fill-opacity="1" /><path clip-path="url(#clip350)" d="M523.902 1516.63 L512.096 1535.08 L523.902 1535.08 L523.902 1516.63 M522.675 1512.56 L528.555 1512.56 L528.555 1535.08 L533.485 1535.08 L533.485 1538.97 L528.555 1538.97 L528.555 1547.12 L523.902 1547.12 L523.902 1538.97 L508.3 1538.97 L508.3 1534.46 L522.675 1512.56 Z" fill="#000000" fill-rule="evenodd" fill-opacity="1" /><path clip-path="url(#clip350)" d="M650.979 1530.29 L680.655 1530.29 L680.655 1534.23 L650.979 1534.23 L650.979 1530.29 Z" fill="#000000" fill-rule="evenodd" fill-opacity="1" /><path clip-path="url(#clip350)" d="M704.914 1528.49 Q708.271 1529.2 710.146 1531.47 Q712.044 1533.74 712.044 1537.07 Q712.044 1542.19 708.525 1544.99 Q705.007 1547.79 698.525 1547.79 Q696.35 1547.79 694.035 1547.35 Q691.743 1546.93 689.289 1546.08 L689.289 1541.56 Q691.234 1542.7 693.549 1543.28 Q695.863 1543.86 698.387 1543.86 Q702.785 1543.86 705.076 1542.12 Q707.391 1540.38 707.391 1537.07 Q707.391 1534.02 705.238 1532.31 Q703.109 1530.57 699.289 1530.57 L695.262 1530.57 L695.262 1526.73 L699.475 1526.73 Q702.924 1526.73 704.752 1525.36 Q706.581 1523.97 706.581 1521.38 Q706.581 1518.72 704.683 1517.31 Q702.808 1515.87 699.289 1515.87 Q697.368 1515.87 695.169 1516.29 Q692.97 1516.7 690.331 1517.58 L690.331 1513.42 Q692.993 1512.68 695.308 1512.31 Q697.646 1511.93 699.706 1511.93 Q705.03 1511.93 708.132 1514.37 Q711.234 1516.77 711.234 1520.89 Q711.234 1523.76 709.59 1525.75 Q707.947 1527.72 704.914 1528.49 Z" fill="#000000" fill-rule="evenodd" fill-opacity="1" /><path clip-path="url(#clip350)" d="M830.58 1530.29 L860.256 1530.29 L860.256 1534.23 L830.58 1534.23 L830.58 1530.29 Z" fill="#000000" fill-rule="evenodd" fill-opacity="1" /><path clip-path="url(#clip350)" d="M874.376 1543.18 L890.695 1543.18 L890.695 1547.12 L868.751 1547.12 L868.751 1543.18 Q871.413 1540.43 875.996 1535.8 Q880.603 1531.15 881.783 1529.81 Q884.029 1527.28 884.908 1525.55 Q885.811 1523.79 885.811 1522.1 Q885.811 1519.34 883.867 1517.61 Q881.945 1515.87 878.843 1515.87 Q876.644 1515.87 874.191 1516.63 Q871.76 1517.4 868.982 1518.95 L868.982 1514.23 Q871.806 1513.09 874.26 1512.51 Q876.714 1511.93 878.751 1511.93 Q884.121 1511.93 887.316 1514.62 Q890.51 1517.31 890.51 1521.8 Q890.51 1523.93 889.7 1525.85 Q888.913 1527.74 886.806 1530.34 Q886.228 1531.01 883.126 1534.23 Q880.024 1537.42 874.376 1543.18 Z" fill="#000000" fill-rule="evenodd" fill-opacity="1" /><path clip-path="url(#clip350)" d="M1009.52 1530.29 L1039.2 1530.29 L1039.2 1534.23 L1009.52 1534.23 L1009.52 1530.29 Z" fill="#000000" fill-rule="evenodd" fill-opacity="1" /><path clip-path="url(#clip350)" d="M1050.1 1543.18 L1057.74 1543.18 L1057.74 1516.82 L1049.43 1518.49 L1049.43 1514.23 L1057.69 1512.56 L1062.37 1512.56 L1062.37 1543.18 L1070.01 1543.18 L1070.01 1547.12 L1050.1 1547.12 L1050.1 1543.18 Z" fill="#000000" fill-rule="evenodd" fill-opacity="1" /><path clip-path="url(#clip350)" d="M1218.89 1515.64 Q1215.28 1515.64 1213.45 1519.2 Q1211.64 1522.75 1211.64 1529.87 Q1211.64 1536.98 1213.45 1540.55 Q1215.28 1544.09 1218.89 1544.09 Q1222.52 1544.09 1224.33 1540.55 Q1226.16 1536.98 1226.16 1529.87 Q1226.16 1522.75 1224.33 1519.2 Q1222.52 1515.64 1218.89 1515.64 M1218.89 1511.93 Q1224.7 1511.93 1227.75 1516.54 Q1230.83 1521.12 1230.83 1529.87 Q1230.83 1538.6 1227.75 1543.21 Q1224.7 1547.79 1218.89 1547.79 Q1213.08 1547.79 1210 1543.21 Q1206.94 1538.6 1206.94 1529.87 Q1206.94 1521.12 1210 1516.54 Q1213.08 1511.93 1218.89 1511.93 Z" fill="#000000" fill-rule="evenodd" fill-opacity="1" /><path clip-path="url(#clip350)" d="M1388.4 1543.18 L1396.04 1543.18 L1396.04 1516.82 L1387.73 1518.49 L1387.73 1514.23 L1395.99 1512.56 L1400.67 1512.56 L1400.67 1543.18 L1408.3 1543.18 L1408.3 1547.12 L1388.4 1547.12 L1388.4 1543.18 Z" fill="#000000" fill-rule="evenodd" fill-opacity="1" /><path clip-path="url(#clip350)" d="M1571.79 1543.18 L1588.11 1543.18 L1588.11 1547.12 L1566.17 1547.12 L1566.17 1543.18 Q1568.83 1540.43 1573.41 1535.8 Q1578.02 1531.15 1579.2 1529.81 Q1581.45 1527.28 1582.33 1525.55 Q1583.23 1523.79 1583.23 1522.1 Q1583.23 1519.34 1581.28 1517.61 Q1579.36 1515.87 1576.26 1515.87 Q1574.06 1515.87 1571.61 1516.63 Q1569.18 1517.4 1566.4 1518.95 L1566.4 1514.23 Q1569.22 1513.09 1571.68 1512.51 Q1574.13 1511.93 1576.17 1511.93 Q1581.54 1511.93 1584.73 1514.62 Q1587.93 1517.31 1587.93 1521.8 Q1587.93 1523.93 1587.12 1525.85 Q1586.33 1527.74 1584.22 1530.34 Q1583.65 1531.01 1580.54 1534.23 Q1577.44 1537.42 1571.79 1543.18 Z" fill="#000000" fill-rule="evenodd" fill-opacity="1" /><path clip-path="url(#clip350)" d="M1760.51 1528.49 Q1763.87 1529.2 1765.75 1531.47 Q1767.64 1533.74 1767.64 1537.07 Q1767.64 1542.19 1764.13 1544.99 Q1760.61 1547.79 1754.13 1547.79 Q1751.95 1547.79 1749.63 1547.35 Q1747.34 1546.93 1744.89 1546.08 L1744.89 1541.56 Q1746.83 1542.7 1749.15 1543.28 Q1751.46 1543.86 1753.99 1543.86 Q1758.38 1543.86 1760.68 1542.12 Q1762.99 1540.38 1762.99 1537.07 Q1762.99 1534.02 1760.84 1532.31 Q1758.71 1530.57 1754.89 1530.57 L1750.86 1530.57 L1750.86 1526.73 L1755.07 1526.73 Q1758.52 1526.73 1760.35 1525.36 Q1762.18 1523.97 1762.18 1521.38 Q1762.18 1518.72 1760.28 1517.31 Q1758.41 1515.87 1754.89 1515.87 Q1752.97 1515.87 1750.77 1516.29 Q1748.57 1516.7 1745.93 1517.58 L1745.93 1513.42 Q1748.59 1512.68 1750.91 1512.31 Q1753.25 1511.93 1755.31 1511.93 Q1760.63 1511.93 1763.73 1514.37 Q1766.83 1516.77 1766.83 1520.89 Q1766.83 1523.76 1765.19 1525.75 Q1763.55 1527.72 1760.51 1528.49 Z" fill="#000000" fill-rule="evenodd" fill-opacity="1" /><path clip-path="url(#clip350)" d="M1938.4 1516.63 L1926.6 1535.08 L1938.4 1535.08 L1938.4 1516.63 M1937.18 1512.56 L1943.05 1512.56 L1943.05 1535.08 L1947.99 1535.08 L1947.99 1538.97 L1943.05 1538.97 L1943.05 1547.12 L1938.4 1547.12 L1938.4 1538.97 L1922.8 1538.97 L1922.8 1534.46 L1937.18 1512.56 Z" fill="#000000" fill-rule="evenodd" fill-opacity="1" /><path clip-path="url(#clip350)" d="M2104.8 1512.56 L2123.15 1512.56 L2123.15 1516.5 L2109.08 1516.5 L2109.08 1524.97 Q2110.1 1524.62 2111.12 1524.46 Q2112.13 1524.27 2113.15 1524.27 Q2118.94 1524.27 2122.32 1527.44 Q2125.7 1530.62 2125.7 1536.03 Q2125.7 1541.61 2122.23 1544.71 Q2118.75 1547.79 2112.44 1547.79 Q2110.26 1547.79 2107.99 1547.42 Q2105.75 1547.05 2103.34 1546.31 L2103.34 1541.61 Q2105.42 1542.74 2107.64 1543.3 Q2109.87 1543.86 2112.34 1543.86 Q2116.35 1543.86 2118.69 1541.75 Q2121.02 1539.64 2121.02 1536.03 Q2121.02 1532.42 2118.69 1530.31 Q2116.35 1528.21 2112.34 1528.21 Q2110.47 1528.21 2108.59 1528.62 Q2106.74 1529.04 2104.8 1529.92 L2104.8 1512.56 Z" fill="#000000" fill-rule="evenodd" fill-opacity="1" /><path clip-path="url(#clip350)" d="M2294.05 1527.98 Q2290.9 1527.98 2289.05 1530.13 Q2287.22 1532.28 2287.22 1536.03 Q2287.22 1539.76 2289.05 1541.93 Q2290.9 1544.09 2294.05 1544.09 Q2297.2 1544.09 2299.03 1541.93 Q2300.88 1539.76 2300.88 1536.03 Q2300.88 1532.28 2299.03 1530.13 Q2297.2 1527.98 2294.05 1527.98 M2303.33 1513.32 L2303.33 1517.58 Q2301.57 1516.75 2299.77 1516.31 Q2297.98 1515.87 2296.23 1515.87 Q2291.6 1515.87 2289.14 1519 Q2286.71 1522.12 2286.36 1528.44 Q2287.73 1526.43 2289.79 1525.36 Q2291.85 1524.27 2294.33 1524.27 Q2299.54 1524.27 2302.54 1527.44 Q2305.58 1530.59 2305.58 1536.03 Q2305.58 1541.36 2302.43 1544.57 Q2299.28 1547.79 2294.05 1547.79 Q2288.05 1547.79 2284.88 1543.21 Q2281.71 1538.6 2281.71 1529.87 Q2281.71 1521.68 2285.6 1516.82 Q2289.49 1511.93 2296.04 1511.93 Q2297.8 1511.93 2299.58 1512.28 Q2301.39 1512.63 2303.33 1513.32 Z" fill="#000000" fill-rule="evenodd" fill-opacity="1" /><polyline clip-path="url(#clip350)" style="stroke:#000000; stroke-linecap:butt; stroke-linejoin:round; stroke-width:4; stroke-opacity:1; fill:none" points="
  264.148,1486.45 264.148,47.2441 
  "/>
<polyline clip-path="url(#clip350)" style="stroke:#000000; stroke-linecap:butt; stroke-linejoin:round; stroke-width:4; stroke-opacity:1; fill:none" points="
  264.148,1307.55 283.046,1307.55 
  "/>
<polyline clip-path="url(#clip350)" style="stroke:#000000; stroke-linecap:butt; stroke-linejoin:round; stroke-width:4; stroke-opacity:1; fill:none" points="
  264.148,1011.37 283.046,1011.37 
  "/>
<polyline clip-path="url(#clip350)" style="stroke:#000000; stroke-linecap:butt; stroke-linejoin:round; stroke-width:4; stroke-opacity:1; fill:none" points="
  264.148,715.191 283.046,715.191 
  "/>
<polyline clip-path="url(#clip350)" style="stroke:#000000; stroke-linecap:butt; stroke-linejoin:round; stroke-width:4; stroke-opacity:1; fill:none" points="
  264.148,419.013 283.046,419.013 
  "/>
<polyline clip-path="url(#clip350)" style="stroke:#000000; stroke-linecap:butt; stroke-linejoin:round; stroke-width:4; stroke-opacity:1; fill:none" points="
  264.148,122.836 283.046,122.836 
  "/>
<path clip-path="url(#clip350)" d="M129.885 1306.19 Q133.242 1306.91 135.117 1309.18 Q137.015 1311.45 137.015 1314.78 Q137.015 1319.9 133.496 1322.7 Q129.978 1325.5 123.496 1325.5 Q121.32 1325.5 119.006 1325.06 Q116.714 1324.64 114.26 1323.78 L114.26 1319.27 Q116.205 1320.4 118.519 1320.98 Q120.834 1321.56 123.357 1321.56 Q127.755 1321.56 130.047 1319.83 Q132.362 1318.09 132.362 1314.78 Q132.362 1311.72 130.209 1310.01 Q128.08 1308.28 124.26 1308.28 L120.232 1308.28 L120.232 1304.43 L124.445 1304.43 Q127.894 1304.43 129.723 1303.07 Q131.552 1301.68 131.552 1299.09 Q131.552 1296.42 129.654 1295.01 Q127.779 1293.58 124.26 1293.58 Q122.339 1293.58 120.14 1293.99 Q117.941 1294.41 115.302 1295.29 L115.302 1291.12 Q117.964 1290.38 120.279 1290.01 Q122.617 1289.64 124.677 1289.64 Q130.001 1289.64 133.103 1292.07 Q136.204 1294.48 136.204 1298.6 Q136.204 1301.47 134.561 1303.46 Q132.917 1305.43 129.885 1306.19 Z" fill="#000000" fill-rule="evenodd" fill-opacity="1" /><path clip-path="url(#clip350)" d="M155.88 1293.34 Q152.269 1293.34 150.441 1296.91 Q148.635 1300.45 148.635 1307.58 Q148.635 1314.69 150.441 1318.25 Q152.269 1321.79 155.88 1321.79 Q159.515 1321.79 161.32 1318.25 Q163.149 1314.69 163.149 1307.58 Q163.149 1300.45 161.32 1296.91 Q159.515 1293.34 155.88 1293.34 M155.88 1289.64 Q161.69 1289.64 164.746 1294.25 Q167.825 1298.83 167.825 1307.58 Q167.825 1316.31 164.746 1320.91 Q161.69 1325.5 155.88 1325.5 Q150.07 1325.5 146.991 1320.91 Q143.936 1316.31 143.936 1307.58 Q143.936 1298.83 146.991 1294.25 Q150.07 1289.64 155.88 1289.64 Z" fill="#000000" fill-rule="evenodd" fill-opacity="1" /><path clip-path="url(#clip350)" d="M186.042 1293.34 Q182.431 1293.34 180.602 1296.91 Q178.797 1300.45 178.797 1307.58 Q178.797 1314.69 180.602 1318.25 Q182.431 1321.79 186.042 1321.79 Q189.676 1321.79 191.482 1318.25 Q193.311 1314.69 193.311 1307.58 Q193.311 1300.45 191.482 1296.91 Q189.676 1293.34 186.042 1293.34 M186.042 1289.64 Q191.852 1289.64 194.908 1294.25 Q197.987 1298.83 197.987 1307.58 Q197.987 1316.31 194.908 1320.91 Q191.852 1325.5 186.042 1325.5 Q180.232 1325.5 177.153 1320.91 Q174.098 1316.31 174.098 1307.58 Q174.098 1298.83 177.153 1294.25 Q180.232 1289.64 186.042 1289.64 Z" fill="#000000" fill-rule="evenodd" fill-opacity="1" /><path clip-path="url(#clip350)" d="M216.204 1293.34 Q212.593 1293.34 210.764 1296.91 Q208.959 1300.45 208.959 1307.58 Q208.959 1314.69 210.764 1318.25 Q212.593 1321.79 216.204 1321.79 Q219.838 1321.79 221.644 1318.25 Q223.473 1314.69 223.473 1307.58 Q223.473 1300.45 221.644 1296.91 Q219.838 1293.34 216.204 1293.34 M216.204 1289.64 Q222.014 1289.64 225.07 1294.25 Q228.148 1298.83 228.148 1307.58 Q228.148 1316.31 225.07 1320.91 Q222.014 1325.5 216.204 1325.5 Q210.394 1325.5 207.315 1320.91 Q204.26 1316.31 204.26 1307.58 Q204.26 1298.83 207.315 1294.25 Q210.394 1289.64 216.204 1289.64 Z" fill="#000000" fill-rule="evenodd" fill-opacity="1" /><path clip-path="url(#clip350)" d="M129.885 1010.01 Q133.242 1010.73 135.117 1013 Q137.015 1015.27 137.015 1018.6 Q137.015 1023.72 133.496 1026.52 Q129.978 1029.32 123.496 1029.32 Q121.32 1029.32 119.006 1028.88 Q116.714 1028.46 114.26 1027.61 L114.26 1023.09 Q116.205 1024.23 118.519 1024.81 Q120.834 1025.38 123.357 1025.38 Q127.755 1025.38 130.047 1023.65 Q132.362 1021.91 132.362 1018.6 Q132.362 1015.55 130.209 1013.83 Q128.08 1012.1 124.26 1012.1 L120.232 1012.1 L120.232 1008.25 L124.445 1008.25 Q127.894 1008.25 129.723 1006.89 Q131.552 1005.5 131.552 1002.91 Q131.552 1000.25 129.654 998.834 Q127.779 997.398 124.26 997.398 Q122.339 997.398 120.14 997.815 Q117.941 998.232 115.302 999.111 L115.302 994.945 Q117.964 994.204 120.279 993.834 Q122.617 993.463 124.677 993.463 Q130.001 993.463 133.103 995.894 Q136.204 998.301 136.204 1002.42 Q136.204 1005.29 134.561 1007.28 Q132.917 1009.25 129.885 1010.01 Z" fill="#000000" fill-rule="evenodd" fill-opacity="1" /><path clip-path="url(#clip350)" d="M146.691 1024.71 L154.329 1024.71 L154.329 998.348 L146.019 1000.01 L146.019 995.755 L154.283 994.088 L158.959 994.088 L158.959 1024.71 L166.598 1024.71 L166.598 1028.65 L146.691 1028.65 L146.691 1024.71 Z" fill="#000000" fill-rule="evenodd" fill-opacity="1" /><path clip-path="url(#clip350)" d="M186.042 997.167 Q182.431 997.167 180.602 1000.73 Q178.797 1004.27 178.797 1011.4 Q178.797 1018.51 180.602 1022.07 Q182.431 1025.62 186.042 1025.62 Q189.676 1025.62 191.482 1022.07 Q193.311 1018.51 193.311 1011.4 Q193.311 1004.27 191.482 1000.73 Q189.676 997.167 186.042 997.167 M186.042 993.463 Q191.852 993.463 194.908 998.07 Q197.987 1002.65 197.987 1011.4 Q197.987 1020.13 194.908 1024.74 Q191.852 1029.32 186.042 1029.32 Q180.232 1029.32 177.153 1024.74 Q174.098 1020.13 174.098 1011.4 Q174.098 1002.65 177.153 998.07 Q180.232 993.463 186.042 993.463 Z" fill="#000000" fill-rule="evenodd" fill-opacity="1" /><path clip-path="url(#clip350)" d="M216.204 997.167 Q212.593 997.167 210.764 1000.73 Q208.959 1004.27 208.959 1011.4 Q208.959 1018.51 210.764 1022.07 Q212.593 1025.62 216.204 1025.62 Q219.838 1025.62 221.644 1022.07 Q223.473 1018.51 223.473 1011.4 Q223.473 1004.27 221.644 1000.73 Q219.838 997.167 216.204 997.167 M216.204 993.463 Q222.014 993.463 225.07 998.07 Q228.148 1002.65 228.148 1011.4 Q228.148 1020.13 225.07 1024.74 Q222.014 1029.32 216.204 1029.32 Q210.394 1029.32 207.315 1024.74 Q204.26 1020.13 204.26 1011.4 Q204.26 1002.65 207.315 998.07 Q210.394 993.463 216.204 993.463 Z" fill="#000000" fill-rule="evenodd" fill-opacity="1" /><path clip-path="url(#clip350)" d="M129.885 713.837 Q133.242 714.554 135.117 716.823 Q137.015 719.091 137.015 722.425 Q137.015 727.54 133.496 730.341 Q129.978 733.142 123.496 733.142 Q121.32 733.142 119.006 732.702 Q116.714 732.286 114.26 731.429 L114.26 726.915 Q116.205 728.049 118.519 728.628 Q120.834 729.207 123.357 729.207 Q127.755 729.207 130.047 727.471 Q132.362 725.735 132.362 722.425 Q132.362 719.369 130.209 717.656 Q128.08 715.92 124.26 715.92 L120.232 715.92 L120.232 712.077 L124.445 712.077 Q127.894 712.077 129.723 710.712 Q131.552 709.323 131.552 706.73 Q131.552 704.068 129.654 702.656 Q127.779 701.221 124.26 701.221 Q122.339 701.221 120.14 701.638 Q117.941 702.054 115.302 702.934 L115.302 698.767 Q117.964 698.027 120.279 697.656 Q122.617 697.286 124.677 697.286 Q130.001 697.286 133.103 699.716 Q136.204 702.124 136.204 706.244 Q136.204 709.114 134.561 711.105 Q132.917 713.073 129.885 713.837 Z" fill="#000000" fill-rule="evenodd" fill-opacity="1" /><path clip-path="url(#clip350)" d="M149.908 728.536 L166.227 728.536 L166.227 732.471 L144.283 732.471 L144.283 728.536 Q146.945 725.781 151.528 721.151 Q156.135 716.499 157.315 715.156 Q159.561 712.633 160.44 710.897 Q161.343 709.138 161.343 707.448 Q161.343 704.693 159.399 702.957 Q157.478 701.221 154.376 701.221 Q152.177 701.221 149.723 701.985 Q147.292 702.749 144.515 704.3 L144.515 699.577 Q147.339 698.443 149.792 697.864 Q152.246 697.286 154.283 697.286 Q159.653 697.286 162.848 699.971 Q166.042 702.656 166.042 707.147 Q166.042 709.276 165.232 711.198 Q164.445 713.096 162.339 715.688 Q161.76 716.36 158.658 719.577 Q155.556 722.772 149.908 728.536 Z" fill="#000000" fill-rule="evenodd" fill-opacity="1" /><path clip-path="url(#clip350)" d="M186.042 700.989 Q182.431 700.989 180.602 704.554 Q178.797 708.096 178.797 715.225 Q178.797 722.332 180.602 725.897 Q182.431 729.438 186.042 729.438 Q189.676 729.438 191.482 725.897 Q193.311 722.332 193.311 715.225 Q193.311 708.096 191.482 704.554 Q189.676 700.989 186.042 700.989 M186.042 697.286 Q191.852 697.286 194.908 701.892 Q197.987 706.476 197.987 715.225 Q197.987 723.952 194.908 728.559 Q191.852 733.142 186.042 733.142 Q180.232 733.142 177.153 728.559 Q174.098 723.952 174.098 715.225 Q174.098 706.476 177.153 701.892 Q180.232 697.286 186.042 697.286 Z" fill="#000000" fill-rule="evenodd" fill-opacity="1" /><path clip-path="url(#clip350)" d="M216.204 700.989 Q212.593 700.989 210.764 704.554 Q208.959 708.096 208.959 715.225 Q208.959 722.332 210.764 725.897 Q212.593 729.438 216.204 729.438 Q219.838 729.438 221.644 725.897 Q223.473 722.332 223.473 715.225 Q223.473 708.096 221.644 704.554 Q219.838 700.989 216.204 700.989 M216.204 697.286 Q222.014 697.286 225.07 701.892 Q228.148 706.476 228.148 715.225 Q228.148 723.952 225.07 728.559 Q222.014 733.142 216.204 733.142 Q210.394 733.142 207.315 728.559 Q204.26 723.952 204.26 715.225 Q204.26 706.476 207.315 701.892 Q210.394 697.286 216.204 697.286 Z" fill="#000000" fill-rule="evenodd" fill-opacity="1" /><path clip-path="url(#clip350)" d="M129.885 417.659 Q133.242 418.377 135.117 420.645 Q137.015 422.914 137.015 426.247 Q137.015 431.363 133.496 434.164 Q129.978 436.965 123.496 436.965 Q121.32 436.965 119.006 436.525 Q116.714 436.108 114.26 435.252 L114.26 430.738 Q116.205 431.872 118.519 432.451 Q120.834 433.029 123.357 433.029 Q127.755 433.029 130.047 431.293 Q132.362 429.557 132.362 426.247 Q132.362 423.191 130.209 421.478 Q128.08 419.742 124.26 419.742 L120.232 419.742 L120.232 415.9 L124.445 415.9 Q127.894 415.9 129.723 414.534 Q131.552 413.145 131.552 410.553 Q131.552 407.891 129.654 406.479 Q127.779 405.043 124.26 405.043 Q122.339 405.043 120.14 405.46 Q117.941 405.877 115.302 406.756 L115.302 402.59 Q117.964 401.849 120.279 401.479 Q122.617 401.108 124.677 401.108 Q130.001 401.108 133.103 403.539 Q136.204 405.946 136.204 410.067 Q136.204 412.937 134.561 414.928 Q132.917 416.895 129.885 417.659 Z" fill="#000000" fill-rule="evenodd" fill-opacity="1" /><path clip-path="url(#clip350)" d="M160.047 417.659 Q163.403 418.377 165.278 420.645 Q167.177 422.914 167.177 426.247 Q167.177 431.363 163.658 434.164 Q160.14 436.965 153.658 436.965 Q151.482 436.965 149.167 436.525 Q146.876 436.108 144.422 435.252 L144.422 430.738 Q146.366 431.872 148.681 432.451 Q150.996 433.029 153.519 433.029 Q157.917 433.029 160.209 431.293 Q162.524 429.557 162.524 426.247 Q162.524 423.191 160.371 421.478 Q158.241 419.742 154.422 419.742 L150.394 419.742 L150.394 415.9 L154.607 415.9 Q158.056 415.9 159.885 414.534 Q161.714 413.145 161.714 410.553 Q161.714 407.891 159.815 406.479 Q157.94 405.043 154.422 405.043 Q152.501 405.043 150.302 405.46 Q148.103 405.877 145.464 406.756 L145.464 402.59 Q148.126 401.849 150.441 401.479 Q152.778 401.108 154.839 401.108 Q160.163 401.108 163.265 403.539 Q166.366 405.946 166.366 410.067 Q166.366 412.937 164.723 414.928 Q163.079 416.895 160.047 417.659 Z" fill="#000000" fill-rule="evenodd" fill-opacity="1" /><path clip-path="url(#clip350)" d="M186.042 404.812 Q182.431 404.812 180.602 408.377 Q178.797 411.918 178.797 419.048 Q178.797 426.154 180.602 429.719 Q182.431 433.261 186.042 433.261 Q189.676 433.261 191.482 429.719 Q193.311 426.154 193.311 419.048 Q193.311 411.918 191.482 408.377 Q189.676 404.812 186.042 404.812 M186.042 401.108 Q191.852 401.108 194.908 405.715 Q197.987 410.298 197.987 419.048 Q197.987 427.775 194.908 432.381 Q191.852 436.965 186.042 436.965 Q180.232 436.965 177.153 432.381 Q174.098 427.775 174.098 419.048 Q174.098 410.298 177.153 405.715 Q180.232 401.108 186.042 401.108 Z" fill="#000000" fill-rule="evenodd" fill-opacity="1" /><path clip-path="url(#clip350)" d="M216.204 404.812 Q212.593 404.812 210.764 408.377 Q208.959 411.918 208.959 419.048 Q208.959 426.154 210.764 429.719 Q212.593 433.261 216.204 433.261 Q219.838 433.261 221.644 429.719 Q223.473 426.154 223.473 419.048 Q223.473 411.918 221.644 408.377 Q219.838 404.812 216.204 404.812 M216.204 401.108 Q222.014 401.108 225.07 405.715 Q228.148 410.298 228.148 419.048 Q228.148 427.775 225.07 432.381 Q222.014 436.965 216.204 436.965 Q210.394 436.965 207.315 432.381 Q204.26 427.775 204.26 419.048 Q204.26 410.298 207.315 405.715 Q210.394 401.108 216.204 401.108 Z" fill="#000000" fill-rule="evenodd" fill-opacity="1" /><path clip-path="url(#clip350)" d="M129.885 121.482 Q133.242 122.199 135.117 124.468 Q137.015 126.736 137.015 130.069 Q137.015 135.185 133.496 137.986 Q129.978 140.787 123.496 140.787 Q121.32 140.787 119.006 140.347 Q116.714 139.93 114.26 139.074 L114.26 134.56 Q116.205 135.694 118.519 136.273 Q120.834 136.852 123.357 136.852 Q127.755 136.852 130.047 135.116 Q132.362 133.38 132.362 130.069 Q132.362 127.014 130.209 125.301 Q128.08 123.565 124.26 123.565 L120.232 123.565 L120.232 119.722 L124.445 119.722 Q127.894 119.722 129.723 118.357 Q131.552 116.968 131.552 114.375 Q131.552 111.713 129.654 110.301 Q127.779 108.866 124.26 108.866 Q122.339 108.866 120.14 109.282 Q117.941 109.699 115.302 110.579 L115.302 106.412 Q117.964 105.671 120.279 105.301 Q122.617 104.931 124.677 104.931 Q130.001 104.931 133.103 107.361 Q136.204 109.769 136.204 113.889 Q136.204 116.759 134.561 118.75 Q132.917 120.718 129.885 121.482 Z" fill="#000000" fill-rule="evenodd" fill-opacity="1" /><path clip-path="url(#clip350)" d="M158.728 109.63 L146.922 128.079 L158.728 128.079 L158.728 109.63 M157.501 105.556 L163.38 105.556 L163.38 128.079 L168.311 128.079 L168.311 131.968 L163.38 131.968 L163.38 140.116 L158.728 140.116 L158.728 131.968 L143.126 131.968 L143.126 127.454 L157.501 105.556 Z" fill="#000000" fill-rule="evenodd" fill-opacity="1" /><path clip-path="url(#clip350)" d="M186.042 108.634 Q182.431 108.634 180.602 112.199 Q178.797 115.741 178.797 122.87 Q178.797 129.977 180.602 133.542 Q182.431 137.083 186.042 137.083 Q189.676 137.083 191.482 133.542 Q193.311 129.977 193.311 122.87 Q193.311 115.741 191.482 112.199 Q189.676 108.634 186.042 108.634 M186.042 104.931 Q191.852 104.931 194.908 109.537 Q197.987 114.12 197.987 122.87 Q197.987 131.597 194.908 136.204 Q191.852 140.787 186.042 140.787 Q180.232 140.787 177.153 136.204 Q174.098 131.597 174.098 122.87 Q174.098 114.12 177.153 109.537 Q180.232 104.931 186.042 104.931 Z" fill="#000000" fill-rule="evenodd" fill-opacity="1" /><path clip-path="url(#clip350)" d="M216.204 108.634 Q212.593 108.634 210.764 112.199 Q208.959 115.741 208.959 122.87 Q208.959 129.977 210.764 133.542 Q212.593 137.083 216.204 137.083 Q219.838 137.083 221.644 133.542 Q223.473 129.977 223.473 122.87 Q223.473 115.741 221.644 112.199 Q219.838 108.634 216.204 108.634 M216.204 104.931 Q222.014 104.931 225.07 109.537 Q228.148 114.12 228.148 122.87 Q228.148 131.597 225.07 136.204 Q222.014 140.787 216.204 140.787 Q210.394 140.787 207.315 136.204 Q204.26 131.597 204.26 122.87 Q204.26 114.12 207.315 109.537 Q210.394 104.931 216.204 104.931 Z" fill="#000000" fill-rule="evenodd" fill-opacity="1" /><path clip-path="url(#clip350)" d="M57.2247 1171.07 L44.4614 1171.07 L44.4614 1181.57 L39.1779 1181.57 L39.1779 1164.7 L59.58 1164.7 Q62.2218 1168.43 63.5904 1172.91 Q64.9272 1177.4 64.9272 1182.49 Q64.9272 1193.63 58.4342 1199.94 Q51.9093 1206.21 40.2919 1206.21 Q28.6427 1206.21 22.1496 1199.94 Q15.6248 1193.63 15.6248 1182.49 Q15.6248 1177.85 16.7706 1173.68 Q17.9164 1169.48 20.1444 1165.94 L26.9876 1165.94 Q23.9639 1169.51 22.4361 1173.52 Q20.9083 1177.53 20.9083 1181.95 Q20.9083 1190.67 25.7781 1195.07 Q30.6479 1199.43 40.2919 1199.43 Q49.9041 1199.43 54.7739 1195.07 Q59.6436 1190.67 59.6436 1181.95 Q59.6436 1178.55 59.0707 1175.87 Q58.466 1173.2 57.2247 1171.07 Z" fill="#000000" fill-rule="evenodd" fill-opacity="1" /><path clip-path="url(#clip350)" d="M21.7677 1146.53 L58.7206 1146.53 L58.7206 1138.76 Q58.7206 1128.93 54.2646 1124.38 Q49.8086 1119.79 40.1964 1119.79 Q30.6479 1119.79 26.2237 1124.38 Q21.7677 1128.93 21.7677 1138.76 L21.7677 1146.53 M16.4842 1152.96 L16.4842 1139.75 Q16.4842 1125.94 22.2451 1119.47 Q27.9743 1113.01 40.1964 1113.01 Q52.4822 1113.01 58.2432 1119.51 Q64.0042 1126 64.0042 1139.75 L64.0042 1152.96 L16.4842 1152.96 Z" fill="#000000" fill-rule="evenodd" fill-opacity="1" /><path clip-path="url(#clip350)" d="M21.7677 1096.33 L39.6235 1096.33 L39.6235 1088.25 Q39.6235 1083.76 37.3 1081.31 Q34.9765 1078.86 30.6797 1078.86 Q26.4147 1078.86 24.0912 1081.31 Q21.7677 1083.76 21.7677 1088.25 L21.7677 1096.33 M16.4842 1102.76 L16.4842 1088.25 Q16.4842 1080.26 20.1126 1076.19 Q23.7092 1072.08 30.6797 1072.08 Q37.7138 1072.08 41.3104 1076.19 Q44.907 1080.26 44.907 1088.25 L44.907 1096.33 L64.0042 1096.33 L64.0042 1102.76 L16.4842 1102.76 Z" fill="#000000" fill-rule="evenodd" fill-opacity="1" /><path clip-path="url(#clip350)" d="M58.657 1037.32 L77.5631 1037.32 L77.5631 1043.21 L28.3562 1043.21 L28.3562 1037.32 L33.7671 1037.32 Q30.5842 1035.48 29.0564 1032.68 Q27.4968 1029.85 27.4968 1025.93 Q27.4968 1019.44 32.6531 1015.39 Q37.8093 1011.32 46.212 1011.32 Q54.6147 1011.32 59.771 1015.39 Q64.9272 1019.44 64.9272 1025.93 Q64.9272 1029.85 63.3994 1032.68 Q61.8398 1035.48 58.657 1037.32 M46.212 1017.4 Q39.7508 1017.4 36.0905 1020.07 Q32.3984 1022.72 32.3984 1027.36 Q32.3984 1032.01 36.0905 1034.68 Q39.7508 1037.32 46.212 1037.32 Q52.6732 1037.32 56.3653 1034.68 Q60.0256 1032.01 60.0256 1027.36 Q60.0256 1022.72 56.3653 1020.07 Q52.6732 1017.4 46.212 1017.4 Z" fill="#000000" fill-rule="evenodd" fill-opacity="1" /><path clip-path="url(#clip350)" d="M44.7161 971.122 L47.5806 971.122 L47.5806 998.048 Q53.6281 997.667 56.8109 994.42 Q59.9619 991.142 59.9619 985.317 Q59.9619 981.943 59.1344 978.792 Q58.3069 975.609 56.6518 972.49 L62.1899 972.49 Q63.5267 975.641 64.227 978.951 Q64.9272 982.261 64.9272 985.667 Q64.9272 994.197 59.9619 999.194 Q54.9967 1004.16 46.5303 1004.16 Q37.7774 1004.16 32.6531 999.449 Q27.4968 994.706 27.4968 986.686 Q27.4968 979.492 32.1438 975.323 Q36.7589 971.122 44.7161 971.122 M42.9973 976.978 Q38.1912 977.042 35.3266 979.683 Q32.4621 982.293 32.4621 986.622 Q32.4621 991.524 35.2312 994.484 Q38.0002 997.412 43.0292 997.857 L42.9973 976.978 Z" fill="#000000" fill-rule="evenodd" fill-opacity="1" /><path clip-path="url(#clip350)" d="M33.8307 940.853 Q33.2578 941.839 33.0032 943.017 Q32.7167 944.163 32.7167 945.563 Q32.7167 950.528 35.9632 953.202 Q39.1779 955.844 45.2253 955.844 L64.0042 955.844 L64.0042 961.732 L28.3562 961.732 L28.3562 955.844 L33.8944 955.844 Q30.6479 953.998 29.0883 951.038 Q27.4968 948.078 27.4968 943.844 Q27.4968 943.24 27.5923 942.508 Q27.656 941.776 27.8151 940.884 L33.8307 940.853 Z" fill="#000000" fill-rule="evenodd" fill-opacity="1" /><path clip-path="url(#clip350)" d="M29.7248 888.335 L35.1993 888.335 Q33.8307 890.818 33.1623 893.333 Q32.4621 895.815 32.4621 898.361 Q32.4621 904.059 36.0905 907.21 Q39.6872 910.361 46.212 910.361 Q52.7369 910.361 56.3653 907.21 Q59.9619 904.059 59.9619 898.361 Q59.9619 895.815 59.2935 893.333 Q58.5933 890.818 57.2247 888.335 L62.6355 888.335 Q63.7814 890.786 64.3543 893.428 Q64.9272 896.038 64.9272 898.998 Q64.9272 907.051 59.8664 911.793 Q54.8057 916.536 46.212 916.536 Q37.491 916.536 32.4939 911.761 Q27.4968 906.955 27.4968 898.616 Q27.4968 895.911 28.0697 893.333 Q28.6108 890.754 29.7248 888.335 Z" fill="#000000" fill-rule="evenodd" fill-opacity="1" /><path clip-path="url(#clip350)" d="M46.0847 861.95 Q46.0847 869.047 47.7079 871.785 Q49.3312 874.522 53.2461 874.522 Q56.3653 874.522 58.2114 872.485 Q60.0256 870.416 60.0256 866.883 Q60.0256 862.013 56.5881 859.085 Q53.1188 856.125 47.3897 856.125 L46.0847 856.125 L46.0847 861.95 M43.6657 850.269 L64.0042 850.269 L64.0042 856.125 L58.5933 856.125 Q61.8398 858.13 63.3994 861.122 Q64.9272 864.114 64.9272 868.443 Q64.9272 873.917 61.8716 877.164 Q58.7843 880.378 53.6281 880.378 Q47.6125 880.378 44.5569 876.368 Q41.5014 872.326 41.5014 864.337 L41.5014 856.125 L40.9285 856.125 Q36.8862 856.125 34.6901 858.799 Q32.4621 861.44 32.4621 866.246 Q32.4621 869.302 33.1941 872.198 Q33.9262 875.095 35.3903 877.768 L29.9795 877.768 Q28.7381 874.554 28.1334 871.53 Q27.4968 868.506 27.4968 865.642 Q27.4968 857.907 31.5072 854.088 Q35.5176 850.269 43.6657 850.269 Z" fill="#000000" fill-rule="evenodd" fill-opacity="1" /><path clip-path="url(#clip350)" d="M58.657 832.54 L77.5631 832.54 L77.5631 838.428 L28.3562 838.428 L28.3562 832.54 L33.7671 832.54 Q30.5842 830.694 29.0564 827.893 Q27.4968 825.06 27.4968 821.145 Q27.4968 814.652 32.6531 810.61 Q37.8093 806.536 46.212 806.536 Q54.6147 806.536 59.771 810.61 Q64.9272 814.652 64.9272 821.145 Q64.9272 825.06 63.3994 827.893 Q61.8398 830.694 58.657 832.54 M46.212 812.615 Q39.7508 812.615 36.0905 815.289 Q32.3984 817.931 32.3984 822.578 Q32.3984 827.225 36.0905 829.898 Q39.7508 832.54 46.212 832.54 Q52.6732 832.54 56.3653 829.898 Q60.0256 827.225 60.0256 822.578 Q60.0256 817.931 56.3653 815.289 Q52.6732 812.615 46.212 812.615 Z" fill="#000000" fill-rule="evenodd" fill-opacity="1" /><path clip-path="url(#clip350)" d="M28.3562 796.828 L28.3562 790.972 L64.0042 790.972 L64.0042 796.828 L28.3562 796.828 M14.479 796.828 L14.479 790.972 L21.895 790.972 L21.895 796.828 L14.479 796.828 Z" fill="#000000" fill-rule="evenodd" fill-opacity="1" /><path clip-path="url(#clip350)" d="M18.2347 772.925 L28.3562 772.925 L28.3562 760.862 L32.9077 760.862 L32.9077 772.925 L52.2594 772.925 Q56.6199 772.925 57.8613 771.748 Q59.1026 770.538 59.1026 766.878 L59.1026 760.862 L64.0042 760.862 L64.0042 766.878 Q64.0042 773.657 61.4897 776.235 Q58.9434 778.814 52.2594 778.814 L32.9077 778.814 L32.9077 783.11 L28.3562 783.11 L28.3562 778.814 L18.2347 778.814 L18.2347 772.925 Z" fill="#000000" fill-rule="evenodd" fill-opacity="1" /><path clip-path="url(#clip350)" d="M46.0847 736.959 Q46.0847 744.057 47.7079 746.794 Q49.3312 749.531 53.2461 749.531 Q56.3653 749.531 58.2114 747.494 Q60.0256 745.425 60.0256 741.892 Q60.0256 737.023 56.5881 734.094 Q53.1188 731.134 47.3897 731.134 L46.0847 731.134 L46.0847 736.959 M43.6657 725.278 L64.0042 725.278 L64.0042 731.134 L58.5933 731.134 Q61.8398 733.14 63.3994 736.131 Q64.9272 739.123 64.9272 743.452 Q64.9272 748.927 61.8716 752.173 Q58.7843 755.388 53.6281 755.388 Q47.6125 755.388 44.5569 751.377 Q41.5014 747.335 41.5014 739.346 L41.5014 731.134 L40.9285 731.134 Q36.8862 731.134 34.6901 733.808 Q32.4621 736.45 32.4621 741.256 Q32.4621 744.311 33.1941 747.208 Q33.9262 750.104 35.3903 752.778 L29.9795 752.778 Q28.7381 749.563 28.1334 746.539 Q27.4968 743.516 27.4968 740.651 Q27.4968 732.917 31.5072 729.097 Q35.5176 725.278 43.6657 725.278 Z" fill="#000000" fill-rule="evenodd" fill-opacity="1" /><path clip-path="url(#clip350)" d="M14.5426 678.426 Q21.8632 682.691 29.0246 684.76 Q36.186 686.829 43.5384 686.829 Q50.8908 686.829 58.1159 684.76 Q65.3091 682.66 72.5979 678.426 L72.5979 683.519 Q65.1182 688.293 57.8931 690.68 Q50.668 693.036 43.5384 693.036 Q36.4406 693.036 29.2474 690.68 Q22.0542 688.325 14.5426 683.519 L14.5426 678.426 Z" fill="#000000" fill-rule="evenodd" fill-opacity="1" /><path clip-path="url(#clip350)" d="M58.5933 660.698 L58.5933 638.259 L64.0042 638.259 L64.0042 668.432 L58.5933 668.432 Q54.8057 664.772 48.44 658.47 Q42.0425 652.136 40.1964 650.513 Q36.7271 647.425 34.34 646.216 Q31.921 644.975 29.5975 644.975 Q25.8099 644.975 23.4228 647.648 Q21.0356 650.29 21.0356 654.555 Q21.0356 657.579 22.086 660.952 Q23.1363 664.294 25.2688 668.114 L18.7758 668.114 Q17.2162 664.231 16.4205 660.857 Q15.6248 657.483 15.6248 654.682 Q15.6248 647.298 19.3169 642.906 Q23.009 638.513 29.1837 638.513 Q32.112 638.513 34.7537 639.627 Q37.3637 640.71 40.9285 643.606 Q41.8515 644.402 46.2757 648.667 Q50.668 652.932 58.5933 660.698 Z" fill="#000000" fill-rule="evenodd" fill-opacity="1" /><path clip-path="url(#clip350)" d="M20.7174 611.013 Q20.7174 615.979 25.6189 618.493 Q30.4887 620.976 40.2919 620.976 Q50.0633 620.976 54.9649 618.493 Q59.8346 615.979 59.8346 611.013 Q59.8346 606.016 54.9649 603.534 Q50.0633 601.019 40.2919 601.019 Q30.4887 601.019 25.6189 603.534 Q20.7174 606.016 20.7174 611.013 M15.6248 611.013 Q15.6248 603.025 21.9587 598.823 Q28.2607 594.59 40.2919 594.59 Q52.2913 594.59 58.6251 598.823 Q64.9272 603.025 64.9272 611.013 Q64.9272 619.002 58.6251 623.236 Q52.2913 627.437 40.2919 627.437 Q28.2607 627.437 21.9587 623.236 Q15.6248 619.002 15.6248 611.013 Z" fill="#000000" fill-rule="evenodd" fill-opacity="1" /><path clip-path="url(#clip350)" d="M58.5933 582.177 L58.5933 571.673 L22.3406 571.673 L24.6323 583.1 L18.7758 583.1 L16.4842 571.737 L16.4842 565.308 L58.5933 565.308 L58.5933 554.804 L64.0042 554.804 L64.0042 582.177 L58.5933 582.177 Z" fill="#000000" fill-rule="evenodd" fill-opacity="1" /><path clip-path="url(#clip350)" d="M58.5933 540.704 L58.5933 530.201 L22.3406 530.201 L24.6323 541.627 L18.7758 541.627 L16.4842 530.264 L16.4842 523.835 L58.5933 523.835 L58.5933 513.332 L64.0042 513.332 L64.0042 540.704 L58.5933 540.704 Z" fill="#000000" fill-rule="evenodd" fill-opacity="1" /><path clip-path="url(#clip350)" d="M16.4842 480.93 L16.4842 474.469 L45.3526 474.469 Q52.9915 474.469 56.3653 471.7 Q59.7073 468.931 59.7073 462.724 Q59.7073 456.55 56.3653 453.781 Q52.9915 451.011 45.3526 451.011 L16.4842 451.011 L16.4842 444.55 L46.1484 444.55 Q55.4423 444.55 60.1847 449.165 Q64.9272 453.749 64.9272 462.724 Q64.9272 471.732 60.1847 476.347 Q55.4423 480.93 46.1484 480.93 L16.4842 480.93 Z" fill="#000000" fill-rule="evenodd" fill-opacity="1" /><path clip-path="url(#clip350)" d="M18.0438 404.001 L24.314 404.001 Q22.5634 407.661 21.704 410.907 Q20.8447 414.154 20.8447 417.178 Q20.8447 422.429 22.8817 425.294 Q24.9187 428.127 28.6745 428.127 Q31.8255 428.127 33.4488 426.249 Q35.0402 424.339 36.0269 419.056 L36.8226 415.173 Q38.1912 407.979 41.6605 404.574 Q45.098 401.136 50.8908 401.136 Q57.7976 401.136 61.3624 405.783 Q64.9272 410.398 64.9272 419.342 Q64.9272 422.716 64.1633 426.535 Q63.3994 430.323 61.9035 434.397 L55.2831 434.397 Q57.4793 430.482 58.5933 426.726 Q59.7073 422.971 59.7073 419.342 Q59.7073 413.836 57.543 410.844 Q55.3786 407.852 51.3682 407.852 Q47.8671 407.852 45.8937 410.016 Q43.9204 412.149 42.9337 417.05 L42.1698 420.965 Q40.7375 428.159 37.682 431.373 Q34.6264 434.588 29.1837 434.588 Q22.8817 434.588 19.2532 430.164 Q15.6248 425.708 15.6248 417.91 Q15.6248 414.568 16.2295 411.098 Q16.8343 407.629 18.0438 404.001 Z" fill="#000000" fill-rule="evenodd" fill-opacity="1" /><path clip-path="url(#clip350)" d="M21.7677 384.681 L58.7206 384.681 L58.7206 376.915 Q58.7206 367.08 54.2646 362.528 Q49.8086 357.945 40.1964 357.945 Q30.6479 357.945 26.2237 362.528 Q21.7677 367.08 21.7677 376.915 L21.7677 384.681 M16.4842 391.11 L16.4842 377.901 Q16.4842 364.088 22.2451 357.627 Q27.9743 351.165 40.1964 351.165 Q52.4822 351.165 58.2432 357.658 Q64.0042 364.151 64.0042 377.901 L64.0042 391.11 L16.4842 391.11 Z" fill="#000000" fill-rule="evenodd" fill-opacity="1" /><path clip-path="url(#clip350)" d="M14.5426 342.094 L14.5426 337.002 Q22.0542 332.227 29.2474 329.872 Q36.4406 327.485 43.5384 327.485 Q50.668 327.485 57.8931 329.872 Q65.1182 332.227 72.5979 337.002 L72.5979 342.094 Q65.3091 337.861 58.1159 335.792 Q50.8908 333.691 43.5384 333.691 Q36.186 333.691 29.0246 335.792 Q21.8632 337.861 14.5426 342.094 Z" fill="#000000" fill-rule="evenodd" fill-opacity="1" /><polyline clip-path="url(#clip352)" style="stroke:#0000ff; stroke-linecap:butt; stroke-linejoin:round; stroke-width:10; stroke-opacity:1; fill:none" points="
  323.26,1445.72 502.386,1334.87 681.512,1145.31 860.638,1009.4 1039.76,968.098 1218.89,1081.62 1398.02,1196.1 1577.14,982.893 1756.27,771.6 1935.39,564.46 
  2114.52,434.51 2293.64,273.226 
  "/>
<polyline clip-path="url(#clip352)" style="stroke:#ff0000; stroke-linecap:butt; stroke-linejoin:round; stroke-width:8; stroke-opacity:1; fill:none" stroke-dasharray="32, 20" points="
  323.26,1373.42 502.386,1238.52 681.512,1079.6 860.638,984.386 1039.76,898.114 1218.89,925.189 1398.02,1093.45 1577.14,990.562 1756.27,840.779 1935.39,569.605 
  2114.52,381.775 2293.64,87.9763 
  "/>
<polyline clip-path="url(#clip352)" style="stroke:#000000; stroke-linecap:butt; stroke-linejoin:round; stroke-width:3; stroke-opacity:1; fill:none" stroke-dasharray="12, 6, 2, 6" points="
  1218.89,2925.65 1218.89,-1391.96 
  "/>
<path clip-path="url(#clip350)" d="
M333.769 250.738 L808.914 250.738 L808.914 95.2176 L333.769 95.2176  Z
  " fill="#ffffff" fill-rule="evenodd" fill-opacity="1"/>
<polyline clip-path="url(#clip350)" style="stroke:#000000; stroke-linecap:butt; stroke-linejoin:round; stroke-width:4; stroke-opacity:1; fill:none" points="
  333.769,250.738 808.914,250.738 808.914,95.2176 333.769,95.2176 333.769,250.738 
  "/>
<polyline clip-path="url(#clip350)" style="stroke:#0000ff; stroke-linecap:butt; stroke-linejoin:round; stroke-width:4; stroke-opacity:1; fill:none" points="
  356.975,147.058 496.216,147.058 
  "/>
<path clip-path="url(#clip350)" d="M519.423 129.778 L548.659 129.778 L548.659 133.713 L536.39 133.713 L536.39 164.338 L531.691 164.338 L531.691 133.713 L519.423 133.713 L519.423 129.778 Z" fill="#000000" fill-rule="evenodd" fill-opacity="1" /><path clip-path="url(#clip350)" d="M561.043 142.393 Q560.325 141.977 559.469 141.791 Q558.635 141.583 557.617 141.583 Q554.006 141.583 552.061 143.944 Q550.14 146.282 550.14 150.68 L550.14 164.338 L545.858 164.338 L545.858 138.412 L550.14 138.412 L550.14 142.44 Q551.483 140.078 553.635 138.944 Q555.788 137.787 558.867 137.787 Q559.307 137.787 559.839 137.856 Q560.372 137.903 561.02 138.018 L561.043 142.393 Z" fill="#000000" fill-rule="evenodd" fill-opacity="1" /><path clip-path="url(#clip350)" d="M586.645 150.31 L586.645 152.393 L567.061 152.393 Q567.339 156.791 569.7 159.106 Q572.084 161.398 576.321 161.398 Q578.774 161.398 581.066 160.796 Q583.381 160.194 585.649 158.99 L585.649 163.018 Q583.358 163.99 580.95 164.5 Q578.543 165.009 576.066 165.009 Q569.862 165.009 566.228 161.398 Q562.617 157.787 562.617 151.629 Q562.617 145.264 566.043 141.537 Q569.492 137.787 575.325 137.787 Q580.557 137.787 583.589 141.166 Q586.645 144.523 586.645 150.31 M582.385 149.06 Q582.339 145.565 580.418 143.481 Q578.52 141.398 575.371 141.398 Q571.807 141.398 569.654 143.412 Q567.524 145.426 567.2 149.083 L582.385 149.06 Z" fill="#000000" fill-rule="evenodd" fill-opacity="1" /><path clip-path="url(#clip350)" d="M605.418 151.305 Q600.256 151.305 598.265 152.486 Q596.274 153.666 596.274 156.514 Q596.274 158.782 597.756 160.125 Q599.26 161.444 601.83 161.444 Q605.371 161.444 607.501 158.944 Q609.654 156.421 609.654 152.254 L609.654 151.305 L605.418 151.305 M613.913 149.546 L613.913 164.338 L609.654 164.338 L609.654 160.402 Q608.195 162.763 606.019 163.898 Q603.844 165.009 600.695 165.009 Q596.714 165.009 594.353 162.787 Q592.015 160.541 592.015 156.791 Q592.015 152.416 594.932 150.194 Q597.871 147.972 603.681 147.972 L609.654 147.972 L609.654 147.555 Q609.654 144.615 607.709 143.018 Q605.788 141.398 602.293 141.398 Q600.07 141.398 597.964 141.93 Q595.857 142.463 593.913 143.527 L593.913 139.592 Q596.251 138.69 598.45 138.25 Q600.649 137.787 602.732 137.787 Q608.357 137.787 611.135 140.703 Q613.913 143.62 613.913 149.546 Z" fill="#000000" fill-rule="evenodd" fill-opacity="1" /><path clip-path="url(#clip350)" d="M626.899 131.051 L626.899 138.412 L635.672 138.412 L635.672 141.722 L626.899 141.722 L626.899 155.796 Q626.899 158.967 627.755 159.87 Q628.635 160.773 631.297 160.773 L635.672 160.773 L635.672 164.338 L631.297 164.338 Q626.367 164.338 624.492 162.509 Q622.617 160.657 622.617 155.796 L622.617 141.722 L619.492 141.722 L619.492 138.412 L622.617 138.412 L622.617 131.051 L626.899 131.051 Z" fill="#000000" fill-rule="evenodd" fill-opacity="1" /><path clip-path="url(#clip350)" d="M663.45 150.31 L663.45 152.393 L643.866 152.393 Q644.144 156.791 646.505 159.106 Q648.89 161.398 653.126 161.398 Q655.579 161.398 657.871 160.796 Q660.186 160.194 662.454 158.99 L662.454 163.018 Q660.163 163.99 657.755 164.5 Q655.348 165.009 652.871 165.009 Q646.667 165.009 643.033 161.398 Q639.422 157.787 639.422 151.629 Q639.422 145.264 642.848 141.537 Q646.297 137.787 652.13 137.787 Q657.362 137.787 660.394 141.166 Q663.45 144.523 663.45 150.31 M659.19 149.06 Q659.144 145.565 657.223 143.481 Q655.325 141.398 652.177 141.398 Q648.612 141.398 646.459 143.412 Q644.329 145.426 644.005 149.083 L659.19 149.06 Z" fill="#000000" fill-rule="evenodd" fill-opacity="1" /><path clip-path="url(#clip350)" d="M687.5 142.347 L687.5 128.319 L691.76 128.319 L691.76 164.338 L687.5 164.338 L687.5 160.449 Q686.158 162.763 684.098 163.898 Q682.061 165.009 679.19 165.009 Q674.491 165.009 671.528 161.259 Q668.589 157.509 668.589 151.398 Q668.589 145.287 671.528 141.537 Q674.491 137.787 679.19 137.787 Q682.061 137.787 684.098 138.921 Q686.158 140.032 687.5 142.347 M672.987 151.398 Q672.987 156.097 674.908 158.782 Q676.852 161.444 680.232 161.444 Q683.612 161.444 685.556 158.782 Q687.5 156.097 687.5 151.398 Q687.5 146.699 685.556 144.037 Q683.612 141.352 680.232 141.352 Q676.852 141.352 674.908 144.037 Q672.987 146.699 672.987 151.398 Z" fill="#000000" fill-rule="evenodd" fill-opacity="1" /><polyline clip-path="url(#clip350)" style="stroke:#ff0000; stroke-linecap:butt; stroke-linejoin:round; stroke-width:4; stroke-opacity:1; fill:none" stroke-dasharray="16, 10" points="
  356.975,198.898 496.216,198.898 
  "/>
<path clip-path="url(#clip350)" d="M541.668 182.752 L541.668 187.312 Q539.006 186.039 536.645 185.414 Q534.284 184.789 532.085 184.789 Q528.265 184.789 526.182 186.27 Q524.122 187.752 524.122 190.483 Q524.122 192.775 525.487 193.955 Q526.876 195.113 530.719 195.83 L533.543 196.409 Q538.774 197.405 541.251 199.928 Q543.751 202.428 543.751 206.641 Q543.751 211.664 540.372 214.256 Q537.015 216.849 530.511 216.849 Q528.057 216.849 525.279 216.293 Q522.525 215.738 519.562 214.65 L519.562 209.835 Q522.409 211.432 525.14 212.242 Q527.872 213.053 530.511 213.053 Q534.515 213.053 536.691 211.479 Q538.867 209.904 538.867 206.988 Q538.867 204.442 537.293 203.006 Q535.742 201.571 532.177 200.854 L529.33 200.298 Q524.099 199.256 521.761 197.034 Q519.423 194.812 519.423 190.854 Q519.423 186.27 522.64 183.631 Q525.881 180.993 531.552 180.993 Q533.983 180.993 536.506 181.432 Q539.029 181.872 541.668 182.752 Z" fill="#000000" fill-rule="evenodd" fill-opacity="1" /><path clip-path="url(#clip350)" d="M561.645 218.585 Q559.839 223.215 558.126 224.627 Q556.413 226.039 553.543 226.039 L550.14 226.039 L550.14 222.474 L552.64 222.474 Q554.399 222.474 555.372 221.64 Q556.344 220.807 557.524 217.705 L558.288 215.761 L547.802 190.252 L552.316 190.252 L560.418 210.529 L568.52 190.252 L573.034 190.252 L561.645 218.585 Z" fill="#000000" fill-rule="evenodd" fill-opacity="1" /><path clip-path="url(#clip350)" d="M600.464 200.529 L600.464 216.178 L596.205 216.178 L596.205 200.668 Q596.205 196.988 594.77 195.159 Q593.334 193.33 590.464 193.33 Q587.015 193.33 585.024 195.53 Q583.033 197.729 583.033 201.525 L583.033 216.178 L578.751 216.178 L578.751 190.252 L583.033 190.252 L583.033 194.28 Q584.561 191.942 586.621 190.784 Q588.705 189.627 591.413 189.627 Q595.881 189.627 598.172 192.405 Q600.464 195.159 600.464 200.529 Z" fill="#000000" fill-rule="evenodd" fill-opacity="1" /><path clip-path="url(#clip350)" d="M613.172 182.891 L613.172 190.252 L621.945 190.252 L621.945 193.562 L613.172 193.562 L613.172 207.636 Q613.172 210.807 614.029 211.71 Q614.908 212.613 617.57 212.613 L621.945 212.613 L621.945 216.178 L617.57 216.178 Q612.64 216.178 610.765 214.349 Q608.89 212.497 608.89 207.636 L608.89 193.562 L605.765 193.562 L605.765 190.252 L608.89 190.252 L608.89 182.891 L613.172 182.891 Z" fill="#000000" fill-rule="evenodd" fill-opacity="1" /><path clip-path="url(#clip350)" d="M649.098 200.529 L649.098 216.178 L644.839 216.178 L644.839 200.668 Q644.839 196.988 643.403 195.159 Q641.968 193.33 639.098 193.33 Q635.649 193.33 633.658 195.53 Q631.667 197.729 631.667 201.525 L631.667 216.178 L627.385 216.178 L627.385 180.159 L631.667 180.159 L631.667 194.28 Q633.195 191.942 635.255 190.784 Q637.339 189.627 640.047 189.627 Q644.515 189.627 646.806 192.405 Q649.098 195.159 649.098 200.529 Z" fill="#000000" fill-rule="evenodd" fill-opacity="1" /><path clip-path="url(#clip350)" d="M679.769 202.15 L679.769 204.233 L660.186 204.233 Q660.464 208.631 662.825 210.946 Q665.209 213.238 669.445 213.238 Q671.899 213.238 674.19 212.636 Q676.505 212.034 678.774 210.83 L678.774 214.858 Q676.482 215.83 674.075 216.34 Q671.667 216.849 669.19 216.849 Q662.987 216.849 659.352 213.238 Q655.741 209.627 655.741 203.469 Q655.741 197.104 659.167 193.377 Q662.616 189.627 668.45 189.627 Q673.681 189.627 676.714 193.006 Q679.769 196.363 679.769 202.15 M675.51 200.9 Q675.464 197.405 673.542 195.321 Q671.644 193.238 668.496 193.238 Q664.931 193.238 662.778 195.252 Q660.649 197.266 660.325 200.923 L675.51 200.9 Z" fill="#000000" fill-rule="evenodd" fill-opacity="1" /><path clip-path="url(#clip350)" d="M690.973 182.891 L690.973 190.252 L699.746 190.252 L699.746 193.562 L690.973 193.562 L690.973 207.636 Q690.973 210.807 691.829 211.71 Q692.709 212.613 695.371 212.613 L699.746 212.613 L699.746 216.178 L695.371 216.178 Q690.44 216.178 688.565 214.349 Q686.69 212.497 686.69 207.636 L686.69 193.562 L683.565 193.562 L683.565 190.252 L686.69 190.252 L686.69 182.891 L690.973 182.891 Z" fill="#000000" fill-rule="evenodd" fill-opacity="1" /><path clip-path="url(#clip350)" d="M705.348 190.252 L709.607 190.252 L709.607 216.178 L705.348 216.178 L705.348 190.252 M705.348 180.159 L709.607 180.159 L709.607 185.553 L705.348 185.553 L705.348 180.159 Z" fill="#000000" fill-rule="evenodd" fill-opacity="1" /><path clip-path="url(#clip350)" d="M737.176 191.247 L737.176 195.229 Q735.371 194.233 733.542 193.747 Q731.736 193.238 729.885 193.238 Q725.741 193.238 723.449 195.877 Q721.158 198.492 721.158 203.238 Q721.158 207.983 723.449 210.622 Q725.741 213.238 729.885 213.238 Q731.736 213.238 733.542 212.752 Q735.371 212.242 737.176 211.247 L737.176 215.182 Q735.394 216.016 733.472 216.432 Q731.574 216.849 729.422 216.849 Q723.565 216.849 720.116 213.168 Q716.667 209.488 716.667 203.238 Q716.667 196.895 720.139 193.261 Q723.635 189.627 729.699 189.627 Q731.667 189.627 733.542 190.043 Q735.417 190.437 737.176 191.247 Z" fill="#000000" fill-rule="evenodd" fill-opacity="1" /><path clip-path="url(#clip350)" d="M761.111 191.016 L761.111 195.043 Q759.306 194.117 757.361 193.655 Q755.417 193.192 753.333 193.192 Q750.162 193.192 748.565 194.164 Q746.991 195.136 746.991 197.08 Q746.991 198.562 748.125 199.418 Q749.259 200.252 752.685 201.016 L754.144 201.34 Q758.681 202.312 760.579 204.094 Q762.5 205.854 762.5 209.025 Q762.5 212.636 759.63 214.742 Q756.783 216.849 751.783 216.849 Q749.699 216.849 747.431 216.432 Q745.185 216.039 742.685 215.228 L742.685 210.83 Q745.046 212.057 747.338 212.682 Q749.63 213.284 751.875 213.284 Q754.884 213.284 756.505 212.266 Q758.125 211.224 758.125 209.349 Q758.125 207.613 756.945 206.687 Q755.787 205.761 751.829 204.904 L750.347 204.557 Q746.389 203.724 744.63 202.011 Q742.871 200.275 742.871 197.266 Q742.871 193.608 745.463 191.618 Q748.056 189.627 752.824 189.627 Q755.185 189.627 757.269 189.974 Q759.352 190.321 761.111 191.016 Z" fill="#000000" fill-rule="evenodd" fill-opacity="1" /></svg>
