<?xml version="1.0" encoding="utf-8"?>
<svg xmlns="http://www.w3.org/2000/svg" xmlns:xlink="http://www.w3.org/1999/xlink" width="600" height="400" viewBox="0 0 2400 1600">
<defs>
  <clipPath id="clip030">
    <rect x="0" y="0" width="2400" height="1600"/>
  </clipPath>
</defs>
<path clip-path="url(#clip030)" d="
M0 1600 L2400 1600 L2400 0 L0 0  Z
  " fill="#ffffff" fill-rule="evenodd" fill-opacity="1"/>
<defs>
  <clipPath id="clip031">
    <rect x="480" y="0" width="1681" height="1600"/>
  </clipPath>
</defs>
<path clip-path="url(#clip030)" d="
M199.829 1422.68 L2352.76 1422.68 L2352.76 47.2441 L199.829 47.2441  Z
  " fill="#ffffff" fill-rule="evenodd" fill-opacity="1"/>
<defs>
  <clipPath id="clip032">
    <rect x="199" y="47" width="2154" height="1376"/>
  </clipPath>
</defs>
<polyline clip-path="url(#clip030)" style="stroke:#000000; stroke-linecap:butt; stroke-linejoin:round; stroke-width:4; stroke-opacity:1; fill:none" points="
  199.829,1422.68 2352.76,1422.68 
  "/>
<polyline clip-path="url(#clip030)" style="stroke:#000000; stroke-linecap:butt; stroke-linejoin:round; stroke-width:4; stroke-opacity:1; fill:none" points="
  260.761,1422.68 260.761,1403.79 
  "/>
<polyline clip-path="url(#clip030)" style="stroke:#000000; stroke-linecap:butt; stroke-linejoin:round; stroke-width:4; stroke-opacity:1; fill:none" points="
  599.272,1422.68 599.272,1403.79 
  "/>
<polyline clip-path="url(#clip030)" style="stroke:#000000; stroke-linecap:butt; stroke-linejoin:round; stroke-width:4; stroke-opacity:1; fill:none" points="
  937.782,1422.68 937.782,1403.79 
  "/>
<polyline clip-path="url(#clip030)" style="stroke:#000000; stroke-linecap:butt; stroke-linejoin:round; stroke-width:4; stroke-opacity:1; fill:none" points="
  1276.29,1422.68 1276.29,1403.79 
  "/>
<polyline clip-path="url(#clip030)" style="stroke:#000000; stroke-linecap:butt; stroke-linejoin:round; stroke-width:4; stroke-opacity:1; fill:none" points="
  1614.8,1422.68 1614.8,1403.79 
  "/>
<polyline clip-path="url(#clip030)" style="stroke:#000000; stroke-linecap:butt; stroke-linejoin:round; stroke-width:4; stroke-opacity:1; fill:none" points="
  1953.31,1422.68 1953.31,1403.79 
  "/>
<polyline clip-path="url(#clip030)" style="stroke:#000000; stroke-linecap:butt; stroke-linejoin:round; stroke-width:4; stroke-opacity:1; fill:none" points="
  2291.82,1422.68 2291.82,1403.79 
  "/>
<g clip-path="url(#clip030)">
<text style="fill:#000000; fill-opacity:1; font-family:Times New Roman,TimesNewRoman,Times,Baskerville,Georgia,serif; font-size:53px; text-anchor:middle;" transform="rotate(0, 260.761, 1483.88)" x="260.761" y="1483.88">0</text>
</g>
<g clip-path="url(#clip030)">
<text style="fill:#000000; fill-opacity:1; font-family:Times New Roman,TimesNewRoman,Times,Baskerville,Georgia,serif; font-size:53px; text-anchor:middle;" transform="rotate(0, 599.272, 1483.88)" x="599.272" y="1483.88">1</text>
</g>
<g clip-path="url(#clip030)">
<text style="fill:#000000; fill-opacity:1; font-family:Times New Roman,TimesNewRoman,Times,Baskerville,Georgia,serif; font-size:53px; text-anchor:middle;" transform="rotate(0, 937.782, 1483.88)" x="937.782" y="1483.88">2</text>
</g>
<g clip-path="url(#clip030)">
<text style="fill:#000000; fill-opacity:1; font-family:Times New Roman,TimesNewRoman,Times,Baskerville,Georgia,serif; font-size:53px; text-anchor:middle;" transform="rotate(0, 1276.29, 1483.88)" x="1276.29" y="1483.88">3</text>
</g>
<g clip-path="url(#clip030)">
<text style="fill:#000000; fill-opacity:1; font-family:Times New Roman,TimesNewRoman,Times,Baskerville,Georgia,serif; font-size:53px; text-anchor:middle;" transform="rotate(0, 1614.8, 1483.88)" x="1614.8" y="1483.88">4</text>
</g>
<g clip-path="url(#clip030)">
<text style="fill:#000000; fill-opacity:1; font-family:Times New Roman,TimesNewRoman,Times,Baskerville,Georgia,serif; font-size:53px; text-anchor:middle;" transform="rotate(0, 1953.31, 1483.88)" x="1953.31" y="1483.88">5</text>
</g>
<g clip-path="url(#clip030)">
<text style="fill:#000000; fill-opacity:1; font-family:Times New Roman,TimesNewRoman,Times,Baskerville,Georgia,serif; font-size:53px; text-anchor:middle;" transform="rotate(0, 2291.82, 1483.88)" x="2291.82" y="1483.88">6</text>
</g>
<g clip-path="url(#clip030)">
<text style="fill:#000000; fill-opacity:1; font-family:Times New Roman,TimesNewRoman,Times,Baskerville,Georgia,serif; font-size:73px; text-anchor:middle;" transform="rotate(0, 1276.29, 1572.95)" x="1276.29" y="1572.95">Years From Crisis</text>
</g>
<polyline clip-path="url(#clip030)" style="stroke:#000000; stroke-linecap:butt; stroke-linejoin:round; stroke-width:4; stroke-opacity:1; fill:none" points="
  199.829,1422.68 199.829,47.2441 
  "/>
<polyline clip-path="url(#clip030)" style="stroke:#000000; stroke-linecap:butt; stroke-linejoin:round; stroke-width:4; stroke-opacity:1; fill:none" points="
  199.829,1422.68 218.727,1422.68 
  "/>
<polyline clip-path="url(#clip030)" style="stroke:#000000; stroke-linecap:butt; stroke-linejoin:round; stroke-width:4; stroke-opacity:1; fill:none" points="
  199.829,1226.19 218.727,1226.19 
  "/>
<polyline clip-path="url(#clip030)" style="stroke:#000000; stroke-linecap:butt; stroke-linejoin:round; stroke-width:4; stroke-opacity:1; fill:none" points="
  199.829,1029.7 218.727,1029.7 
  "/>
<polyline clip-path="url(#clip030)" style="stroke:#000000; stroke-linecap:butt; stroke-linejoin:round; stroke-width:4; stroke-opacity:1; fill:none" points="
  199.829,833.21 218.727,833.21 
  "/>
<polyline clip-path="url(#clip030)" style="stroke:#000000; stroke-linecap:butt; stroke-linejoin:round; stroke-width:4; stroke-opacity:1; fill:none" points="
  199.829,636.718 218.727,636.718 
  "/>
<polyline clip-path="url(#clip030)" style="stroke:#000000; stroke-linecap:butt; stroke-linejoin:round; stroke-width:4; stroke-opacity:1; fill:none" points="
  199.829,440.227 218.727,440.227 
  "/>
<polyline clip-path="url(#clip030)" style="stroke:#000000; stroke-linecap:butt; stroke-linejoin:round; stroke-width:4; stroke-opacity:1; fill:none" points="
  199.829,243.735 218.727,243.735 
  "/>
<polyline clip-path="url(#clip030)" style="stroke:#000000; stroke-linecap:butt; stroke-linejoin:round; stroke-width:4; stroke-opacity:1; fill:none" points="
  199.829,47.2441 218.727,47.2441 
  "/>
<g clip-path="url(#clip030)">
<text style="fill:#000000; fill-opacity:1; font-family:Times New Roman,TimesNewRoman,Times,Baskerville,Georgia,serif; font-size:53px; text-anchor:end;" transform="rotate(0, 163.829, 1440.18)" x="163.829" y="1440.18">−3</text>
</g>
<g clip-path="url(#clip030)">
<text style="fill:#000000; fill-opacity:1; font-family:Times New Roman,TimesNewRoman,Times,Baskerville,Georgia,serif; font-size:53px; text-anchor:end;" transform="rotate(0, 163.829, 1243.69)" x="163.829" y="1243.69">−2</text>
</g>
<g clip-path="url(#clip030)">
<text style="fill:#000000; fill-opacity:1; font-family:Times New Roman,TimesNewRoman,Times,Baskerville,Georgia,serif; font-size:53px; text-anchor:end;" transform="rotate(0, 163.829, 1047.2)" x="163.829" y="1047.2">−1</text>
</g>
<g clip-path="url(#clip030)">
<text style="fill:#000000; fill-opacity:1; font-family:Times New Roman,TimesNewRoman,Times,Baskerville,Georgia,serif; font-size:53px; text-anchor:end;" transform="rotate(0, 163.829, 850.71)" x="163.829" y="850.71">0</text>
</g>
<g clip-path="url(#clip030)">
<text style="fill:#000000; fill-opacity:1; font-family:Times New Roman,TimesNewRoman,Times,Baskerville,Georgia,serif; font-size:53px; text-anchor:end;" transform="rotate(0, 163.829, 654.218)" x="163.829" y="654.218">1</text>
</g>
<g clip-path="url(#clip030)">
<text style="fill:#000000; fill-opacity:1; font-family:Times New Roman,TimesNewRoman,Times,Baskerville,Georgia,serif; font-size:53px; text-anchor:end;" transform="rotate(0, 163.829, 457.727)" x="163.829" y="457.727">2</text>
</g>
<g clip-path="url(#clip030)">
<text style="fill:#000000; fill-opacity:1; font-family:Times New Roman,TimesNewRoman,Times,Baskerville,Georgia,serif; font-size:53px; text-anchor:end;" transform="rotate(0, 163.829, 261.235)" x="163.829" y="261.235">3</text>
</g>
<g clip-path="url(#clip030)">
<text style="fill:#000000; fill-opacity:1; font-family:Times New Roman,TimesNewRoman,Times,Baskerville,Georgia,serif; font-size:53px; text-anchor:end;" transform="rotate(0, 163.829, 64.7441)" x="163.829" y="64.7441">4</text>
</g>
<g clip-path="url(#clip030)">
<text style="fill:#000000; fill-opacity:1; font-family:Times New Roman,TimesNewRoman,Times,Baskerville,Georgia,serif; font-size:73px; text-anchor:middle;" transform="rotate(-90, 64.4366, 734.964)" x="64.4366" y="734.964">Increase in Output (%)</text>
</g>
<polyline clip-path="url(#clip032)" style="stroke:#0000ff; stroke-linecap:butt; stroke-linejoin:round; stroke-width:10; stroke-opacity:1; fill:none" points="
  260.761,833.21 599.272,627.907 937.782,330.388 1276.29,285.67 1614.8,530.764 1953.31,690.467 2291.82,932.117 
  "/>
<circle clip-path="url(#clip032)" cx="260.761" cy="833.21" r="10" fill="#0000ff" fill-rule="evenodd" fill-opacity="1" stroke="#000000" stroke-opacity="1" stroke-width="3.2"/>
<circle clip-path="url(#clip032)" cx="599.272" cy="627.907" r="10" fill="#0000ff" fill-rule="evenodd" fill-opacity="1" stroke="#000000" stroke-opacity="1" stroke-width="3.2"/>
<circle clip-path="url(#clip032)" cx="937.782" cy="330.388" r="10" fill="#0000ff" fill-rule="evenodd" fill-opacity="1" stroke="#000000" stroke-opacity="1" stroke-width="3.2"/>
<circle clip-path="url(#clip032)" cx="1276.29" cy="285.67" r="10" fill="#0000ff" fill-rule="evenodd" fill-opacity="1" stroke="#000000" stroke-opacity="1" stroke-width="3.2"/>
<circle clip-path="url(#clip032)" cx="1614.8" cy="530.764" r="10" fill="#0000ff" fill-rule="evenodd" fill-opacity="1" stroke="#000000" stroke-opacity="1" stroke-width="3.2"/>
<circle clip-path="url(#clip032)" cx="1953.31" cy="690.467" r="10" fill="#0000ff" fill-rule="evenodd" fill-opacity="1" stroke="#000000" stroke-opacity="1" stroke-width="3.2"/>
<circle clip-path="url(#clip032)" cx="2291.82" cy="932.117" r="10" fill="#0000ff" fill-rule="evenodd" fill-opacity="1" stroke="#000000" stroke-opacity="1" stroke-width="3.2"/>
<polyline clip-path="url(#clip032)" style="stroke:#800000; stroke-linecap:butt; stroke-linejoin:round; stroke-width:7.6; stroke-opacity:1; fill:none" stroke-dasharray="30, 19" points="
  260.761,833.21 599.272,693.019 937.782,517.162 1276.29,432.225 1614.8,540.951 1953.31,643.767 2291.82,873.578 
  "/>
<path clip-path="url(#clip032)" d="M260.761 843.21 L252.101 838.21 L252.101 828.21 L260.761 823.21 L269.421 828.21 L269.421 838.21 Z" fill="#800000" fill-rule="evenodd" fill-opacity="1" stroke="#000000" stroke-opacity="1" stroke-width="3.2"/>
<path clip-path="url(#clip032)" d="M599.272 703.019 L590.612 698.019 L590.612 688.019 L599.272 683.019 L607.932 688.019 L607.932 698.019 Z" fill="#800000" fill-rule="evenodd" fill-opacity="1" stroke="#000000" stroke-opacity="1" stroke-width="3.2"/>
<path clip-path="url(#clip032)" d="M937.782 527.162 L929.122 522.162 L929.122 512.162 L937.782 507.162 L946.442 512.162 L946.442 522.162 Z" fill="#800000" fill-rule="evenodd" fill-opacity="1" stroke="#000000" stroke-opacity="1" stroke-width="3.2"/>
<path clip-path="url(#clip032)" d="M1276.29 442.225 L1267.63 437.225 L1267.63 427.225 L1276.29 422.225 L1284.95 427.225 L1284.95 437.225 Z" fill="#800000" fill-rule="evenodd" fill-opacity="1" stroke="#000000" stroke-opacity="1" stroke-width="3.2"/>
<path clip-path="url(#clip032)" d="M1614.8 550.951 L1606.14 545.951 L1606.14 535.951 L1614.8 530.951 L1623.46 535.951 L1623.46 545.951 Z" fill="#800000" fill-rule="evenodd" fill-opacity="1" stroke="#000000" stroke-opacity="1" stroke-width="3.2"/>
<path clip-path="url(#clip032)" d="M1953.31 653.767 L1944.65 648.767 L1944.65 638.767 L1953.31 633.767 L1961.97 638.767 L1961.97 648.767 Z" fill="#800000" fill-rule="evenodd" fill-opacity="1" stroke="#000000" stroke-opacity="1" stroke-width="3.2"/>
<path clip-path="url(#clip032)" d="M2291.82 883.578 L2283.16 878.578 L2283.16 868.578 L2291.82 863.578 L2300.48 868.578 L2300.48 878.578 Z" fill="#800000" fill-rule="evenodd" fill-opacity="1" stroke="#000000" stroke-opacity="1" stroke-width="3.2"/>
<polyline clip-path="url(#clip032)" style="stroke:#800000; stroke-linecap:butt; stroke-linejoin:round; stroke-width:7.6; stroke-opacity:1; fill:none" stroke-dasharray="4, 8" points="
  260.761,833.21 599.272,824.201 937.782,650.305 1276.29,572.614 1614.8,687.379 1953.31,788.691 2291.82,1002.38 
  "/>
<line clip-path="url(#clip032)" x1="260.761" y1="833.21" x2="250.761" y2="823.21" style="stroke:#800000; stroke-width:3.2; stroke-opacity:1"/>
<line clip-path="url(#clip032)" x1="260.761" y1="833.21" x2="250.761" y2="843.21" style="stroke:#800000; stroke-width:3.2; stroke-opacity:1"/>
<line clip-path="url(#clip032)" x1="260.761" y1="833.21" x2="270.761" y2="843.21" style="stroke:#800000; stroke-width:3.2; stroke-opacity:1"/>
<line clip-path="url(#clip032)" x1="260.761" y1="833.21" x2="270.761" y2="823.21" style="stroke:#800000; stroke-width:3.2; stroke-opacity:1"/>
<line clip-path="url(#clip032)" x1="599.272" y1="824.201" x2="589.272" y2="814.201" style="stroke:#800000; stroke-width:3.2; stroke-opacity:1"/>
<line clip-path="url(#clip032)" x1="599.272" y1="824.201" x2="589.272" y2="834.201" style="stroke:#800000; stroke-width:3.2; stroke-opacity:1"/>
<line clip-path="url(#clip032)" x1="599.272" y1="824.201" x2="609.272" y2="834.201" style="stroke:#800000; stroke-width:3.2; stroke-opacity:1"/>
<line clip-path="url(#clip032)" x1="599.272" y1="824.201" x2="609.272" y2="814.201" style="stroke:#800000; stroke-width:3.2; stroke-opacity:1"/>
<line clip-path="url(#clip032)" x1="937.782" y1="650.305" x2="927.782" y2="640.305" style="stroke:#800000; stroke-width:3.2; stroke-opacity:1"/>
<line clip-path="url(#clip032)" x1="937.782" y1="650.305" x2="927.782" y2="660.305" style="stroke:#800000; stroke-width:3.2; stroke-opacity:1"/>
<line clip-path="url(#clip032)" x1="937.782" y1="650.305" x2="947.782" y2="660.305" style="stroke:#800000; stroke-width:3.2; stroke-opacity:1"/>
<line clip-path="url(#clip032)" x1="937.782" y1="650.305" x2="947.782" y2="640.305" style="stroke:#800000; stroke-width:3.2; stroke-opacity:1"/>
<line clip-path="url(#clip032)" x1="1276.29" y1="572.614" x2="1266.29" y2="562.614" style="stroke:#800000; stroke-width:3.2; stroke-opacity:1"/>
<line clip-path="url(#clip032)" x1="1276.29" y1="572.614" x2="1266.29" y2="582.614" style="stroke:#800000; stroke-width:3.2; stroke-opacity:1"/>
<line clip-path="url(#clip032)" x1="1276.29" y1="572.614" x2="1286.29" y2="582.614" style="stroke:#800000; stroke-width:3.2; stroke-opacity:1"/>
<line clip-path="url(#clip032)" x1="1276.29" y1="572.614" x2="1286.29" y2="562.614" style="stroke:#800000; stroke-width:3.2; stroke-opacity:1"/>
<line clip-path="url(#clip032)" x1="1614.8" y1="687.379" x2="1604.8" y2="677.379" style="stroke:#800000; stroke-width:3.2; stroke-opacity:1"/>
<line clip-path="url(#clip032)" x1="1614.8" y1="687.379" x2="1604.8" y2="697.379" style="stroke:#800000; stroke-width:3.2; stroke-opacity:1"/>
<line clip-path="url(#clip032)" x1="1614.8" y1="687.379" x2="1624.8" y2="697.379" style="stroke:#800000; stroke-width:3.2; stroke-opacity:1"/>
<line clip-path="url(#clip032)" x1="1614.8" y1="687.379" x2="1624.8" y2="677.379" style="stroke:#800000; stroke-width:3.2; stroke-opacity:1"/>
<line clip-path="url(#clip032)" x1="1953.31" y1="788.691" x2="1943.31" y2="778.691" style="stroke:#800000; stroke-width:3.2; stroke-opacity:1"/>
<line clip-path="url(#clip032)" x1="1953.31" y1="788.691" x2="1943.31" y2="798.691" style="stroke:#800000; stroke-width:3.2; stroke-opacity:1"/>
<line clip-path="url(#clip032)" x1="1953.31" y1="788.691" x2="1963.31" y2="798.691" style="stroke:#800000; stroke-width:3.2; stroke-opacity:1"/>
<line clip-path="url(#clip032)" x1="1953.31" y1="788.691" x2="1963.31" y2="778.691" style="stroke:#800000; stroke-width:3.2; stroke-opacity:1"/>
<line clip-path="url(#clip032)" x1="2291.82" y1="1002.38" x2="2281.82" y2="992.382" style="stroke:#800000; stroke-width:3.2; stroke-opacity:1"/>
<line clip-path="url(#clip032)" x1="2291.82" y1="1002.38" x2="2281.82" y2="1012.38" style="stroke:#800000; stroke-width:3.2; stroke-opacity:1"/>
<line clip-path="url(#clip032)" x1="2291.82" y1="1002.38" x2="2301.82" y2="1012.38" style="stroke:#800000; stroke-width:3.2; stroke-opacity:1"/>
<line clip-path="url(#clip032)" x1="2291.82" y1="1002.38" x2="2301.82" y2="992.382" style="stroke:#800000; stroke-width:3.2; stroke-opacity:1"/>
<polyline clip-path="url(#clip032)" style="stroke:#000000; stroke-linecap:butt; stroke-linejoin:round; stroke-width:4; stroke-opacity:1; fill:none" stroke-dasharray="2, 4" points="
  -1953.1,833.21 4505.68,833.21 
  "/>
<path clip-path="url(#clip030)" d="
M271.593 1376.84 L1614.27 1376.84 L1614.27 1168.22 L271.593 1168.22  Z
  " fill="#000000" fill-rule="evenodd" fill-opacity="0"/>
<polyline clip-path="url(#clip030)" style="stroke:#000000; stroke-linecap:butt; stroke-linejoin:round; stroke-width:4; stroke-opacity:0; fill:none" points="
  271.593,1376.84 1614.27,1376.84 1614.27,1168.22 271.593,1168.22 271.593,1376.84 
  "/>
<polyline clip-path="url(#clip030)" style="stroke:#0000ff; stroke-linecap:butt; stroke-linejoin:round; stroke-width:4; stroke-opacity:1; fill:none" points="
  295.515,1220.38 439.043,1220.38 
  "/>
<circle clip-path="url(#clip030)" cx="367.279" cy="1220.38" r="23" fill="#0000ff" fill-rule="evenodd" fill-opacity="1" stroke="#000000" stroke-opacity="1" stroke-width="7.31429"/>
<g clip-path="url(#clip030)">
<text style="fill:#000000; fill-opacity:1; font-family:Times New Roman,TimesNewRoman,Times,Baskerville,Georgia,serif; font-size:53px; text-anchor:start;" transform="rotate(0, 462.965, 1237.88)" x="462.965" y="1237.88">Main Results</text>
</g>
<polyline clip-path="url(#clip030)" style="stroke:#800000; stroke-linecap:butt; stroke-linejoin:round; stroke-width:4; stroke-opacity:1; fill:none" stroke-dasharray="16, 10" points="
  295.515,1272.53 439.043,1272.53 
  "/>
<path clip-path="url(#clip030)" d="M367.279 1298.13 L345.109 1285.33 L345.109 1259.73 L367.279 1246.93 L389.449 1259.73 L389.449 1285.33 Z" fill="#800000" fill-rule="evenodd" fill-opacity="1" stroke="#000000" stroke-opacity="1" stroke-width="8.192"/>
<g clip-path="url(#clip030)">
<text style="fill:#000000; fill-opacity:1; font-family:Times New Roman,TimesNewRoman,Times,Baskerville,Georgia,serif; font-size:53px; text-anchor:start;" transform="rotate(0, 462.965, 1290.03)" x="462.965" y="1290.03">Level Analysis (Comparison of Cumulative Growth)</text>
</g>
<polyline clip-path="url(#clip030)" style="stroke:#800000; stroke-linecap:butt; stroke-linejoin:round; stroke-width:4; stroke-opacity:1; fill:none" stroke-dasharray="2, 4" points="
  295.515,1324.68 439.043,1324.68 
  "/>
<line clip-path="url(#clip030)" x1="367.279" y1="1324.68" x2="341.679" y2="1299.08" style="stroke:#800000; stroke-width:3.2; stroke-opacity:1"/>
<line clip-path="url(#clip030)" x1="367.279" y1="1324.68" x2="341.679" y2="1350.28" style="stroke:#800000; stroke-width:3.2; stroke-opacity:1"/>
<line clip-path="url(#clip030)" x1="367.279" y1="1324.68" x2="392.879" y2="1350.28" style="stroke:#800000; stroke-width:3.2; stroke-opacity:1"/>
<line clip-path="url(#clip030)" x1="367.279" y1="1324.68" x2="392.879" y2="1299.08" style="stroke:#800000; stroke-width:3.2; stroke-opacity:1"/>
<g clip-path="url(#clip030)">
<text style="fill:#000000; fill-opacity:1; font-family:Times New Roman,TimesNewRoman,Times,Baskerville,Georgia,serif; font-size:53px; text-anchor:start;" transform="rotate(0, 462.965, 1342.18)" x="462.965" y="1342.18">Level Analysis (Comparison of Raw Levels)</text>
</g>
</svg>
