<?xml version="1.0" encoding="utf-8"?>
<svg xmlns="http://www.w3.org/2000/svg" xmlns:xlink="http://www.w3.org/1999/xlink" width="600" height="400" viewBox="0 0 2400 1600">
<defs>
  <clipPath id="clip610">
    <rect x="0" y="0" width="2400" height="1600"/>
  </clipPath>
</defs>
<path clip-path="url(#clip610)" d="
M0 1600 L2400 1600 L2400 0 L0 0  Z
  " fill="#ffffff" fill-rule="evenodd" fill-opacity="1"/>
<defs>
  <clipPath id="clip611">
    <rect x="480" y="0" width="1681" height="1600"/>
  </clipPath>
</defs>
<path clip-path="url(#clip610)" d="
M210.746 1423.18 L2352.76 1423.18 L2352.76 47.2441 L210.746 47.2441  Z
  " fill="#ffffff" fill-rule="evenodd" fill-opacity="1"/>
<defs>
  <clipPath id="clip612">
    <rect x="210" y="47" width="2143" height="1377"/>
  </clipPath>
</defs>
<polyline clip-path="url(#clip610)" style="stroke:#000000; stroke-linecap:butt; stroke-linejoin:round; stroke-width:4; stroke-opacity:1; fill:none" points="
  210.746,1423.18 2352.76,1423.18 
  "/>
<polyline clip-path="url(#clip610)" style="stroke:#000000; stroke-linecap:butt; stroke-linejoin:round; stroke-width:4; stroke-opacity:1; fill:none" points="
  271.369,1423.18 271.369,1404.28 
  "/>
<polyline clip-path="url(#clip610)" style="stroke:#000000; stroke-linecap:butt; stroke-linejoin:round; stroke-width:4; stroke-opacity:1; fill:none" points="
  608.163,1423.18 608.163,1404.28 
  "/>
<polyline clip-path="url(#clip610)" style="stroke:#000000; stroke-linecap:butt; stroke-linejoin:round; stroke-width:4; stroke-opacity:1; fill:none" points="
  944.957,1423.18 944.957,1404.28 
  "/>
<polyline clip-path="url(#clip610)" style="stroke:#000000; stroke-linecap:butt; stroke-linejoin:round; stroke-width:4; stroke-opacity:1; fill:none" points="
  1281.75,1423.18 1281.75,1404.28 
  "/>
<polyline clip-path="url(#clip610)" style="stroke:#000000; stroke-linecap:butt; stroke-linejoin:round; stroke-width:4; stroke-opacity:1; fill:none" points="
  1618.54,1423.18 1618.54,1404.28 
  "/>
<polyline clip-path="url(#clip610)" style="stroke:#000000; stroke-linecap:butt; stroke-linejoin:round; stroke-width:4; stroke-opacity:1; fill:none" points="
  1955.34,1423.18 1955.34,1404.28 
  "/>
<polyline clip-path="url(#clip610)" style="stroke:#000000; stroke-linecap:butt; stroke-linejoin:round; stroke-width:4; stroke-opacity:1; fill:none" points="
  2292.13,1423.18 2292.13,1404.28 
  "/>
<path clip-path="url(#clip610)" d="M271.369 1452.37 Q267.758 1452.37 265.929 1455.94 Q264.124 1459.48 264.124 1466.61 Q264.124 1473.71 265.929 1477.28 Q267.758 1480.82 271.369 1480.82 Q275.003 1480.82 276.809 1477.28 Q278.637 1473.71 278.637 1466.61 Q278.637 1459.48 276.809 1455.94 Q275.003 1452.37 271.369 1452.37 M271.369 1448.67 Q277.179 1448.67 280.235 1453.27 Q283.313 1457.86 283.313 1466.61 Q283.313 1475.33 280.235 1479.94 Q277.179 1484.52 271.369 1484.52 Q265.559 1484.52 262.48 1479.94 Q259.424 1475.33 259.424 1466.61 Q259.424 1457.86 262.48 1453.27 Q265.559 1448.67 271.369 1448.67 Z" fill="#000000" fill-rule="evenodd" fill-opacity="1" /><path clip-path="url(#clip610)" d="M598.545 1479.92 L606.184 1479.92 L606.184 1453.55 L597.874 1455.22 L597.874 1450.96 L606.137 1449.29 L610.813 1449.29 L610.813 1479.92 L618.452 1479.92 L618.452 1483.85 L598.545 1483.85 L598.545 1479.92 Z" fill="#000000" fill-rule="evenodd" fill-opacity="1" /><path clip-path="url(#clip610)" d="M939.61 1479.92 L955.929 1479.92 L955.929 1483.85 L933.985 1483.85 L933.985 1479.92 Q936.647 1477.16 941.23 1472.53 Q945.837 1467.88 947.017 1466.54 Q949.262 1464.01 950.142 1462.28 Q951.045 1460.52 951.045 1458.83 Q951.045 1456.07 949.1 1454.34 Q947.179 1452.6 944.077 1452.6 Q941.878 1452.6 939.425 1453.37 Q936.994 1454.13 934.216 1455.68 L934.216 1450.96 Q937.04 1449.82 939.494 1449.25 Q941.948 1448.67 943.985 1448.67 Q949.355 1448.67 952.549 1451.35 Q955.744 1454.04 955.744 1458.53 Q955.744 1460.66 954.934 1462.58 Q954.147 1464.48 952.04 1467.07 Q951.462 1467.74 948.36 1470.96 Q945.258 1474.15 939.61 1479.92 Z" fill="#000000" fill-rule="evenodd" fill-opacity="1" /><path clip-path="url(#clip610)" d="M1286 1465.22 Q1289.36 1465.94 1291.23 1468.2 Q1293.13 1470.47 1293.13 1473.81 Q1293.13 1478.92 1289.61 1481.72 Q1286.09 1484.52 1279.61 1484.52 Q1277.43 1484.52 1275.12 1484.08 Q1272.83 1483.67 1270.37 1482.81 L1270.37 1478.3 Q1272.32 1479.43 1274.63 1480.01 Q1276.95 1480.59 1279.47 1480.59 Q1283.87 1480.59 1286.16 1478.85 Q1288.48 1477.12 1288.48 1473.81 Q1288.48 1470.75 1286.32 1469.04 Q1284.19 1467.3 1280.37 1467.3 L1276.35 1467.3 L1276.35 1463.46 L1280.56 1463.46 Q1284.01 1463.46 1285.84 1462.09 Q1287.67 1460.7 1287.67 1458.11 Q1287.67 1455.45 1285.77 1454.04 Q1283.89 1452.6 1280.37 1452.6 Q1278.45 1452.6 1276.25 1453.02 Q1274.05 1453.44 1271.42 1454.31 L1271.42 1450.15 Q1274.08 1449.41 1276.39 1449.04 Q1278.73 1448.67 1280.79 1448.67 Q1286.11 1448.67 1289.22 1451.1 Q1292.32 1453.5 1292.32 1457.63 Q1292.32 1460.5 1290.67 1462.49 Q1289.03 1464.45 1286 1465.22 Z" fill="#000000" fill-rule="evenodd" fill-opacity="1" /><path clip-path="url(#clip610)" d="M1621.55 1453.37 L1609.75 1471.81 L1621.55 1471.81 L1621.55 1453.37 M1620.33 1449.29 L1626.21 1449.29 L1626.21 1471.81 L1631.14 1471.81 L1631.14 1475.7 L1626.21 1475.7 L1626.21 1483.85 L1621.55 1483.85 L1621.55 1475.7 L1605.95 1475.7 L1605.95 1471.19 L1620.33 1449.29 Z" fill="#000000" fill-rule="evenodd" fill-opacity="1" /><path clip-path="url(#clip610)" d="M1945.62 1449.29 L1963.97 1449.29 L1963.97 1453.23 L1949.9 1453.23 L1949.9 1461.7 Q1950.92 1461.35 1951.94 1461.19 Q1952.95 1461 1953.97 1461 Q1959.76 1461 1963.14 1464.18 Q1966.52 1467.35 1966.52 1472.76 Q1966.52 1478.34 1963.05 1481.44 Q1959.58 1484.52 1953.26 1484.52 Q1951.08 1484.52 1948.81 1484.15 Q1946.57 1483.78 1944.16 1483.04 L1944.16 1478.34 Q1946.24 1479.48 1948.46 1480.03 Q1950.69 1480.59 1953.16 1480.59 Q1957.17 1480.59 1959.51 1478.48 Q1961.84 1476.38 1961.84 1472.76 Q1961.84 1469.15 1959.51 1467.05 Q1957.17 1464.94 1953.16 1464.94 Q1951.29 1464.94 1949.41 1465.36 Q1947.56 1465.77 1945.62 1466.65 L1945.62 1449.29 Z" fill="#000000" fill-rule="evenodd" fill-opacity="1" /><path clip-path="url(#clip610)" d="M2292.54 1464.71 Q2289.39 1464.71 2287.54 1466.86 Q2285.71 1469.01 2285.71 1472.76 Q2285.71 1476.49 2287.54 1478.67 Q2289.39 1480.82 2292.54 1480.82 Q2295.69 1480.82 2297.51 1478.67 Q2299.37 1476.49 2299.37 1472.76 Q2299.37 1469.01 2297.51 1466.86 Q2295.69 1464.71 2292.54 1464.71 M2301.82 1450.06 L2301.82 1454.31 Q2300.06 1453.48 2298.26 1453.04 Q2296.47 1452.6 2294.71 1452.6 Q2290.08 1452.6 2287.63 1455.73 Q2285.2 1458.85 2284.85 1465.17 Q2286.22 1463.16 2288.28 1462.09 Q2290.34 1461 2292.82 1461 Q2298.02 1461 2301.03 1464.18 Q2304.07 1467.32 2304.07 1472.76 Q2304.07 1478.09 2300.92 1481.31 Q2297.77 1484.52 2292.54 1484.52 Q2286.54 1484.52 2283.37 1479.94 Q2280.2 1475.33 2280.2 1466.61 Q2280.2 1458.41 2284.09 1453.55 Q2287.98 1448.67 2294.53 1448.67 Q2296.29 1448.67 2298.07 1449.01 Q2299.88 1449.36 2301.82 1450.06 Z" fill="#000000" fill-rule="evenodd" fill-opacity="1" /><path clip-path="url(#clip610)" d="M1007.6 1520.52 L1014.5 1520.52 L1027.68 1540.07 L1040.76 1520.52 L1047.67 1520.52 L1030.86 1545.41 L1030.86 1568.04 L1024.4 1568.04 L1024.4 1545.41 L1007.6 1520.52 Z" fill="#000000" fill-rule="evenodd" fill-opacity="1" /><path clip-path="url(#clip610)" d="M1075.52 1548.76 L1075.52 1551.62 L1048.59 1551.62 Q1048.97 1557.67 1052.22 1560.85 Q1055.5 1564 1061.32 1564 Q1064.7 1564 1067.85 1563.17 Q1071.03 1562.35 1074.15 1560.69 L1074.15 1566.23 Q1071 1567.57 1067.69 1568.27 Q1064.38 1568.97 1060.97 1568.97 Q1052.44 1568.97 1047.45 1564 Q1042.48 1559.04 1042.48 1550.57 Q1042.48 1541.82 1047.19 1536.69 Q1051.93 1531.54 1059.95 1531.54 Q1067.15 1531.54 1071.32 1536.18 Q1075.52 1540.8 1075.52 1548.76 M1069.66 1547.04 Q1069.6 1542.23 1066.96 1539.37 Q1064.35 1536.5 1060.02 1536.5 Q1055.12 1536.5 1052.16 1539.27 Q1049.23 1542.04 1048.78 1547.07 L1069.66 1547.04 Z" fill="#000000" fill-rule="evenodd" fill-opacity="1" /><path clip-path="url(#clip610)" d="M1101.33 1550.12 Q1094.23 1550.12 1091.5 1551.75 Q1088.76 1553.37 1088.76 1557.29 Q1088.76 1560.4 1090.8 1562.25 Q1092.86 1564.07 1096.4 1564.07 Q1101.27 1564.07 1104.2 1560.63 Q1107.16 1557.16 1107.16 1551.43 L1107.16 1550.12 L1101.33 1550.12 M1113.01 1547.71 L1113.01 1568.04 L1107.16 1568.04 L1107.16 1562.63 Q1105.15 1565.88 1102.16 1567.44 Q1099.17 1568.97 1094.84 1568.97 Q1089.36 1568.97 1086.12 1565.91 Q1082.9 1562.82 1082.9 1557.67 Q1082.9 1551.65 1086.91 1548.6 Q1090.95 1545.54 1098.94 1545.54 L1107.16 1545.54 L1107.16 1544.97 Q1107.16 1540.93 1104.48 1538.73 Q1101.84 1536.5 1097.03 1536.5 Q1093.98 1536.5 1091.08 1537.23 Q1088.19 1537.97 1085.51 1539.43 L1085.51 1534.02 Q1088.73 1532.78 1091.75 1532.17 Q1094.77 1531.54 1097.64 1531.54 Q1105.37 1531.54 1109.19 1535.55 Q1113.01 1539.56 1113.01 1547.71 Z" fill="#000000" fill-rule="evenodd" fill-opacity="1" /><path clip-path="url(#clip610)" d="M1145.73 1537.87 Q1144.75 1537.3 1143.57 1537.04 Q1142.42 1536.76 1141.02 1536.76 Q1136.06 1536.76 1133.38 1540 Q1130.74 1543.22 1130.74 1549.27 L1130.74 1568.04 L1124.85 1568.04 L1124.85 1532.4 L1130.74 1532.4 L1130.74 1537.93 Q1132.59 1534.69 1135.55 1533.13 Q1138.51 1531.54 1142.74 1531.54 Q1143.34 1531.54 1144.08 1531.63 Q1144.81 1531.7 1145.7 1531.85 L1145.73 1537.87 Z" fill="#000000" fill-rule="evenodd" fill-opacity="1" /><path clip-path="url(#clip610)" d="M1174.6 1533.45 L1174.6 1538.98 Q1172.12 1537.71 1169.44 1537.07 Q1166.77 1536.44 1163.91 1536.44 Q1159.55 1536.44 1157.35 1537.77 Q1155.18 1539.11 1155.18 1541.79 Q1155.18 1543.82 1156.74 1545 Q1158.3 1546.15 1163.01 1547.2 L1165.02 1547.64 Q1171.26 1548.98 1173.87 1551.43 Q1176.51 1553.85 1176.51 1558.21 Q1176.51 1563.17 1172.56 1566.07 Q1168.65 1568.97 1161.77 1568.97 Q1158.91 1568.97 1155.79 1568.39 Q1152.7 1567.85 1149.26 1566.74 L1149.26 1560.69 Q1152.51 1562.38 1155.66 1563.24 Q1158.81 1564.07 1161.9 1564.07 Q1166.04 1564.07 1168.27 1562.66 Q1170.49 1561.23 1170.49 1558.65 Q1170.49 1556.27 1168.87 1554.99 Q1167.28 1553.72 1161.84 1552.54 L1159.8 1552.07 Q1154.36 1550.92 1151.94 1548.56 Q1149.52 1546.18 1149.52 1542.04 Q1149.52 1537.01 1153.08 1534.27 Q1156.65 1531.54 1163.21 1531.54 Q1166.45 1531.54 1169.32 1532.01 Q1172.18 1532.49 1174.6 1533.45 Z" fill="#000000" fill-rule="evenodd" fill-opacity="1" /><path clip-path="url(#clip610)" d="M1206.81 1520.52 L1234.12 1520.52 L1234.12 1525.93 L1213.24 1525.93 L1213.24 1539.94 L1232.08 1539.94 L1232.08 1545.35 L1213.24 1545.35 L1213.24 1568.04 L1206.81 1568.04 L1206.81 1520.52 Z" fill="#000000" fill-rule="evenodd" fill-opacity="1" /><path clip-path="url(#clip610)" d="M1259.96 1537.87 Q1258.98 1537.3 1257.8 1537.04 Q1256.65 1536.76 1255.25 1536.76 Q1250.29 1536.76 1247.61 1540 Q1244.97 1543.22 1244.97 1549.27 L1244.97 1568.04 L1239.08 1568.04 L1239.08 1532.4 L1244.97 1532.4 L1244.97 1537.93 Q1246.82 1534.69 1249.78 1533.13 Q1252.74 1531.54 1256.97 1531.54 Q1257.58 1531.54 1258.31 1531.63 Q1259.04 1531.7 1259.93 1531.85 L1259.96 1537.87 Z" fill="#000000" fill-rule="evenodd" fill-opacity="1" /><path clip-path="url(#clip610)" d="M1278.49 1536.5 Q1273.78 1536.5 1271.04 1540.19 Q1268.3 1543.85 1268.3 1550.25 Q1268.3 1556.65 1271.01 1560.34 Q1273.75 1564 1278.49 1564 Q1283.17 1564 1285.9 1560.31 Q1288.64 1556.62 1288.64 1550.25 Q1288.64 1543.92 1285.9 1540.23 Q1283.17 1536.5 1278.49 1536.5 M1278.49 1531.54 Q1286.13 1531.54 1290.49 1536.5 Q1294.85 1541.47 1294.85 1550.25 Q1294.85 1559 1290.49 1564 Q1286.13 1568.97 1278.49 1568.97 Q1270.82 1568.97 1266.46 1564 Q1262.13 1559 1262.13 1550.25 Q1262.13 1541.47 1266.46 1536.5 Q1270.82 1531.54 1278.49 1531.54 Z" fill="#000000" fill-rule="evenodd" fill-opacity="1" /><path clip-path="url(#clip610)" d="M1332.31 1539.24 Q1334.51 1535.29 1337.56 1533.41 Q1340.62 1531.54 1344.76 1531.54 Q1350.33 1531.54 1353.35 1535.45 Q1356.37 1539.33 1356.37 1546.53 L1356.37 1568.04 L1350.48 1568.04 L1350.48 1546.72 Q1350.48 1541.59 1348.67 1539.11 Q1346.86 1536.63 1343.13 1536.63 Q1338.58 1536.63 1335.94 1539.65 Q1333.3 1542.68 1333.3 1547.9 L1333.3 1568.04 L1327.41 1568.04 L1327.41 1546.72 Q1327.41 1541.56 1325.59 1539.11 Q1323.78 1536.63 1319.99 1536.63 Q1315.51 1536.63 1312.86 1539.68 Q1310.22 1542.71 1310.22 1547.9 L1310.22 1568.04 L1304.33 1568.04 L1304.33 1532.4 L1310.22 1532.4 L1310.22 1537.93 Q1312.23 1534.66 1315.03 1533.1 Q1317.83 1531.54 1321.68 1531.54 Q1325.56 1531.54 1328.27 1533.51 Q1331.01 1535.48 1332.31 1539.24 Z" fill="#000000" fill-rule="evenodd" fill-opacity="1" /><path clip-path="url(#clip610)" d="M1424.61 1524.18 L1424.61 1530.96 Q1421.37 1527.94 1417.67 1526.44 Q1414.01 1524.95 1409.88 1524.95 Q1401.73 1524.95 1397.4 1529.95 Q1393.07 1534.91 1393.07 1544.33 Q1393.07 1553.72 1397.4 1558.72 Q1401.73 1563.68 1409.88 1563.68 Q1414.01 1563.68 1417.67 1562.19 Q1421.37 1560.69 1424.61 1557.67 L1424.61 1564.38 Q1421.24 1566.68 1417.45 1567.82 Q1413.7 1568.97 1409.49 1568.97 Q1398.7 1568.97 1392.5 1562.38 Q1386.29 1555.76 1386.29 1544.33 Q1386.29 1532.87 1392.5 1526.28 Q1398.7 1519.66 1409.49 1519.66 Q1413.76 1519.66 1417.52 1520.81 Q1421.3 1521.92 1424.61 1524.18 Z" fill="#000000" fill-rule="evenodd" fill-opacity="1" /><path clip-path="url(#clip610)" d="M1454.95 1537.87 Q1453.96 1537.3 1452.78 1537.04 Q1451.64 1536.76 1450.24 1536.76 Q1445.27 1536.76 1442.6 1540 Q1439.95 1543.22 1439.95 1549.27 L1439.95 1568.04 L1434.07 1568.04 L1434.07 1532.4 L1439.95 1532.4 L1439.95 1537.93 Q1441.8 1534.69 1444.76 1533.13 Q1447.72 1531.54 1451.95 1531.54 Q1452.56 1531.54 1453.29 1531.63 Q1454.02 1531.7 1454.91 1531.85 L1454.95 1537.87 Z" fill="#000000" fill-rule="evenodd" fill-opacity="1" /><path clip-path="url(#clip610)" d="M1461.09 1532.4 L1466.95 1532.4 L1466.95 1568.04 L1461.09 1568.04 L1461.09 1532.4 M1461.09 1518.52 L1466.95 1518.52 L1466.95 1525.93 L1461.09 1525.93 L1461.09 1518.52 Z" fill="#000000" fill-rule="evenodd" fill-opacity="1" /><path clip-path="url(#clip610)" d="M1501.92 1533.45 L1501.92 1538.98 Q1499.44 1537.71 1496.77 1537.07 Q1494.09 1536.44 1491.23 1536.44 Q1486.87 1536.44 1484.67 1537.77 Q1482.51 1539.11 1482.51 1541.79 Q1482.51 1543.82 1484.07 1545 Q1485.63 1546.15 1490.34 1547.2 L1492.34 1547.64 Q1498.58 1548.98 1501.19 1551.43 Q1503.83 1553.85 1503.83 1558.21 Q1503.83 1563.17 1499.89 1566.07 Q1495.97 1568.97 1489.1 1568.97 Q1486.23 1568.97 1483.11 1568.39 Q1480.03 1567.85 1476.59 1566.74 L1476.59 1560.69 Q1479.84 1562.38 1482.99 1563.24 Q1486.14 1564.07 1489.23 1564.07 Q1493.36 1564.07 1495.59 1562.66 Q1497.82 1561.23 1497.82 1558.65 Q1497.82 1556.27 1496.2 1554.99 Q1494.6 1553.72 1489.16 1552.54 L1487.12 1552.07 Q1481.68 1550.92 1479.26 1548.56 Q1476.84 1546.18 1476.84 1542.04 Q1476.84 1537.01 1480.41 1534.27 Q1483.97 1531.54 1490.53 1531.54 Q1493.78 1531.54 1496.64 1532.01 Q1499.51 1532.49 1501.92 1533.45 Z" fill="#000000" fill-rule="evenodd" fill-opacity="1" /><path clip-path="url(#clip610)" d="M1513.16 1532.4 L1519.02 1532.4 L1519.02 1568.04 L1513.16 1568.04 L1513.16 1532.4 M1513.16 1518.52 L1519.02 1518.52 L1519.02 1525.93 L1513.16 1525.93 L1513.16 1518.52 Z" fill="#000000" fill-rule="evenodd" fill-opacity="1" /><path clip-path="url(#clip610)" d="M1554 1533.45 L1554 1538.98 Q1551.51 1537.71 1548.84 1537.07 Q1546.17 1536.44 1543.3 1536.44 Q1538.94 1536.44 1536.75 1537.77 Q1534.58 1539.11 1534.58 1541.79 Q1534.58 1543.82 1536.14 1545 Q1537.7 1546.15 1542.41 1547.2 L1544.42 1547.64 Q1550.65 1548.98 1553.26 1551.43 Q1555.91 1553.85 1555.91 1558.21 Q1555.91 1563.17 1551.96 1566.07 Q1548.04 1568.97 1541.17 1568.97 Q1538.3 1568.97 1535.19 1568.39 Q1532.1 1567.85 1528.66 1566.74 L1528.66 1560.69 Q1531.91 1562.38 1535.06 1563.24 Q1538.21 1564.07 1541.3 1564.07 Q1545.43 1564.07 1547.66 1562.66 Q1549.89 1561.23 1549.89 1558.65 Q1549.89 1556.27 1548.27 1554.99 Q1546.68 1553.72 1541.23 1552.54 L1539.2 1552.07 Q1533.75 1550.92 1531.33 1548.56 Q1528.92 1546.18 1528.92 1542.04 Q1528.92 1537.01 1532.48 1534.27 Q1536.04 1531.54 1542.6 1531.54 Q1545.85 1531.54 1548.71 1532.01 Q1551.58 1532.49 1554 1533.45 Z" fill="#000000" fill-rule="evenodd" fill-opacity="1" /><polyline clip-path="url(#clip610)" style="stroke:#000000; stroke-linecap:butt; stroke-linejoin:round; stroke-width:4; stroke-opacity:1; fill:none" points="
  210.746,1423.18 210.746,47.2441 
  "/>
<polyline clip-path="url(#clip610)" style="stroke:#000000; stroke-linecap:butt; stroke-linejoin:round; stroke-width:4; stroke-opacity:1; fill:none" points="
  210.746,1423.18 229.644,1423.18 
  "/>
<polyline clip-path="url(#clip610)" style="stroke:#000000; stroke-linecap:butt; stroke-linejoin:round; stroke-width:4; stroke-opacity:1; fill:none" points="
  210.746,1173.01 229.644,1173.01 
  "/>
<polyline clip-path="url(#clip610)" style="stroke:#000000; stroke-linecap:butt; stroke-linejoin:round; stroke-width:4; stroke-opacity:1; fill:none" points="
  210.746,922.84 229.644,922.84 
  "/>
<polyline clip-path="url(#clip610)" style="stroke:#000000; stroke-linecap:butt; stroke-linejoin:round; stroke-width:4; stroke-opacity:1; fill:none" points="
  210.746,672.669 229.644,672.669 
  "/>
<polyline clip-path="url(#clip610)" style="stroke:#000000; stroke-linecap:butt; stroke-linejoin:round; stroke-width:4; stroke-opacity:1; fill:none" points="
  210.746,422.499 229.644,422.499 
  "/>
<polyline clip-path="url(#clip610)" style="stroke:#000000; stroke-linecap:butt; stroke-linejoin:round; stroke-width:4; stroke-opacity:1; fill:none" points="
  210.746,172.329 229.644,172.329 
  "/>
<path clip-path="url(#clip610)" d="M114.631 1423.63 L144.306 1423.63 L144.306 1427.57 L114.631 1427.57 L114.631 1423.63 Z" fill="#000000" fill-rule="evenodd" fill-opacity="1" /><path clip-path="url(#clip610)" d="M158.427 1436.52 L174.746 1436.52 L174.746 1440.46 L152.802 1440.46 L152.802 1436.52 Q155.464 1433.77 160.047 1429.14 Q164.653 1424.49 165.834 1423.15 Q168.079 1420.62 168.959 1418.89 Q169.862 1417.13 169.862 1415.44 Q169.862 1412.68 167.917 1410.95 Q165.996 1409.21 162.894 1409.21 Q160.695 1409.21 158.241 1409.97 Q155.811 1410.74 153.033 1412.29 L153.033 1407.57 Q155.857 1406.43 158.311 1405.85 Q160.765 1405.27 162.802 1405.27 Q168.172 1405.27 171.366 1407.96 Q174.561 1410.65 174.561 1415.14 Q174.561 1417.27 173.751 1419.19 Q172.964 1421.08 170.857 1423.68 Q170.278 1424.35 167.177 1427.57 Q164.075 1430.76 158.427 1436.52 Z" fill="#000000" fill-rule="evenodd" fill-opacity="1" /><path clip-path="url(#clip610)" d="M114.26 1173.46 L143.936 1173.46 L143.936 1177.4 L114.26 1177.4 L114.26 1173.46 Z" fill="#000000" fill-rule="evenodd" fill-opacity="1" /><path clip-path="url(#clip610)" d="M154.839 1186.35 L162.477 1186.35 L162.477 1159.99 L154.167 1161.66 L154.167 1157.4 L162.431 1155.73 L167.107 1155.73 L167.107 1186.35 L174.746 1186.35 L174.746 1190.29 L154.839 1190.29 L154.839 1186.35 Z" fill="#000000" fill-rule="evenodd" fill-opacity="1" /><path clip-path="url(#clip610)" d="M162.802 908.638 Q159.19 908.638 157.362 912.203 Q155.556 915.745 155.556 922.874 Q155.556 929.981 157.362 933.546 Q159.19 937.087 162.802 937.087 Q166.436 937.087 168.241 933.546 Q170.07 929.981 170.07 922.874 Q170.07 915.745 168.241 912.203 Q166.436 908.638 162.802 908.638 M162.802 904.935 Q168.612 904.935 171.667 909.541 Q174.746 914.124 174.746 922.874 Q174.746 931.601 171.667 936.208 Q168.612 940.791 162.802 940.791 Q156.991 940.791 153.913 936.208 Q150.857 931.601 150.857 922.874 Q150.857 914.124 153.913 909.541 Q156.991 904.935 162.802 904.935 Z" fill="#000000" fill-rule="evenodd" fill-opacity="1" /><path clip-path="url(#clip610)" d="M154.839 686.014 L162.477 686.014 L162.477 659.649 L154.167 661.315 L154.167 657.056 L162.431 655.389 L167.107 655.389 L167.107 686.014 L174.746 686.014 L174.746 689.949 L154.839 689.949 L154.839 686.014 Z" fill="#000000" fill-rule="evenodd" fill-opacity="1" /><path clip-path="url(#clip610)" d="M158.427 435.844 L174.746 435.844 L174.746 439.779 L152.802 439.779 L152.802 435.844 Q155.464 433.09 160.047 428.46 Q164.653 423.807 165.834 422.465 Q168.079 419.941 168.959 418.205 Q169.862 416.446 169.862 414.756 Q169.862 412.002 167.917 410.266 Q165.996 408.529 162.894 408.529 Q160.695 408.529 158.241 409.293 Q155.811 410.057 153.033 411.608 L153.033 406.886 Q155.857 405.752 158.311 405.173 Q160.765 404.594 162.802 404.594 Q168.172 404.594 171.366 407.279 Q174.561 409.965 174.561 414.455 Q174.561 416.585 173.751 418.506 Q172.964 420.404 170.857 422.997 Q170.278 423.668 167.177 426.886 Q164.075 430.08 158.427 435.844 Z" fill="#000000" fill-rule="evenodd" fill-opacity="1" /><path clip-path="url(#clip610)" d="M167.616 170.975 Q170.973 171.693 172.848 173.961 Q174.746 176.23 174.746 179.563 Q174.746 184.679 171.227 187.48 Q167.709 190.28 161.227 190.28 Q159.052 190.28 156.737 189.841 Q154.445 189.424 151.991 188.568 L151.991 184.054 Q153.936 185.188 156.251 185.767 Q158.565 186.345 161.089 186.345 Q165.487 186.345 167.778 184.609 Q170.093 182.873 170.093 179.563 Q170.093 176.507 167.94 174.794 Q165.811 173.058 161.991 173.058 L157.964 173.058 L157.964 169.216 L162.177 169.216 Q165.626 169.216 167.454 167.85 Q169.283 166.461 169.283 163.869 Q169.283 161.207 167.385 159.795 Q165.51 158.359 161.991 158.359 Q160.07 158.359 157.871 158.776 Q155.672 159.193 153.033 160.072 L153.033 155.906 Q155.695 155.165 158.01 154.795 Q160.348 154.424 162.408 154.424 Q167.732 154.424 170.834 156.855 Q173.936 159.262 173.936 163.382 Q173.936 166.253 172.292 168.244 Q170.649 170.211 167.616 170.975 Z" fill="#000000" fill-rule="evenodd" fill-opacity="1" /><path clip-path="url(#clip610)" d="M16.4842 1097.55 L16.4842 1091.12 L64.0042 1091.12 L64.0042 1097.55 L16.4842 1097.55 Z" fill="#000000" fill-rule="evenodd" fill-opacity="1" /><path clip-path="url(#clip610)" d="M42.4881 1048.95 L64.0042 1048.95 L64.0042 1054.8 L42.679 1054.8 Q37.6183 1054.8 35.1038 1056.78 Q32.5894 1058.75 32.5894 1062.7 Q32.5894 1067.44 35.6131 1070.18 Q38.6368 1072.91 43.8567 1072.91 L64.0042 1072.91 L64.0042 1078.8 L28.3562 1078.8 L28.3562 1072.91 L33.8944 1072.91 Q30.6797 1070.81 29.0883 1067.98 Q27.4968 1065.11 27.4968 1061.39 Q27.4968 1055.25 31.3163 1052.1 Q35.1038 1048.95 42.4881 1048.95 Z" fill="#000000" fill-rule="evenodd" fill-opacity="1" /><path clip-path="url(#clip610)" d="M29.7248 1011.61 L35.1993 1011.61 Q33.8307 1014.09 33.1623 1016.61 Q32.4621 1019.09 32.4621 1021.64 Q32.4621 1027.33 36.0905 1030.49 Q39.6872 1033.64 46.212 1033.64 Q52.7369 1033.64 56.3653 1030.49 Q59.9619 1027.33 59.9619 1021.64 Q59.9619 1019.09 59.2935 1016.61 Q58.5933 1014.09 57.2247 1011.61 L62.6355 1011.61 Q63.7814 1014.06 64.3543 1016.7 Q64.9272 1019.31 64.9272 1022.27 Q64.9272 1030.33 59.8664 1035.07 Q54.8057 1039.81 46.212 1039.81 Q37.491 1039.81 32.4939 1035.04 Q27.4968 1030.23 27.4968 1021.89 Q27.4968 1019.19 28.0697 1016.61 Q28.6108 1014.03 29.7248 1011.61 Z" fill="#000000" fill-rule="evenodd" fill-opacity="1" /><path clip-path="url(#clip610)" d="M33.8307 980.769 Q33.2578 981.756 33.0032 982.933 Q32.7167 984.079 32.7167 985.48 Q32.7167 990.445 35.9632 993.119 Q39.1779 995.76 45.2253 995.76 L64.0042 995.76 L64.0042 1001.65 L28.3562 1001.65 L28.3562 995.76 L33.8944 995.76 Q30.6479 993.914 29.0883 990.954 Q27.4968 987.994 27.4968 983.761 Q27.4968 983.156 27.5923 982.424 Q27.656 981.692 27.8151 980.801 L33.8307 980.769 Z" fill="#000000" fill-rule="evenodd" fill-opacity="1" /><path clip-path="url(#clip610)" d="M44.7161 945.567 L47.5806 945.567 L47.5806 972.494 Q53.6281 972.112 56.8109 968.865 Q59.9619 965.587 59.9619 959.762 Q59.9619 956.388 59.1344 953.237 Q58.3069 950.055 56.6518 946.935 L62.1899 946.935 Q63.5267 950.086 64.227 953.397 Q64.9272 956.707 64.9272 960.112 Q64.9272 968.642 59.9619 973.64 Q54.9967 978.605 46.5303 978.605 Q37.7774 978.605 32.6531 973.894 Q27.4968 969.152 27.4968 961.131 Q27.4968 953.938 32.1438 949.768 Q36.7589 945.567 44.7161 945.567 M42.9973 951.423 Q38.1912 951.487 35.3266 954.129 Q32.4621 956.739 32.4621 961.067 Q32.4621 965.969 35.2312 968.929 Q38.0002 971.857 43.0292 972.303 L42.9973 951.423 Z" fill="#000000" fill-rule="evenodd" fill-opacity="1" /><path clip-path="url(#clip610)" d="M46.0847 919.754 Q46.0847 926.852 47.7079 929.589 Q49.3312 932.326 53.2461 932.326 Q56.3653 932.326 58.2114 930.289 Q60.0256 928.22 60.0256 924.687 Q60.0256 919.817 56.5881 916.889 Q53.1188 913.929 47.3897 913.929 L46.0847 913.929 L46.0847 919.754 M43.6657 908.073 L64.0042 908.073 L64.0042 913.929 L58.5933 913.929 Q61.8398 915.934 63.3994 918.926 Q64.9272 921.918 64.9272 926.247 Q64.9272 931.721 61.8716 934.968 Q58.7843 938.183 53.6281 938.183 Q47.6125 938.183 44.5569 934.172 Q41.5014 930.13 41.5014 922.141 L41.5014 913.929 L40.9285 913.929 Q36.8862 913.929 34.6901 916.603 Q32.4621 919.245 32.4621 924.051 Q32.4621 927.106 33.1941 930.003 Q33.9262 932.899 35.3903 935.573 L29.9795 935.573 Q28.7381 932.358 28.1334 929.334 Q27.4968 926.31 27.4968 923.446 Q27.4968 915.712 31.5072 911.892 Q35.5176 908.073 43.6657 908.073 Z" fill="#000000" fill-rule="evenodd" fill-opacity="1" /><path clip-path="url(#clip610)" d="M29.4065 873.284 L34.9447 873.284 Q33.6716 875.767 33.035 878.44 Q32.3984 881.114 32.3984 883.979 Q32.3984 888.339 33.7352 890.535 Q35.072 892.7 37.7456 892.7 Q39.7826 892.7 40.9603 891.14 Q42.1061 889.58 43.1565 884.87 L43.6021 882.865 Q44.9389 876.626 47.3897 874.016 Q49.8086 871.374 54.1691 871.374 Q59.1344 871.374 62.0308 875.321 Q64.9272 879.236 64.9272 886.111 Q64.9272 888.976 64.3543 892.095 Q63.8132 895.182 62.6992 898.62 L56.6518 898.62 Q58.3387 895.373 59.198 892.222 Q60.0256 889.071 60.0256 885.984 Q60.0256 881.846 58.6251 879.618 Q57.1929 877.39 54.6147 877.39 Q52.2276 877.39 50.9545 879.013 Q49.6813 880.605 48.5037 886.047 L48.0262 888.084 Q46.8804 893.527 44.5251 895.946 Q42.138 898.365 38.0002 898.365 Q32.9713 898.365 30.2341 894.8 Q27.4968 891.235 27.4968 884.679 Q27.4968 881.432 27.9743 878.568 Q28.4517 875.703 29.4065 873.284 Z" fill="#000000" fill-rule="evenodd" fill-opacity="1" /><path clip-path="url(#clip610)" d="M44.7161 831.557 L47.5806 831.557 L47.5806 858.484 Q53.6281 858.102 56.8109 854.855 Q59.9619 851.577 59.9619 845.752 Q59.9619 842.379 59.1344 839.228 Q58.3069 836.045 56.6518 832.926 L62.1899 832.926 Q63.5267 836.077 64.227 839.387 Q64.9272 842.697 64.9272 846.103 Q64.9272 854.633 59.9619 859.63 Q54.9967 864.595 46.5303 864.595 Q37.7774 864.595 32.6531 859.884 Q27.4968 855.142 27.4968 847.121 Q27.4968 839.928 32.1438 835.758 Q36.7589 831.557 44.7161 831.557 M42.9973 837.413 Q38.1912 837.477 35.3266 840.119 Q32.4621 842.729 32.4621 847.057 Q32.4621 851.959 35.2312 854.919 Q38.0002 857.847 43.0292 858.293 L42.9973 837.413 Z" fill="#000000" fill-rule="evenodd" fill-opacity="1" /><path clip-path="url(#clip610)" d="M28.3562 801.224 L28.3562 795.368 L64.0042 795.368 L64.0042 801.224 L28.3562 801.224 M14.479 801.224 L14.479 795.368 L21.895 795.368 L21.895 801.224 L14.479 801.224 Z" fill="#000000" fill-rule="evenodd" fill-opacity="1" /><path clip-path="url(#clip610)" d="M42.4881 753.482 L64.0042 753.482 L64.0042 759.338 L42.679 759.338 Q37.6183 759.338 35.1038 761.311 Q32.5894 763.285 32.5894 767.231 Q32.5894 771.974 35.6131 774.711 Q38.6368 777.448 43.8567 777.448 L64.0042 777.448 L64.0042 783.337 L28.3562 783.337 L28.3562 777.448 L33.8944 777.448 Q30.6797 775.348 29.0883 772.515 Q27.4968 769.65 27.4968 765.927 Q27.4968 759.784 31.3163 756.633 Q35.1038 753.482 42.4881 753.482 Z" fill="#000000" fill-rule="evenodd" fill-opacity="1" /><path clip-path="url(#clip610)" d="M20.8447 701.537 Q20.8447 708.54 26.0645 712.677 Q31.2844 716.783 40.2919 716.783 Q49.2675 716.783 54.4874 712.677 Q59.7073 708.54 59.7073 701.537 Q59.7073 694.535 54.4874 690.461 Q49.2675 686.355 40.2919 686.355 Q31.2844 686.355 26.0645 690.461 Q20.8447 694.535 20.8447 701.537 M15.6248 701.537 Q15.6248 691.543 22.3406 685.559 Q29.0246 679.576 40.2919 679.576 Q51.5274 679.576 58.2432 685.559 Q64.9272 691.543 64.9272 701.537 Q64.9272 711.563 58.2432 717.579 Q51.5592 723.563 40.2919 723.563 Q29.0246 723.563 22.3406 717.579 Q15.6248 711.563 15.6248 701.537 Z" fill="#000000" fill-rule="evenodd" fill-opacity="1" /><path clip-path="url(#clip610)" d="M49.9359 670.377 L28.3562 670.377 L28.3562 664.521 L49.7131 664.521 Q54.7739 664.521 57.3202 662.547 Q59.8346 660.574 59.8346 656.627 Q59.8346 651.885 56.8109 649.148 Q53.7872 646.379 48.5673 646.379 L28.3562 646.379 L28.3562 640.522 L64.0042 640.522 L64.0042 646.379 L58.5296 646.379 Q61.7762 648.511 63.3676 651.344 Q64.9272 654.145 64.9272 657.869 Q64.9272 664.012 61.1078 667.194 Q57.2883 670.377 49.9359 670.377 M27.4968 655.641 L27.4968 655.641 Z" fill="#000000" fill-rule="evenodd" fill-opacity="1" /><path clip-path="url(#clip610)" d="M18.2347 622.666 L28.3562 622.666 L28.3562 610.603 L32.9077 610.603 L32.9077 622.666 L52.2594 622.666 Q56.6199 622.666 57.8613 621.489 Q59.1026 620.279 59.1026 616.619 L59.1026 610.603 L64.0042 610.603 L64.0042 616.619 Q64.0042 623.398 61.4897 625.976 Q58.9434 628.555 52.2594 628.555 L32.9077 628.555 L32.9077 632.851 L28.3562 632.851 L28.3562 628.555 L18.2347 628.555 L18.2347 622.666 Z" fill="#000000" fill-rule="evenodd" fill-opacity="1" /><path clip-path="url(#clip610)" d="M58.657 597.235 L77.5631 597.235 L77.5631 603.124 L28.3562 603.124 L28.3562 597.235 L33.7671 597.235 Q30.5842 595.389 29.0564 592.588 Q27.4968 589.756 27.4968 585.841 Q27.4968 579.348 32.6531 575.305 Q37.8093 571.231 46.212 571.231 Q54.6147 571.231 59.771 575.305 Q64.9272 579.348 64.9272 585.841 Q64.9272 589.756 63.3994 592.588 Q61.8398 595.389 58.657 597.235 M46.212 577.311 Q39.7508 577.311 36.0905 579.984 Q32.3984 582.626 32.3984 587.273 Q32.3984 591.92 36.0905 594.594 Q39.7508 597.235 46.212 597.235 Q52.6732 597.235 56.3653 594.594 Q60.0256 591.92 60.0256 587.273 Q60.0256 582.626 56.3653 579.984 Q52.6732 577.311 46.212 577.311 Z" fill="#000000" fill-rule="evenodd" fill-opacity="1" /><path clip-path="url(#clip610)" d="M49.9359 562.128 L28.3562 562.128 L28.3562 556.272 L49.7131 556.272 Q54.7739 556.272 57.3202 554.299 Q59.8346 552.325 59.8346 548.378 Q59.8346 543.636 56.8109 540.899 Q53.7872 538.13 48.5673 538.13 L28.3562 538.13 L28.3562 532.273 L64.0042 532.273 L64.0042 538.13 L58.5296 538.13 Q61.7762 540.262 63.3676 543.095 Q64.9272 545.896 64.9272 549.62 Q64.9272 555.763 61.1078 558.946 Q57.2883 562.128 49.9359 562.128 M27.4968 547.392 L27.4968 547.392 Z" fill="#000000" fill-rule="evenodd" fill-opacity="1" /><path clip-path="url(#clip610)" d="M18.2347 514.417 L28.3562 514.417 L28.3562 502.354 L32.9077 502.354 L32.9077 514.417 L52.2594 514.417 Q56.6199 514.417 57.8613 513.24 Q59.1026 512.03 59.1026 508.37 L59.1026 502.354 L64.0042 502.354 L64.0042 508.37 Q64.0042 515.149 61.4897 517.728 Q58.9434 520.306 52.2594 520.306 L32.9077 520.306 L32.9077 524.603 L28.3562 524.603 L28.3562 520.306 L18.2347 520.306 L18.2347 514.417 Z" fill="#000000" fill-rule="evenodd" fill-opacity="1" /><path clip-path="url(#clip610)" d="M14.5426 459.863 Q21.8632 464.128 29.0246 466.197 Q36.186 468.266 43.5384 468.266 Q50.8908 468.266 58.1159 466.197 Q65.3091 464.097 72.5979 459.863 L72.5979 464.956 Q65.1182 469.73 57.8931 472.117 Q50.668 474.473 43.5384 474.473 Q36.4406 474.473 29.2474 472.117 Q22.0542 469.762 14.5426 464.956 L14.5426 459.863 Z" fill="#000000" fill-rule="evenodd" fill-opacity="1" /><path clip-path="url(#clip610)" d="M43.0928 407.251 Q43.0928 410.02 45.4481 411.611 Q47.8034 413.171 52.0048 413.171 Q56.1425 413.171 58.5296 411.611 Q60.885 410.02 60.885 407.251 Q60.885 404.545 58.5296 402.986 Q56.1425 401.394 52.0048 401.394 Q47.8353 401.394 45.48 402.986 Q43.0928 404.545 43.0928 407.251 M39.0506 407.251 Q39.0506 402.222 42.5517 399.262 Q46.0529 396.302 52.0048 396.302 Q57.9567 396.302 61.4579 399.294 Q64.9272 402.254 64.9272 407.251 Q64.9272 412.343 61.4579 415.303 Q57.9567 418.263 52.0048 418.263 Q46.021 418.263 42.5517 415.303 Q39.0506 412.311 39.0506 407.251 M19.667 440.098 Q19.667 442.835 22.0542 444.426 Q24.4095 445.986 28.5472 445.986 Q32.7485 445.986 35.1038 444.426 Q37.4592 442.867 37.4592 440.098 Q37.4592 437.329 35.1038 435.769 Q32.7485 434.178 28.5472 434.178 Q24.4413 434.178 22.0542 435.769 Q19.667 437.361 19.667 440.098 M15.6248 411.357 L15.6248 406.264 L64.9272 435.992 L64.9272 441.084 L15.6248 411.357 M15.6248 440.098 Q15.6248 435.069 19.1259 432.077 Q22.5952 429.085 28.5472 429.085 Q34.5628 429.085 38.0321 432.077 Q41.5014 435.037 41.5014 440.098 Q41.5014 445.159 38.0321 448.119 Q34.5309 451.047 28.5472 451.047 Q22.6271 451.047 19.1259 448.087 Q15.6248 445.127 15.6248 440.098 Z" fill="#000000" fill-rule="evenodd" fill-opacity="1" /><path clip-path="url(#clip610)" d="M14.5426 387.485 L14.5426 382.393 Q22.0542 377.618 29.2474 375.263 Q36.4406 372.876 43.5384 372.876 Q50.668 372.876 57.8931 375.263 Q65.1182 377.618 72.5979 382.393 L72.5979 387.485 Q65.3091 383.252 58.1159 381.183 Q50.8908 379.083 43.5384 379.083 Q36.186 379.083 29.0246 381.183 Q21.8632 383.252 14.5426 387.485 Z" fill="#000000" fill-rule="evenodd" fill-opacity="1" /><polyline clip-path="url(#clip612)" style="stroke:#0000ff; stroke-linecap:butt; stroke-linejoin:round; stroke-width:10; stroke-opacity:1; fill:none" points="
  271.369,922.84 608.163,661.449 944.957,282.647 1281.75,225.714 1618.54,537.768 1955.34,741.083 2292.13,1048.74 
  "/>
<circle clip-path="url(#clip612)" cx="271.369" cy="922.84" r="9" fill="#0000ff" fill-rule="evenodd" fill-opacity="1" stroke="#000000" stroke-opacity="1" stroke-width="3.2"/>
<circle clip-path="url(#clip612)" cx="608.163" cy="661.449" r="9" fill="#0000ff" fill-rule="evenodd" fill-opacity="1" stroke="#000000" stroke-opacity="1" stroke-width="3.2"/>
<circle clip-path="url(#clip612)" cx="944.957" cy="282.647" r="9" fill="#0000ff" fill-rule="evenodd" fill-opacity="1" stroke="#000000" stroke-opacity="1" stroke-width="3.2"/>
<circle clip-path="url(#clip612)" cx="1281.75" cy="225.714" r="9" fill="#0000ff" fill-rule="evenodd" fill-opacity="1" stroke="#000000" stroke-opacity="1" stroke-width="3.2"/>
<circle clip-path="url(#clip612)" cx="1618.54" cy="537.768" r="9" fill="#0000ff" fill-rule="evenodd" fill-opacity="1" stroke="#000000" stroke-opacity="1" stroke-width="3.2"/>
<circle clip-path="url(#clip612)" cx="1955.34" cy="741.083" r="9" fill="#0000ff" fill-rule="evenodd" fill-opacity="1" stroke="#000000" stroke-opacity="1" stroke-width="3.2"/>
<circle clip-path="url(#clip612)" cx="2292.13" cy="1048.74" r="9" fill="#0000ff" fill-rule="evenodd" fill-opacity="1" stroke="#000000" stroke-opacity="1" stroke-width="3.2"/>
<polyline clip-path="url(#clip612)" style="stroke:#808080; stroke-linecap:butt; stroke-linejoin:round; stroke-width:7.6; stroke-opacity:1; fill:none" stroke-dasharray="30, 19" points="
  271.369,922.84 608.163,733.315 944.957,334.579 1281.75,297.497 1618.54,639.38 1955.34,922.016 2292.13,1256.89 
  "/>
<path clip-path="url(#clip612)" d="M271.369 932.84 L269.839 926.54 L264.299 929.91 L267.669 924.37 L261.369 922.84 L267.669 921.31 L264.299 915.77 L269.839 919.14 L271.369 912.84 L272.899 919.14 L278.439 915.77 L275.069 921.31 L281.369 922.84 L275.069 924.37 L278.439 929.91 L272.899 926.54 L271.369 932.84 Z" fill="#808080" fill-rule="evenodd" fill-opacity="1" stroke="#000000" stroke-opacity="1" stroke-width="3.2"/>
<path clip-path="url(#clip612)" d="M608.163 743.315 L606.633 737.015 L601.093 740.385 L604.463 734.845 L598.163 733.315 L604.463 731.785 L601.093 726.245 L606.633 729.615 L608.163 723.315 L609.693 729.615 L615.233 726.245 L611.863 731.785 L618.163 733.315 L611.863 734.845 L615.233 740.385 L609.693 737.015 L608.163 743.315 Z" fill="#808080" fill-rule="evenodd" fill-opacity="1" stroke="#000000" stroke-opacity="1" stroke-width="3.2"/>
<path clip-path="url(#clip612)" d="M944.957 344.579 L943.427 338.279 L937.887 341.649 L941.257 336.109 L934.957 334.579 L941.257 333.049 L937.887 327.509 L943.427 330.879 L944.957 324.579 L946.487 330.879 L952.027 327.509 L948.657 333.049 L954.957 334.579 L948.657 336.109 L952.027 341.649 L946.487 338.279 L944.957 344.579 Z" fill="#808080" fill-rule="evenodd" fill-opacity="1" stroke="#000000" stroke-opacity="1" stroke-width="3.2"/>
<path clip-path="url(#clip612)" d="M1281.75 307.497 L1280.22 301.197 L1274.68 304.567 L1278.05 299.027 L1271.75 297.497 L1278.05 295.967 L1274.68 290.427 L1280.22 293.797 L1281.75 287.497 L1283.28 293.797 L1288.82 290.427 L1285.45 295.967 L1291.75 297.497 L1285.45 299.027 L1288.82 304.567 L1283.28 301.197 L1281.75 307.497 Z" fill="#808080" fill-rule="evenodd" fill-opacity="1" stroke="#000000" stroke-opacity="1" stroke-width="3.2"/>
<path clip-path="url(#clip612)" d="M1618.54 649.38 L1617.01 643.08 L1611.47 646.45 L1614.84 640.91 L1608.54 639.38 L1614.84 637.85 L1611.47 632.31 L1617.01 635.68 L1618.54 629.38 L1620.07 635.68 L1625.61 632.31 L1622.24 637.85 L1628.54 639.38 L1622.24 640.91 L1625.61 646.45 L1620.07 643.08 L1618.54 649.38 Z" fill="#808080" fill-rule="evenodd" fill-opacity="1" stroke="#000000" stroke-opacity="1" stroke-width="3.2"/>
<path clip-path="url(#clip612)" d="M1955.34 932.016 L1953.81 925.716 L1948.27 929.086 L1951.64 923.546 L1945.34 922.016 L1951.64 920.486 L1948.27 914.946 L1953.81 918.316 L1955.34 912.016 L1956.87 918.316 L1962.41 914.946 L1959.04 920.486 L1965.34 922.016 L1959.04 923.546 L1962.41 929.086 L1956.87 925.716 L1955.34 932.016 Z" fill="#808080" fill-rule="evenodd" fill-opacity="1" stroke="#000000" stroke-opacity="1" stroke-width="3.2"/>
<path clip-path="url(#clip612)" d="M2292.13 1266.89 L2290.6 1260.59 L2285.06 1263.96 L2288.43 1258.42 L2282.13 1256.89 L2288.43 1255.36 L2285.06 1249.82 L2290.6 1253.19 L2292.13 1246.89 L2293.66 1253.19 L2299.2 1249.82 L2295.83 1255.36 L2302.13 1256.89 L2295.83 1258.42 L2299.2 1263.96 L2293.66 1260.59 L2292.13 1266.89 Z" fill="#808080" fill-rule="evenodd" fill-opacity="1" stroke="#000000" stroke-opacity="1" stroke-width="3.2"/>
<polyline clip-path="url(#clip612)" style="stroke:#ff0000; stroke-linecap:butt; stroke-linejoin:round; stroke-width:7.6; stroke-opacity:1; fill:none" stroke-dasharray="30, 15, 4, 15" points="
  271.369,922.84 608.163,673.834 944.957,366.334 1281.75,351.231 1618.54,386.693 1955.34,410.293 2292.13,774.136 
  "/>
<path clip-path="url(#clip612)" d="M271.369 932.84 L262.709 927.84 L262.709 917.84 L271.369 912.84 L280.029 917.84 L280.029 927.84 Z" fill="#ff0000" fill-rule="evenodd" fill-opacity="1" stroke="#000000" stroke-opacity="1" stroke-width="3.2"/>
<path clip-path="url(#clip612)" d="M608.163 683.834 L599.503 678.834 L599.503 668.834 L608.163 663.834 L616.823 668.834 L616.823 678.834 Z" fill="#ff0000" fill-rule="evenodd" fill-opacity="1" stroke="#000000" stroke-opacity="1" stroke-width="3.2"/>
<path clip-path="url(#clip612)" d="M944.957 376.334 L936.297 371.334 L936.297 361.334 L944.957 356.334 L953.617 361.334 L953.617 371.334 Z" fill="#ff0000" fill-rule="evenodd" fill-opacity="1" stroke="#000000" stroke-opacity="1" stroke-width="3.2"/>
<path clip-path="url(#clip612)" d="M1281.75 361.231 L1273.09 356.231 L1273.09 346.231 L1281.75 341.231 L1290.41 346.231 L1290.41 356.231 Z" fill="#ff0000" fill-rule="evenodd" fill-opacity="1" stroke="#000000" stroke-opacity="1" stroke-width="3.2"/>
<path clip-path="url(#clip612)" d="M1618.54 396.693 L1609.88 391.693 L1609.88 381.693 L1618.54 376.693 L1627.2 381.693 L1627.2 391.693 Z" fill="#ff0000" fill-rule="evenodd" fill-opacity="1" stroke="#000000" stroke-opacity="1" stroke-width="3.2"/>
<path clip-path="url(#clip612)" d="M1955.34 420.293 L1946.68 415.293 L1946.68 405.293 L1955.34 400.293 L1964 405.293 L1964 415.293 Z" fill="#ff0000" fill-rule="evenodd" fill-opacity="1" stroke="#000000" stroke-opacity="1" stroke-width="3.2"/>
<path clip-path="url(#clip612)" d="M2292.13 784.136 L2283.47 779.136 L2283.47 769.136 L2292.13 764.136 L2300.79 769.136 L2300.79 779.136 Z" fill="#ff0000" fill-rule="evenodd" fill-opacity="1" stroke="#000000" stroke-opacity="1" stroke-width="3.2"/>
<polyline clip-path="url(#clip612)" style="stroke:#87ceeb; stroke-linecap:butt; stroke-linejoin:round; stroke-width:7.6; stroke-opacity:1; fill:none" stroke-dasharray="4, 8" points="
  271.369,922.84 608.163,751.359 944.957,351.52 1281.75,203.299 1618.54,187.261 1955.34,185.373 2292.13,470.367 
  "/>
<path clip-path="url(#clip612)" d="M261.369 912.84 L261.369 932.84 L281.369 932.84 L281.369 912.84 L261.369 912.84 Z" fill="#87ceeb" fill-rule="evenodd" fill-opacity="1" stroke="#000000" stroke-opacity="1" stroke-width="3.2"/>
<path clip-path="url(#clip612)" d="M598.163 741.359 L598.163 761.359 L618.163 761.359 L618.163 741.359 L598.163 741.359 Z" fill="#87ceeb" fill-rule="evenodd" fill-opacity="1" stroke="#000000" stroke-opacity="1" stroke-width="3.2"/>
<path clip-path="url(#clip612)" d="M934.957 341.52 L934.957 361.52 L954.957 361.52 L954.957 341.52 L934.957 341.52 Z" fill="#87ceeb" fill-rule="evenodd" fill-opacity="1" stroke="#000000" stroke-opacity="1" stroke-width="3.2"/>
<path clip-path="url(#clip612)" d="M1271.75 193.299 L1271.75 213.299 L1291.75 213.299 L1291.75 193.299 L1271.75 193.299 Z" fill="#87ceeb" fill-rule="evenodd" fill-opacity="1" stroke="#000000" stroke-opacity="1" stroke-width="3.2"/>
<path clip-path="url(#clip612)" d="M1608.54 177.261 L1608.54 197.261 L1628.54 197.261 L1628.54 177.261 L1608.54 177.261 Z" fill="#87ceeb" fill-rule="evenodd" fill-opacity="1" stroke="#000000" stroke-opacity="1" stroke-width="3.2"/>
<path clip-path="url(#clip612)" d="M1945.34 175.373 L1945.34 195.373 L1965.34 195.373 L1965.34 175.373 L1945.34 175.373 Z" fill="#87ceeb" fill-rule="evenodd" fill-opacity="1" stroke="#000000" stroke-opacity="1" stroke-width="3.2"/>
<path clip-path="url(#clip612)" d="M2282.13 460.367 L2282.13 480.367 L2302.13 480.367 L2302.13 460.367 L2282.13 460.367 Z" fill="#87ceeb" fill-rule="evenodd" fill-opacity="1" stroke="#000000" stroke-opacity="1" stroke-width="3.2"/>
<polyline clip-path="url(#clip612)" style="stroke:#008000; stroke-linecap:butt; stroke-linejoin:round; stroke-width:7.6; stroke-opacity:1; fill:none" stroke-dasharray="4, 8" points="
  271.369,922.84 608.163,573.959 944.957,289.523 1281.75,229.361 1618.54,627.726 1955.34,806.404 2292.13,1114.44 
  "/>
<line clip-path="url(#clip612)" x1="271.369" y1="922.84" x2="261.369" y2="912.84" style="stroke:#008000; stroke-width:3.2; stroke-opacity:1"/>
<line clip-path="url(#clip612)" x1="271.369" y1="922.84" x2="261.369" y2="932.84" style="stroke:#008000; stroke-width:3.2; stroke-opacity:1"/>
<line clip-path="url(#clip612)" x1="271.369" y1="922.84" x2="281.369" y2="932.84" style="stroke:#008000; stroke-width:3.2; stroke-opacity:1"/>
<line clip-path="url(#clip612)" x1="271.369" y1="922.84" x2="281.369" y2="912.84" style="stroke:#008000; stroke-width:3.2; stroke-opacity:1"/>
<line clip-path="url(#clip612)" x1="608.163" y1="573.959" x2="598.163" y2="563.959" style="stroke:#008000; stroke-width:3.2; stroke-opacity:1"/>
<line clip-path="url(#clip612)" x1="608.163" y1="573.959" x2="598.163" y2="583.959" style="stroke:#008000; stroke-width:3.2; stroke-opacity:1"/>
<line clip-path="url(#clip612)" x1="608.163" y1="573.959" x2="618.163" y2="583.959" style="stroke:#008000; stroke-width:3.2; stroke-opacity:1"/>
<line clip-path="url(#clip612)" x1="608.163" y1="573.959" x2="618.163" y2="563.959" style="stroke:#008000; stroke-width:3.2; stroke-opacity:1"/>
<line clip-path="url(#clip612)" x1="944.957" y1="289.523" x2="934.957" y2="279.523" style="stroke:#008000; stroke-width:3.2; stroke-opacity:1"/>
<line clip-path="url(#clip612)" x1="944.957" y1="289.523" x2="934.957" y2="299.523" style="stroke:#008000; stroke-width:3.2; stroke-opacity:1"/>
<line clip-path="url(#clip612)" x1="944.957" y1="289.523" x2="954.957" y2="299.523" style="stroke:#008000; stroke-width:3.2; stroke-opacity:1"/>
<line clip-path="url(#clip612)" x1="944.957" y1="289.523" x2="954.957" y2="279.523" style="stroke:#008000; stroke-width:3.2; stroke-opacity:1"/>
<line clip-path="url(#clip612)" x1="1281.75" y1="229.361" x2="1271.75" y2="219.361" style="stroke:#008000; stroke-width:3.2; stroke-opacity:1"/>
<line clip-path="url(#clip612)" x1="1281.75" y1="229.361" x2="1271.75" y2="239.361" style="stroke:#008000; stroke-width:3.2; stroke-opacity:1"/>
<line clip-path="url(#clip612)" x1="1281.75" y1="229.361" x2="1291.75" y2="239.361" style="stroke:#008000; stroke-width:3.2; stroke-opacity:1"/>
<line clip-path="url(#clip612)" x1="1281.75" y1="229.361" x2="1291.75" y2="219.361" style="stroke:#008000; stroke-width:3.2; stroke-opacity:1"/>
<line clip-path="url(#clip612)" x1="1618.54" y1="627.726" x2="1608.54" y2="617.726" style="stroke:#008000; stroke-width:3.2; stroke-opacity:1"/>
<line clip-path="url(#clip612)" x1="1618.54" y1="627.726" x2="1608.54" y2="637.726" style="stroke:#008000; stroke-width:3.2; stroke-opacity:1"/>
<line clip-path="url(#clip612)" x1="1618.54" y1="627.726" x2="1628.54" y2="637.726" style="stroke:#008000; stroke-width:3.2; stroke-opacity:1"/>
<line clip-path="url(#clip612)" x1="1618.54" y1="627.726" x2="1628.54" y2="617.726" style="stroke:#008000; stroke-width:3.2; stroke-opacity:1"/>
<line clip-path="url(#clip612)" x1="1955.34" y1="806.404" x2="1945.34" y2="796.404" style="stroke:#008000; stroke-width:3.2; stroke-opacity:1"/>
<line clip-path="url(#clip612)" x1="1955.34" y1="806.404" x2="1945.34" y2="816.404" style="stroke:#008000; stroke-width:3.2; stroke-opacity:1"/>
<line clip-path="url(#clip612)" x1="1955.34" y1="806.404" x2="1965.34" y2="816.404" style="stroke:#008000; stroke-width:3.2; stroke-opacity:1"/>
<line clip-path="url(#clip612)" x1="1955.34" y1="806.404" x2="1965.34" y2="796.404" style="stroke:#008000; stroke-width:3.2; stroke-opacity:1"/>
<line clip-path="url(#clip612)" x1="2292.13" y1="1114.44" x2="2282.13" y2="1104.44" style="stroke:#008000; stroke-width:3.2; stroke-opacity:1"/>
<line clip-path="url(#clip612)" x1="2292.13" y1="1114.44" x2="2282.13" y2="1124.44" style="stroke:#008000; stroke-width:3.2; stroke-opacity:1"/>
<line clip-path="url(#clip612)" x1="2292.13" y1="1114.44" x2="2302.13" y2="1124.44" style="stroke:#008000; stroke-width:3.2; stroke-opacity:1"/>
<line clip-path="url(#clip612)" x1="2292.13" y1="1114.44" x2="2302.13" y2="1104.44" style="stroke:#008000; stroke-width:3.2; stroke-opacity:1"/>
<polyline clip-path="url(#clip612)" style="stroke:#ffa500; stroke-linecap:butt; stroke-linejoin:round; stroke-width:7.6; stroke-opacity:1; fill:none" stroke-dasharray="4, 8" points="
  271.369,922.84 608.163,563.262 944.957,262.003 1281.75,224.832 1618.54,594.385 1955.34,719.964 2292.13,1039.78 
  "/>
<path clip-path="url(#clip612)" d="M271.369 912.84 L261.369 932.84 L281.369 932.84 L271.369 912.84 Z" fill="#ffa500" fill-rule="evenodd" fill-opacity="1" stroke="#000000" stroke-opacity="1" stroke-width="3.2"/>
<path clip-path="url(#clip612)" d="M608.163 553.262 L598.163 573.262 L618.163 573.262 L608.163 553.262 Z" fill="#ffa500" fill-rule="evenodd" fill-opacity="1" stroke="#000000" stroke-opacity="1" stroke-width="3.2"/>
<path clip-path="url(#clip612)" d="M944.957 252.003 L934.957 272.003 L954.957 272.003 L944.957 252.003 Z" fill="#ffa500" fill-rule="evenodd" fill-opacity="1" stroke="#000000" stroke-opacity="1" stroke-width="3.2"/>
<path clip-path="url(#clip612)" d="M1281.75 214.832 L1271.75 234.832 L1291.75 234.832 L1281.75 214.832 Z" fill="#ffa500" fill-rule="evenodd" fill-opacity="1" stroke="#000000" stroke-opacity="1" stroke-width="3.2"/>
<path clip-path="url(#clip612)" d="M1618.54 584.385 L1608.54 604.385 L1628.54 604.385 L1618.54 584.385 Z" fill="#ffa500" fill-rule="evenodd" fill-opacity="1" stroke="#000000" stroke-opacity="1" stroke-width="3.2"/>
<path clip-path="url(#clip612)" d="M1955.34 709.964 L1945.34 729.964 L1965.34 729.964 L1955.34 709.964 Z" fill="#ffa500" fill-rule="evenodd" fill-opacity="1" stroke="#000000" stroke-opacity="1" stroke-width="3.2"/>
<path clip-path="url(#clip612)" d="M2292.13 1029.78 L2282.13 1049.78 L2302.13 1049.78 L2292.13 1029.78 Z" fill="#ffa500" fill-rule="evenodd" fill-opacity="1" stroke="#000000" stroke-opacity="1" stroke-width="3.2"/>
<polyline clip-path="url(#clip612)" style="stroke:#deb887; stroke-linecap:butt; stroke-linejoin:round; stroke-width:7.6; stroke-opacity:1; fill:none" stroke-dasharray="4, 8" points="
  271.369,922.84 608.163,548.172 944.957,233.342 1281.75,115.559 1618.54,394.135 1955.34,478.069 2292.13,783.683 
  "/>
<path clip-path="url(#clip612)" d="M271.369 932.84 L268.539 925.67 L261.369 922.84 L268.539 920.01 L271.369 912.84 L274.199 920.01 L281.369 922.84 L274.199 925.67 L271.369 932.84 Z" fill="#deb887" fill-rule="evenodd" fill-opacity="1" stroke="#000000" stroke-opacity="1" stroke-width="3.2"/>
<path clip-path="url(#clip612)" d="M608.163 558.172 L605.333 551.002 L598.163 548.172 L605.333 545.342 L608.163 538.172 L610.993 545.342 L618.163 548.172 L610.993 551.002 L608.163 558.172 Z" fill="#deb887" fill-rule="evenodd" fill-opacity="1" stroke="#000000" stroke-opacity="1" stroke-width="3.2"/>
<path clip-path="url(#clip612)" d="M944.957 243.342 L942.127 236.172 L934.957 233.342 L942.127 230.512 L944.957 223.342 L947.787 230.512 L954.957 233.342 L947.787 236.172 L944.957 243.342 Z" fill="#deb887" fill-rule="evenodd" fill-opacity="1" stroke="#000000" stroke-opacity="1" stroke-width="3.2"/>
<path clip-path="url(#clip612)" d="M1281.75 125.559 L1278.92 118.389 L1271.75 115.559 L1278.92 112.729 L1281.75 105.559 L1284.58 112.729 L1291.75 115.559 L1284.58 118.389 L1281.75 125.559 Z" fill="#deb887" fill-rule="evenodd" fill-opacity="1" stroke="#000000" stroke-opacity="1" stroke-width="3.2"/>
<path clip-path="url(#clip612)" d="M1618.54 404.135 L1615.71 396.965 L1608.54 394.135 L1615.71 391.305 L1618.54 384.135 L1621.37 391.305 L1628.54 394.135 L1621.37 396.965 L1618.54 404.135 Z" fill="#deb887" fill-rule="evenodd" fill-opacity="1" stroke="#000000" stroke-opacity="1" stroke-width="3.2"/>
<path clip-path="url(#clip612)" d="M1955.34 488.069 L1952.51 480.899 L1945.34 478.069 L1952.51 475.239 L1955.34 468.069 L1958.17 475.239 L1965.34 478.069 L1958.17 480.899 L1955.34 488.069 Z" fill="#deb887" fill-rule="evenodd" fill-opacity="1" stroke="#000000" stroke-opacity="1" stroke-width="3.2"/>
<path clip-path="url(#clip612)" d="M2292.13 793.683 L2289.3 786.513 L2282.13 783.683 L2289.3 780.853 L2292.13 773.683 L2294.96 780.853 L2302.13 783.683 L2294.96 786.513 L2292.13 793.683 Z" fill="#deb887" fill-rule="evenodd" fill-opacity="1" stroke="#000000" stroke-opacity="1" stroke-width="3.2"/>
<polyline clip-path="url(#clip612)" style="stroke:#000000; stroke-linecap:butt; stroke-linejoin:round; stroke-width:4; stroke-opacity:1; fill:none" stroke-dasharray="2, 4" points="
  -1931.26,922.84 4494.77,922.84 
  "/>
<path clip-path="url(#clip610)" d="
M234.546 1282.56 L1014.54 1282.56 L1014.54 965.039 L234.546 965.039  Z
  " fill="#ffffff" fill-rule="evenodd" fill-opacity="1"/>
<polyline clip-path="url(#clip610)" style="stroke:#000000; stroke-linecap:butt; stroke-linejoin:round; stroke-width:4; stroke-opacity:0; fill:none" points="
  234.546,1282.56 1014.54,1282.56 1014.54,965.039 234.546,965.039 234.546,1282.56 
  "/>
<polyline clip-path="url(#clip610)" style="stroke:#808080; stroke-linecap:butt; stroke-linejoin:round; stroke-width:3.5; stroke-opacity:1; fill:none" stroke-dasharray="14, 9" points="
  258.346,1010.4 401.147,1010.4 
  "/>
<path clip-path="url(#clip610)" d="M329.746 1032.8 L326.319 1018.69 L313.91 1026.24 L321.458 1013.83 L307.346 1010.4 L321.458 1006.97 L313.91 994.562 L326.319 1002.11 L329.746 987.999 L333.174 1002.11 L345.583 994.562 L338.034 1006.97 L352.146 1010.4 L338.034 1013.83 L345.583 1026.24 L333.174 1018.69 L329.746 1032.8 Z" fill="#808080" fill-rule="evenodd" fill-opacity="1" stroke="#000000" stroke-opacity="1" stroke-width="7.168"/>
<path clip-path="url(#clip610)" d="M424.947 995.279 L430.456 995.279 L443.865 1020.58 L443.865 995.279 L447.835 995.279 L447.835 1025.52 L442.325 1025.52 L428.917 1000.22 L428.917 1025.52 L424.947 1025.52 L424.947 995.279 Z" fill="#000000" fill-rule="evenodd" fill-opacity="1" /><path clip-path="url(#clip610)" d="M464.605 1005.45 Q461.608 1005.45 459.866 1007.8 Q458.124 1010.13 458.124 1014.2 Q458.124 1018.27 459.845 1020.62 Q461.587 1022.95 464.605 1022.95 Q467.583 1022.95 469.325 1020.6 Q471.066 1018.25 471.066 1014.2 Q471.066 1010.17 469.325 1007.82 Q467.583 1005.45 464.605 1005.45 M464.605 1002.29 Q469.466 1002.29 472.241 1005.45 Q475.016 1008.61 475.016 1014.2 Q475.016 1019.77 472.241 1022.95 Q469.466 1026.11 464.605 1026.11 Q459.724 1026.11 456.949 1022.95 Q454.194 1019.77 454.194 1014.2 Q454.194 1008.61 456.949 1005.45 Q459.724 1002.29 464.605 1002.29 Z" fill="#000000" fill-rule="evenodd" fill-opacity="1" /><path clip-path="url(#clip610)" d="M500.051 1011.83 L500.051 1025.52 L496.324 1025.52 L496.324 1011.95 Q496.324 1008.73 495.068 1007.13 Q493.812 1005.53 491.301 1005.53 Q488.283 1005.53 486.541 1007.45 Q484.799 1009.38 484.799 1012.7 L484.799 1025.52 L481.052 1025.52 L481.052 1002.83 L484.799 1002.83 L484.799 1006.36 Q486.136 1004.31 487.939 1003.3 Q489.761 1002.29 492.131 1002.29 Q496.04 1002.29 498.046 1004.72 Q500.051 1007.13 500.051 1011.83 Z" fill="#000000" fill-rule="evenodd" fill-opacity="1" /><path clip-path="url(#clip610)" d="M505.6 1012.5 L516.518 1012.5 L516.518 1015.82 L505.6 1015.82 L505.6 1012.5 Z" fill="#000000" fill-rule="evenodd" fill-opacity="1" /><path clip-path="url(#clip610)" d="M520.872 995.279 L544.631 995.279 L544.631 998.398 L525.511 1022.08 L545.097 1022.08 L545.097 1025.52 L520.406 1025.52 L520.406 1022.4 L539.527 998.722 L520.872 998.722 L520.872 995.279 Z" fill="#000000" fill-rule="evenodd" fill-opacity="1" /><path clip-path="url(#clip610)" d="M570.273 1013.24 L570.273 1015.07 L553.138 1015.07 Q553.381 1018.92 555.447 1020.94 Q557.533 1022.95 561.24 1022.95 Q563.387 1022.95 565.392 1022.42 Q567.417 1021.89 569.402 1020.84 L569.402 1024.36 Q567.397 1025.22 565.291 1025.66 Q563.184 1026.11 561.017 1026.11 Q555.589 1026.11 552.409 1022.95 Q549.249 1019.79 549.249 1014.4 Q549.249 1008.83 552.247 1005.57 Q555.265 1002.29 560.369 1002.29 Q564.946 1002.29 567.6 1005.24 Q570.273 1008.18 570.273 1013.24 M566.546 1012.15 Q566.506 1009.09 564.825 1007.27 Q563.164 1005.45 560.409 1005.45 Q557.29 1005.45 555.406 1007.21 Q553.543 1008.97 553.259 1012.17 L566.546 1012.15 Z" fill="#000000" fill-rule="evenodd" fill-opacity="1" /><path clip-path="url(#clip610)" d="M589.535 1006.32 Q588.907 1005.95 588.158 1005.79 Q587.429 1005.61 586.538 1005.61 Q583.378 1005.61 581.676 1007.67 Q579.995 1009.72 579.995 1013.57 L579.995 1025.52 L576.248 1025.52 L576.248 1002.83 L579.995 1002.83 L579.995 1006.36 Q581.17 1004.29 583.054 1003.3 Q584.937 1002.29 587.631 1002.29 Q588.016 1002.29 588.482 1002.35 Q588.948 1002.39 589.515 1002.49 L589.535 1006.32 Z" fill="#000000" fill-rule="evenodd" fill-opacity="1" /><path clip-path="url(#clip610)" d="M601.323 1005.45 Q598.326 1005.45 596.584 1007.8 Q594.842 1010.13 594.842 1014.2 Q594.842 1018.27 596.563 1020.62 Q598.305 1022.95 601.323 1022.95 Q604.301 1022.95 606.043 1020.6 Q607.785 1018.25 607.785 1014.2 Q607.785 1010.17 606.043 1007.82 Q604.301 1005.45 601.323 1005.45 M601.323 1002.29 Q606.184 1002.29 608.959 1005.45 Q611.734 1008.61 611.734 1014.2 Q611.734 1019.77 608.959 1022.95 Q606.184 1026.11 601.323 1026.11 Q596.442 1026.11 593.667 1022.95 Q590.912 1019.77 590.912 1014.2 Q590.912 1008.61 593.667 1005.45 Q596.442 1002.29 601.323 1002.29 Z" fill="#000000" fill-rule="evenodd" fill-opacity="1" /><path clip-path="url(#clip610)" d="M631.259 995.279 L648.638 995.279 L648.638 998.722 L635.351 998.722 L635.351 1007.63 L647.342 1007.63 L647.342 1011.08 L635.351 1011.08 L635.351 1025.52 L631.259 1025.52 L631.259 995.279 Z" fill="#000000" fill-rule="evenodd" fill-opacity="1" /><path clip-path="url(#clip610)" d="M652.304 1016.57 L652.304 1002.83 L656.031 1002.83 L656.031 1016.42 Q656.031 1019.65 657.287 1021.27 Q658.542 1022.87 661.054 1022.87 Q664.072 1022.87 665.814 1020.94 Q667.576 1019.02 667.576 1015.7 L667.576 1002.83 L671.303 1002.83 L671.303 1025.52 L667.576 1025.52 L667.576 1022.04 Q666.219 1024.1 664.416 1025.11 Q662.634 1026.11 660.264 1026.11 Q656.355 1026.11 654.329 1023.68 Q652.304 1021.25 652.304 1016.57 M661.682 1002.29 L661.682 1002.29 Z" fill="#000000" fill-rule="evenodd" fill-opacity="1" /><path clip-path="url(#clip610)" d="M697.836 1011.83 L697.836 1025.52 L694.109 1025.52 L694.109 1011.95 Q694.109 1008.73 692.853 1007.13 Q691.598 1005.53 689.086 1005.53 Q686.068 1005.53 684.326 1007.45 Q682.584 1009.38 682.584 1012.7 L682.584 1025.52 L678.837 1025.52 L678.837 1002.83 L682.584 1002.83 L682.584 1006.36 Q683.921 1004.31 685.724 1003.3 Q687.547 1002.29 689.917 1002.29 Q693.826 1002.29 695.831 1004.72 Q697.836 1007.13 697.836 1011.83 Z" fill="#000000" fill-rule="evenodd" fill-opacity="1" /><path clip-path="url(#clip610)" d="M720.197 1006.28 L720.197 994.003 L723.924 994.003 L723.924 1025.52 L720.197 1025.52 L720.197 1022.12 Q719.022 1024.14 717.22 1025.13 Q715.437 1026.11 712.926 1026.11 Q708.814 1026.11 706.221 1022.83 Q703.649 1019.54 703.649 1014.2 Q703.649 1008.85 706.221 1005.57 Q708.814 1002.29 712.926 1002.29 Q715.437 1002.29 717.22 1003.28 Q719.022 1004.25 720.197 1006.28 M707.498 1014.2 Q707.498 1018.31 709.179 1020.66 Q710.88 1022.99 713.837 1022.99 Q716.794 1022.99 718.496 1020.66 Q720.197 1018.31 720.197 1014.2 Q720.197 1010.09 718.496 1007.76 Q716.794 1005.41 713.837 1005.41 Q710.88 1005.41 709.179 1007.76 Q707.498 1010.09 707.498 1014.2 Z" fill="#000000" fill-rule="evenodd" fill-opacity="1" /><path clip-path="url(#clip610)" d="M746.062 1003.5 L746.062 1007.03 Q744.482 1006.22 742.781 1005.81 Q741.08 1005.41 739.257 1005.41 Q736.482 1005.41 735.084 1006.26 Q733.707 1007.11 733.707 1008.81 Q733.707 1010.11 734.699 1010.85 Q735.692 1011.58 738.689 1012.25 L739.966 1012.54 Q743.935 1013.39 745.596 1014.95 Q747.277 1016.49 747.277 1019.26 Q747.277 1022.42 744.766 1024.26 Q742.275 1026.11 737.9 1026.11 Q736.077 1026.11 734.092 1025.74 Q732.127 1025.4 729.94 1024.69 L729.94 1020.84 Q732.005 1021.91 734.011 1022.46 Q736.016 1022.99 737.981 1022.99 Q740.614 1022.99 742.031 1022.1 Q743.449 1021.18 743.449 1019.54 Q743.449 1018.02 742.416 1017.21 Q741.404 1016.4 737.94 1015.66 L736.644 1015.35 Q733.18 1014.62 731.641 1013.12 Q730.102 1011.6 730.102 1008.97 Q730.102 1005.77 732.37 1004.03 Q734.639 1002.29 738.811 1002.29 Q740.877 1002.29 742.7 1002.59 Q744.523 1002.89 746.062 1003.5 Z" fill="#000000" fill-rule="evenodd" fill-opacity="1" /><path clip-path="url(#clip610)" d="M770.651 998.641 L770.651 1022.16 L775.593 1022.16 Q781.852 1022.16 784.748 1019.32 Q787.665 1016.49 787.665 1010.37 Q787.665 1004.29 784.748 1001.48 Q781.852 998.641 775.593 998.641 L770.651 998.641 M766.56 995.279 L774.965 995.279 Q783.756 995.279 787.867 998.945 Q791.979 1002.59 791.979 1010.37 Q791.979 1018.19 787.847 1021.85 Q783.715 1025.52 774.965 1025.52 L766.56 1025.52 L766.56 995.279 Z" fill="#000000" fill-rule="evenodd" fill-opacity="1" /><path clip-path="url(#clip610)" d="M798.339 1002.83 L802.066 1002.83 L802.066 1025.52 L798.339 1025.52 L798.339 1002.83 M798.339 994.003 L802.066 994.003 L802.066 998.722 L798.339 998.722 L798.339 994.003 Z" fill="#000000" fill-rule="evenodd" fill-opacity="1" /><path clip-path="url(#clip610)" d="M824.326 1003.5 L824.326 1007.03 Q822.746 1006.22 821.044 1005.81 Q819.343 1005.41 817.52 1005.41 Q814.745 1005.41 813.348 1006.26 Q811.97 1007.11 811.97 1008.81 Q811.97 1010.11 812.963 1010.85 Q813.955 1011.58 816.953 1012.25 L818.229 1012.54 Q822.199 1013.39 823.86 1014.95 Q825.541 1016.49 825.541 1019.26 Q825.541 1022.42 823.029 1024.26 Q820.538 1026.11 816.163 1026.11 Q814.34 1026.11 812.355 1025.74 Q810.39 1025.4 808.203 1024.69 L808.203 1020.84 Q810.269 1021.91 812.274 1022.46 Q814.279 1022.99 816.244 1022.99 Q818.877 1022.99 820.295 1022.1 Q821.713 1021.18 821.713 1019.54 Q821.713 1018.02 820.68 1017.21 Q819.667 1016.4 816.204 1015.66 L814.907 1015.35 Q811.444 1014.62 809.904 1013.12 Q808.365 1011.6 808.365 1008.97 Q808.365 1005.77 810.634 1004.03 Q812.902 1002.29 817.074 1002.29 Q819.14 1002.29 820.963 1002.59 Q822.786 1002.89 824.326 1003.5 Z" fill="#000000" fill-rule="evenodd" fill-opacity="1" /><path clip-path="url(#clip610)" d="M847.76 1014.2 Q847.76 1010.09 846.059 1007.76 Q844.378 1005.41 841.42 1005.41 Q838.463 1005.41 836.762 1007.76 Q835.081 1010.09 835.081 1014.2 Q835.081 1018.31 836.762 1020.66 Q838.463 1022.99 841.42 1022.99 Q844.378 1022.99 846.059 1020.66 Q847.76 1018.31 847.76 1014.2 M835.081 1006.28 Q836.256 1004.25 838.038 1003.28 Q839.841 1002.29 842.332 1002.29 Q846.464 1002.29 849.036 1005.57 Q851.629 1008.85 851.629 1014.2 Q851.629 1019.54 849.036 1022.83 Q846.464 1026.11 842.332 1026.11 Q839.841 1026.11 838.038 1025.13 Q836.256 1024.14 835.081 1022.12 L835.081 1025.52 L831.334 1025.52 L831.334 994.003 L835.081 994.003 L835.081 1006.28 Z" fill="#000000" fill-rule="evenodd" fill-opacity="1" /><path clip-path="url(#clip610)" d="M857.421 1016.57 L857.421 1002.83 L861.148 1002.83 L861.148 1016.42 Q861.148 1019.65 862.404 1021.27 Q863.66 1022.87 866.171 1022.87 Q869.189 1022.87 870.931 1020.94 Q872.693 1019.02 872.693 1015.7 L872.693 1002.83 L876.42 1002.83 L876.42 1025.52 L872.693 1025.52 L872.693 1022.04 Q871.336 1024.1 869.534 1025.11 Q867.751 1026.11 865.382 1026.11 Q861.472 1026.11 859.447 1023.68 Q857.421 1021.25 857.421 1016.57 M866.799 1002.29 L866.799 1002.29 Z" fill="#000000" fill-rule="evenodd" fill-opacity="1" /><path clip-path="url(#clip610)" d="M897.242 1006.32 Q896.614 1005.95 895.865 1005.79 Q895.135 1005.61 894.244 1005.61 Q891.084 1005.61 889.383 1007.67 Q887.702 1009.72 887.702 1013.57 L887.702 1025.52 L883.955 1025.52 L883.955 1002.83 L887.702 1002.83 L887.702 1006.36 Q888.877 1004.29 890.76 1003.3 Q892.644 1002.29 895.338 1002.29 Q895.723 1002.29 896.189 1002.35 Q896.654 1002.39 897.222 1002.49 L897.242 1006.32 Z" fill="#000000" fill-rule="evenodd" fill-opacity="1" /><path clip-path="url(#clip610)" d="M915.613 1003.5 L915.613 1007.03 Q914.033 1006.22 912.331 1005.81 Q910.63 1005.41 908.807 1005.41 Q906.032 1005.41 904.635 1006.26 Q903.257 1007.11 903.257 1008.81 Q903.257 1010.11 904.25 1010.85 Q905.242 1011.58 908.24 1012.25 L909.516 1012.54 Q913.486 1013.39 915.147 1014.95 Q916.828 1016.49 916.828 1019.26 Q916.828 1022.42 914.316 1024.26 Q911.825 1026.11 907.45 1026.11 Q905.627 1026.11 903.642 1025.74 Q901.678 1025.4 899.49 1024.69 L899.49 1020.84 Q901.556 1021.91 903.561 1022.46 Q905.566 1022.99 907.531 1022.99 Q910.164 1022.99 911.582 1022.1 Q913 1021.18 913 1019.54 Q913 1018.02 911.967 1017.21 Q910.954 1016.4 907.491 1015.66 L906.194 1015.35 Q902.731 1014.62 901.191 1013.12 Q899.652 1011.6 899.652 1008.97 Q899.652 1005.77 901.921 1004.03 Q904.189 1002.29 908.362 1002.29 Q910.428 1002.29 912.25 1002.59 Q914.073 1002.89 915.613 1003.5 Z" fill="#000000" fill-rule="evenodd" fill-opacity="1" /><path clip-path="url(#clip610)" d="M942.166 1013.24 L942.166 1015.07 L925.031 1015.07 Q925.274 1018.92 927.34 1020.94 Q929.426 1022.95 933.133 1022.95 Q935.28 1022.95 937.285 1022.42 Q939.311 1021.89 941.295 1020.84 L941.295 1024.36 Q939.29 1025.22 937.184 1025.66 Q935.077 1026.11 932.91 1026.11 Q927.482 1026.11 924.302 1022.95 Q921.142 1019.79 921.142 1014.4 Q921.142 1008.83 924.14 1005.57 Q927.158 1002.29 932.262 1002.29 Q936.839 1002.29 939.493 1005.24 Q942.166 1008.18 942.166 1013.24 M938.44 1012.15 Q938.399 1009.09 936.718 1007.27 Q935.057 1005.45 932.302 1005.45 Q929.183 1005.45 927.3 1007.21 Q925.436 1008.97 925.153 1012.17 L938.44 1012.15 Z" fill="#000000" fill-rule="evenodd" fill-opacity="1" /><path clip-path="url(#clip610)" d="M963.211 1006.28 L963.211 994.003 L966.938 994.003 L966.938 1025.52 L963.211 1025.52 L963.211 1022.12 Q962.036 1024.14 960.233 1025.13 Q958.451 1026.11 955.939 1026.11 Q951.828 1026.11 949.235 1022.83 Q946.663 1019.54 946.663 1014.2 Q946.663 1008.85 949.235 1005.57 Q951.828 1002.29 955.939 1002.29 Q958.451 1002.29 960.233 1003.28 Q962.036 1004.25 963.211 1006.28 M950.511 1014.2 Q950.511 1018.31 952.192 1020.66 Q953.894 1022.99 956.851 1022.99 Q959.808 1022.99 961.509 1020.66 Q963.211 1018.31 963.211 1014.2 Q963.211 1010.09 961.509 1007.76 Q959.808 1005.41 956.851 1005.41 Q953.894 1005.41 952.192 1007.76 Q950.511 1010.09 950.511 1014.2 Z" fill="#000000" fill-rule="evenodd" fill-opacity="1" /><polyline clip-path="url(#clip610)" style="stroke:#ff0000; stroke-linecap:butt; stroke-linejoin:round; stroke-width:3.5; stroke-opacity:1; fill:none" stroke-dasharray="14, 7, 2, 7" points="
  258.346,1055.76 401.147,1055.76 
  "/>
<path clip-path="url(#clip610)" d="M329.746 1078.16 L310.348 1066.96 L310.348 1044.56 L329.746 1033.36 L349.145 1044.56 L349.145 1066.96 Z" fill="#ff0000" fill-rule="evenodd" fill-opacity="1" stroke="#000000" stroke-opacity="1" stroke-width="7.168"/>
<path clip-path="url(#clip610)" d="M429.038 1044 L429.038 1055.36 L434.183 1055.36 Q437.039 1055.36 438.598 1053.89 Q440.158 1052.41 440.158 1049.67 Q440.158 1046.96 438.598 1045.48 Q437.039 1044 434.183 1044 L429.038 1044 M424.947 1040.64 L434.183 1040.64 Q439.267 1040.64 441.859 1042.95 Q444.472 1045.24 444.472 1049.67 Q444.472 1054.15 441.859 1056.44 Q439.267 1058.73 434.183 1058.73 L429.038 1058.73 L429.038 1070.88 L424.947 1070.88 L424.947 1040.64 Z" fill="#000000" fill-rule="evenodd" fill-opacity="1" /><path clip-path="url(#clip610)" d="M447.267 1040.64 L451.399 1040.64 L457.759 1066.2 L464.099 1040.64 L468.697 1040.64 L475.057 1066.2 L481.396 1040.64 L485.548 1040.64 L477.953 1070.88 L472.808 1070.88 L466.428 1044.63 L459.987 1070.88 L454.843 1070.88 L447.267 1040.64 Z" fill="#000000" fill-rule="evenodd" fill-opacity="1" /><path clip-path="url(#clip610)" d="M486.784 1040.64 L512.365 1040.64 L512.365 1044.08 L501.631 1044.08 L501.631 1070.88 L497.519 1070.88 L497.519 1044.08 L486.784 1044.08 L486.784 1040.64 Z" fill="#000000" fill-rule="evenodd" fill-opacity="1" /><polyline clip-path="url(#clip610)" style="stroke:#87ceeb; stroke-linecap:butt; stroke-linejoin:round; stroke-width:3.5; stroke-opacity:1; fill:none" stroke-dasharray="2, 4" points="
  258.346,1101.12 401.147,1101.12 
  "/>
<path clip-path="url(#clip610)" d="M307.346 1078.72 L307.346 1123.52 L352.146 1123.52 L352.146 1078.72 L307.346 1078.72 Z" fill="#87ceeb" fill-rule="evenodd" fill-opacity="1" stroke="#000000" stroke-opacity="1" stroke-width="7.168"/>
<path clip-path="url(#clip610)" d="M439.631 1090.23 L439.631 1101.51 L450.913 1101.51 L450.913 1104.96 L439.631 1104.96 L439.631 1116.24 L436.229 1116.24 L436.229 1104.96 L424.947 1104.96 L424.947 1101.51 L436.229 1101.51 L436.229 1090.23 L439.631 1090.23 Z" fill="#000000" fill-rule="evenodd" fill-opacity="1" /><path clip-path="url(#clip610)" d="M465.841 1086 L469.284 1086 L458.752 1120.09 L455.308 1120.09 L465.841 1086 Z" fill="#000000" fill-rule="evenodd" fill-opacity="1" /><path clip-path="url(#clip610)" d="M471.31 1103.22 L482.227 1103.22 L482.227 1106.54 L471.31 1106.54 L471.31 1103.22 Z" fill="#000000" fill-rule="evenodd" fill-opacity="1" /><path clip-path="url(#clip610)" d="M487.655 1086 L507.099 1086 L507.099 1087.74 L496.121 1116.24 L491.848 1116.24 L502.177 1089.44 L487.655 1089.44 L487.655 1086 Z" fill="#000000" fill-rule="evenodd" fill-opacity="1" /><polyline clip-path="url(#clip610)" style="stroke:#008000; stroke-linecap:butt; stroke-linejoin:round; stroke-width:3.5; stroke-opacity:1; fill:none" stroke-dasharray="2, 4" points="
  258.346,1146.48 401.147,1146.48 
  "/>
<line clip-path="url(#clip610)" x1="329.746" y1="1146.48" x2="307.346" y2="1124.08" style="stroke:#008000; stroke-width:3.2; stroke-opacity:1"/>
<line clip-path="url(#clip610)" x1="329.746" y1="1146.48" x2="307.346" y2="1168.88" style="stroke:#008000; stroke-width:3.2; stroke-opacity:1"/>
<line clip-path="url(#clip610)" x1="329.746" y1="1146.48" x2="352.146" y2="1168.88" style="stroke:#008000; stroke-width:3.2; stroke-opacity:1"/>
<line clip-path="url(#clip610)" x1="329.746" y1="1146.48" x2="352.146" y2="1124.08" style="stroke:#008000; stroke-width:3.2; stroke-opacity:1"/>
<path clip-path="url(#clip610)" d="M439.631 1135.59 L439.631 1146.87 L450.913 1146.87 L450.913 1150.32 L439.631 1150.32 L439.631 1161.6 L436.229 1161.6 L436.229 1150.32 L424.947 1150.32 L424.947 1146.87 L436.229 1146.87 L436.229 1135.59 L439.631 1135.59 Z" fill="#000000" fill-rule="evenodd" fill-opacity="1" /><path clip-path="url(#clip610)" d="M465.841 1131.36 L469.284 1131.36 L458.752 1165.45 L455.308 1165.45 L465.841 1131.36 Z" fill="#000000" fill-rule="evenodd" fill-opacity="1" /><path clip-path="url(#clip610)" d="M471.31 1148.58 L482.227 1148.58 L482.227 1151.9 L471.31 1151.9 L471.31 1148.58 Z" fill="#000000" fill-rule="evenodd" fill-opacity="1" /><path clip-path="url(#clip610)" d="M489.397 1158.16 L496.081 1158.16 L496.081 1135.09 L488.809 1136.54 L488.809 1132.82 L496.04 1131.36 L500.132 1131.36 L500.132 1158.16 L506.816 1158.16 L506.816 1161.6 L489.397 1161.6 L489.397 1158.16 Z" fill="#000000" fill-rule="evenodd" fill-opacity="1" /><path clip-path="url(#clip610)" d="M515.788 1158.16 L522.472 1158.16 L522.472 1135.09 L515.201 1136.54 L515.201 1132.82 L522.432 1131.36 L526.523 1131.36 L526.523 1158.16 L533.207 1158.16 L533.207 1161.6 L515.788 1161.6 L515.788 1158.16 Z" fill="#000000" fill-rule="evenodd" fill-opacity="1" /><polyline clip-path="url(#clip610)" style="stroke:#ffa500; stroke-linecap:butt; stroke-linejoin:round; stroke-width:3.5; stroke-opacity:1; fill:none" stroke-dasharray="2, 4" points="
  258.346,1191.84 401.147,1191.84 
  "/>
<path clip-path="url(#clip610)" d="M329.746 1169.44 L307.346 1214.24 L352.146 1214.24 L329.746 1169.44 Z" fill="#ffa500" fill-rule="evenodd" fill-opacity="1" stroke="#000000" stroke-opacity="1" stroke-width="7.168"/>
<path clip-path="url(#clip610)" d="M439.631 1180.95 L439.631 1192.23 L450.913 1192.23 L450.913 1195.68 L439.631 1195.68 L439.631 1206.96 L436.229 1206.96 L436.229 1195.68 L424.947 1195.68 L424.947 1192.23 L436.229 1192.23 L436.229 1180.95 L439.631 1180.95 Z" fill="#000000" fill-rule="evenodd" fill-opacity="1" /><path clip-path="url(#clip610)" d="M465.841 1176.72 L469.284 1176.72 L458.752 1210.81 L455.308 1210.81 L465.841 1176.72 Z" fill="#000000" fill-rule="evenodd" fill-opacity="1" /><path clip-path="url(#clip610)" d="M471.31 1193.94 L482.227 1193.94 L482.227 1197.26 L471.31 1197.26 L471.31 1193.94 Z" fill="#000000" fill-rule="evenodd" fill-opacity="1" /><path clip-path="url(#clip610)" d="M489.397 1203.52 L496.081 1203.52 L496.081 1180.45 L488.809 1181.9 L488.809 1178.18 L496.04 1176.72 L500.132 1176.72 L500.132 1203.52 L506.816 1203.52 L506.816 1206.96 L489.397 1206.96 L489.397 1203.52 Z" fill="#000000" fill-rule="evenodd" fill-opacity="1" /><path clip-path="url(#clip610)" d="M527.475 1190.65 Q530.412 1191.28 532.053 1193.27 Q533.714 1195.25 533.714 1198.17 Q533.714 1202.64 530.635 1205.1 Q527.556 1207.55 521.885 1207.55 Q519.981 1207.55 517.956 1207.16 Q515.951 1206.8 513.804 1206.05 L513.804 1202.1 Q515.505 1203.09 517.53 1203.6 Q519.556 1204.1 521.764 1204.1 Q525.612 1204.1 527.617 1202.58 Q529.643 1201.07 529.643 1198.17 Q529.643 1195.5 527.759 1194 Q525.895 1192.48 522.553 1192.48 L519.029 1192.48 L519.029 1189.11 L522.716 1189.11 Q525.733 1189.11 527.334 1187.92 Q528.934 1186.7 528.934 1184.44 Q528.934 1182.11 527.273 1180.87 Q525.632 1179.62 522.553 1179.62 Q520.872 1179.62 518.948 1179.98 Q517.024 1180.34 514.715 1181.11 L514.715 1177.47 Q517.044 1176.82 519.07 1176.5 Q521.115 1176.17 522.918 1176.17 Q527.577 1176.17 530.291 1178.3 Q533.005 1180.41 533.005 1184.01 Q533.005 1186.52 531.567 1188.26 Q530.129 1189.99 527.475 1190.65 Z" fill="#000000" fill-rule="evenodd" fill-opacity="1" /><polyline clip-path="url(#clip610)" style="stroke:#deb887; stroke-linecap:butt; stroke-linejoin:round; stroke-width:3.5; stroke-opacity:1; fill:none" stroke-dasharray="2, 4" points="
  258.346,1237.2 401.147,1237.2 
  "/>
<path clip-path="url(#clip610)" d="M329.746 1259.6 L323.407 1243.54 L307.346 1237.2 L323.407 1230.86 L329.746 1214.8 L336.086 1230.86 L352.146 1237.2 L336.086 1243.54 L329.746 1259.6 Z" fill="#deb887" fill-rule="evenodd" fill-opacity="1" stroke="#000000" stroke-opacity="1" stroke-width="7.168"/>
<path clip-path="url(#clip610)" d="M439.631 1226.31 L439.631 1237.59 L450.913 1237.59 L450.913 1241.04 L439.631 1241.04 L439.631 1252.32 L436.229 1252.32 L436.229 1241.04 L424.947 1241.04 L424.947 1237.59 L436.229 1237.59 L436.229 1226.31 L439.631 1226.31 Z" fill="#000000" fill-rule="evenodd" fill-opacity="1" /><path clip-path="url(#clip610)" d="M465.841 1222.08 L469.284 1222.08 L458.752 1256.17 L455.308 1256.17 L465.841 1222.08 Z" fill="#000000" fill-rule="evenodd" fill-opacity="1" /><path clip-path="url(#clip610)" d="M471.31 1239.3 L482.227 1239.3 L482.227 1242.62 L471.31 1242.62 L471.31 1239.3 Z" fill="#000000" fill-rule="evenodd" fill-opacity="1" /><path clip-path="url(#clip610)" d="M489.397 1248.88 L496.081 1248.88 L496.081 1225.81 L488.809 1227.26 L488.809 1223.54 L496.04 1222.08 L500.132 1222.08 L500.132 1248.88 L506.816 1248.88 L506.816 1252.32 L489.397 1252.32 L489.397 1248.88 Z" fill="#000000" fill-rule="evenodd" fill-opacity="1" /><path clip-path="url(#clip610)" d="M515.12 1222.08 L531.182 1222.08 L531.182 1225.52 L518.867 1225.52 L518.867 1232.94 Q519.758 1232.63 520.65 1232.49 Q521.541 1232.33 522.432 1232.33 Q527.496 1232.33 530.453 1235.1 Q533.41 1237.88 533.41 1242.62 Q533.41 1247.5 530.372 1250.21 Q527.334 1252.91 521.804 1252.91 Q519.9 1252.91 517.915 1252.58 Q515.951 1252.26 513.844 1251.61 L513.844 1247.5 Q515.667 1248.49 517.611 1248.98 Q519.556 1249.46 521.723 1249.46 Q525.227 1249.46 527.273 1247.62 Q529.318 1245.78 529.318 1242.62 Q529.318 1239.46 527.273 1237.61 Q525.227 1235.77 521.723 1235.77 Q520.082 1235.77 518.442 1236.14 Q516.821 1236.5 515.12 1237.27 L515.12 1222.08 Z" fill="#000000" fill-rule="evenodd" fill-opacity="1" /></svg>
