<?xml version="1.0" encoding="utf-8"?>
<svg xmlns="http://www.w3.org/2000/svg" xmlns:xlink="http://www.w3.org/1999/xlink" width="600" height="400" viewBox="0 0 2400 1600">
<defs>
  <clipPath id="clip880">
    <rect x="0" y="0" width="2400" height="1600"/>
  </clipPath>
</defs>
<path clip-path="url(#clip880)" d="
M0 1600 L2400 1600 L2400 0 L0 0  Z
  " fill="#ffffff" fill-rule="evenodd" fill-opacity="1"/>
<defs>
  <clipPath id="clip881">
    <rect x="480" y="0" width="1681" height="1600"/>
  </clipPath>
</defs>
<path clip-path="url(#clip880)" d="
M199.829 1422.68 L2352.76 1422.68 L2352.76 47.2441 L199.829 47.2441  Z
  " fill="#ffffff" fill-rule="evenodd" fill-opacity="1"/>
<defs>
  <clipPath id="clip882">
    <rect x="199" y="47" width="2154" height="1376"/>
  </clipPath>
</defs>
<polyline clip-path="url(#clip880)" style="stroke:#000000; stroke-linecap:butt; stroke-linejoin:round; stroke-width:4; stroke-opacity:1; fill:none" points="
  199.829,1422.68 2352.76,1422.68 
  "/>
<polyline clip-path="url(#clip880)" style="stroke:#000000; stroke-linecap:butt; stroke-linejoin:round; stroke-width:4; stroke-opacity:1; fill:none" points="
  260.761,1422.68 260.761,1403.79 
  "/>
<polyline clip-path="url(#clip880)" style="stroke:#000000; stroke-linecap:butt; stroke-linejoin:round; stroke-width:4; stroke-opacity:1; fill:none" points="
  599.272,1422.68 599.272,1403.79 
  "/>
<polyline clip-path="url(#clip880)" style="stroke:#000000; stroke-linecap:butt; stroke-linejoin:round; stroke-width:4; stroke-opacity:1; fill:none" points="
  937.782,1422.68 937.782,1403.79 
  "/>
<polyline clip-path="url(#clip880)" style="stroke:#000000; stroke-linecap:butt; stroke-linejoin:round; stroke-width:4; stroke-opacity:1; fill:none" points="
  1276.29,1422.68 1276.29,1403.79 
  "/>
<polyline clip-path="url(#clip880)" style="stroke:#000000; stroke-linecap:butt; stroke-linejoin:round; stroke-width:4; stroke-opacity:1; fill:none" points="
  1614.8,1422.68 1614.8,1403.79 
  "/>
<polyline clip-path="url(#clip880)" style="stroke:#000000; stroke-linecap:butt; stroke-linejoin:round; stroke-width:4; stroke-opacity:1; fill:none" points="
  1953.31,1422.68 1953.31,1403.79 
  "/>
<polyline clip-path="url(#clip880)" style="stroke:#000000; stroke-linecap:butt; stroke-linejoin:round; stroke-width:4; stroke-opacity:1; fill:none" points="
  2291.82,1422.68 2291.82,1403.79 
  "/>
<g clip-path="url(#clip880)">
<text style="fill:#000000; fill-opacity:1; font-family:Times New Roman,TimesNewRoman,Times,Baskerville,Georgia,serif; font-size:53px; text-anchor:middle;" transform="rotate(0, 260.761, 1483.88)" x="260.761" y="1483.88">0</text>
</g>
<g clip-path="url(#clip880)">
<text style="fill:#000000; fill-opacity:1; font-family:Times New Roman,TimesNewRoman,Times,Baskerville,Georgia,serif; font-size:53px; text-anchor:middle;" transform="rotate(0, 599.272, 1483.88)" x="599.272" y="1483.88">1</text>
</g>
<g clip-path="url(#clip880)">
<text style="fill:#000000; fill-opacity:1; font-family:Times New Roman,TimesNewRoman,Times,Baskerville,Georgia,serif; font-size:53px; text-anchor:middle;" transform="rotate(0, 937.782, 1483.88)" x="937.782" y="1483.88">2</text>
</g>
<g clip-path="url(#clip880)">
<text style="fill:#000000; fill-opacity:1; font-family:Times New Roman,TimesNewRoman,Times,Baskerville,Georgia,serif; font-size:53px; text-anchor:middle;" transform="rotate(0, 1276.29, 1483.88)" x="1276.29" y="1483.88">3</text>
</g>
<g clip-path="url(#clip880)">
<text style="fill:#000000; fill-opacity:1; font-family:Times New Roman,TimesNewRoman,Times,Baskerville,Georgia,serif; font-size:53px; text-anchor:middle;" transform="rotate(0, 1614.8, 1483.88)" x="1614.8" y="1483.88">4</text>
</g>
<g clip-path="url(#clip880)">
<text style="fill:#000000; fill-opacity:1; font-family:Times New Roman,TimesNewRoman,Times,Baskerville,Georgia,serif; font-size:53px; text-anchor:middle;" transform="rotate(0, 1953.31, 1483.88)" x="1953.31" y="1483.88">5</text>
</g>
<g clip-path="url(#clip880)">
<text style="fill:#000000; fill-opacity:1; font-family:Times New Roman,TimesNewRoman,Times,Baskerville,Georgia,serif; font-size:53px; text-anchor:middle;" transform="rotate(0, 2291.82, 1483.88)" x="2291.82" y="1483.88">6</text>
</g>
<g clip-path="url(#clip880)">
<text style="fill:#000000; fill-opacity:1; font-family:Times New Roman,TimesNewRoman,Times,Baskerville,Georgia,serif; font-size:73px; text-anchor:middle;" transform="rotate(0, 1276.29, 1572.95)" x="1276.29" y="1572.95">Years From Crisis</text>
</g>
<polyline clip-path="url(#clip880)" style="stroke:#000000; stroke-linecap:butt; stroke-linejoin:round; stroke-width:4; stroke-opacity:1; fill:none" points="
  199.829,1422.68 199.829,47.2441 
  "/>
<polyline clip-path="url(#clip880)" style="stroke:#000000; stroke-linecap:butt; stroke-linejoin:round; stroke-width:4; stroke-opacity:1; fill:none" points="
  199.829,1342.95 218.727,1342.95 
  "/>
<polyline clip-path="url(#clip880)" style="stroke:#000000; stroke-linecap:butt; stroke-linejoin:round; stroke-width:4; stroke-opacity:1; fill:none" points="
  199.829,1143.61 218.727,1143.61 
  "/>
<polyline clip-path="url(#clip880)" style="stroke:#000000; stroke-linecap:butt; stroke-linejoin:round; stroke-width:4; stroke-opacity:1; fill:none" points="
  199.829,944.27 218.727,944.27 
  "/>
<polyline clip-path="url(#clip880)" style="stroke:#000000; stroke-linecap:butt; stroke-linejoin:round; stroke-width:4; stroke-opacity:1; fill:none" points="
  199.829,744.931 218.727,744.931 
  "/>
<polyline clip-path="url(#clip880)" style="stroke:#000000; stroke-linecap:butt; stroke-linejoin:round; stroke-width:4; stroke-opacity:1; fill:none" points="
  199.829,545.592 218.727,545.592 
  "/>
<polyline clip-path="url(#clip880)" style="stroke:#000000; stroke-linecap:butt; stroke-linejoin:round; stroke-width:4; stroke-opacity:1; fill:none" points="
  199.829,346.253 218.727,346.253 
  "/>
<polyline clip-path="url(#clip880)" style="stroke:#000000; stroke-linecap:butt; stroke-linejoin:round; stroke-width:4; stroke-opacity:1; fill:none" points="
  199.829,146.914 218.727,146.914 
  "/>
<g clip-path="url(#clip880)">
<text style="fill:#000000; fill-opacity:1; font-family:Times New Roman,TimesNewRoman,Times,Baskerville,Georgia,serif; font-size:53px; text-anchor:end;" transform="rotate(0, 163.829, 1360.45)" x="163.829" y="1360.45">−3</text>
</g>
<g clip-path="url(#clip880)">
<text style="fill:#000000; fill-opacity:1; font-family:Times New Roman,TimesNewRoman,Times,Baskerville,Georgia,serif; font-size:53px; text-anchor:end;" transform="rotate(0, 163.829, 1161.11)" x="163.829" y="1161.11">−2</text>
</g>
<g clip-path="url(#clip880)">
<text style="fill:#000000; fill-opacity:1; font-family:Times New Roman,TimesNewRoman,Times,Baskerville,Georgia,serif; font-size:53px; text-anchor:end;" transform="rotate(0, 163.829, 961.77)" x="163.829" y="961.77">−1</text>
</g>
<g clip-path="url(#clip880)">
<text style="fill:#000000; fill-opacity:1; font-family:Times New Roman,TimesNewRoman,Times,Baskerville,Georgia,serif; font-size:53px; text-anchor:end;" transform="rotate(0, 163.829, 762.431)" x="163.829" y="762.431">0</text>
</g>
<g clip-path="url(#clip880)">
<text style="fill:#000000; fill-opacity:1; font-family:Times New Roman,TimesNewRoman,Times,Baskerville,Georgia,serif; font-size:53px; text-anchor:end;" transform="rotate(0, 163.829, 563.092)" x="163.829" y="563.092">1</text>
</g>
<g clip-path="url(#clip880)">
<text style="fill:#000000; fill-opacity:1; font-family:Times New Roman,TimesNewRoman,Times,Baskerville,Georgia,serif; font-size:53px; text-anchor:end;" transform="rotate(0, 163.829, 363.753)" x="163.829" y="363.753">2</text>
</g>
<g clip-path="url(#clip880)">
<text style="fill:#000000; fill-opacity:1; font-family:Times New Roman,TimesNewRoman,Times,Baskerville,Georgia,serif; font-size:53px; text-anchor:end;" transform="rotate(0, 163.829, 164.414)" x="163.829" y="164.414">3</text>
</g>
<g clip-path="url(#clip880)">
<text style="fill:#000000; fill-opacity:1; font-family:Times New Roman,TimesNewRoman,Times,Baskerville,Georgia,serif; font-size:73px; text-anchor:middle;" transform="rotate(-90, 64.4366, 734.964)" x="64.4366" y="734.964">Increase in Output (%)</text>
</g>
<polyline clip-path="url(#clip882)" style="stroke:#0000ff; stroke-linecap:butt; stroke-linejoin:round; stroke-width:10; stroke-opacity:1; fill:none" points="
  260.761,744.931 599.272,536.653 937.782,234.822 1276.29,189.455 1614.8,438.102 1953.31,600.12 2291.82,845.272 
  "/>
<circle clip-path="url(#clip882)" cx="260.761" cy="744.931" r="9" fill="#0000ff" fill-rule="evenodd" fill-opacity="1" stroke="#000000" stroke-opacity="1" stroke-width="3.2"/>
<circle clip-path="url(#clip882)" cx="599.272" cy="536.653" r="9" fill="#0000ff" fill-rule="evenodd" fill-opacity="1" stroke="#000000" stroke-opacity="1" stroke-width="3.2"/>
<circle clip-path="url(#clip882)" cx="937.782" cy="234.822" r="9" fill="#0000ff" fill-rule="evenodd" fill-opacity="1" stroke="#000000" stroke-opacity="1" stroke-width="3.2"/>
<circle clip-path="url(#clip882)" cx="1276.29" cy="189.455" r="9" fill="#0000ff" fill-rule="evenodd" fill-opacity="1" stroke="#000000" stroke-opacity="1" stroke-width="3.2"/>
<circle clip-path="url(#clip882)" cx="1614.8" cy="438.102" r="9" fill="#0000ff" fill-rule="evenodd" fill-opacity="1" stroke="#000000" stroke-opacity="1" stroke-width="3.2"/>
<circle clip-path="url(#clip882)" cx="1953.31" cy="600.12" r="9" fill="#0000ff" fill-rule="evenodd" fill-opacity="1" stroke="#000000" stroke-opacity="1" stroke-width="3.2"/>
<circle clip-path="url(#clip882)" cx="2291.82" cy="845.272" r="9" fill="#0000ff" fill-rule="evenodd" fill-opacity="1" stroke="#000000" stroke-opacity="1" stroke-width="3.2"/>
<polyline clip-path="url(#clip882)" style="stroke:#808080; stroke-linecap:butt; stroke-linejoin:round; stroke-width:7.6; stroke-opacity:1; fill:none" stroke-dasharray="30, 19" points="
  260.761,744.931 599.272,593.917 937.782,276.203 1276.29,246.654 1614.8,519.068 1953.31,744.291 2291.82,1011.13 
  "/>
<path clip-path="url(#clip882)" d="M260.761 754.931 L259.231 748.631 L253.691 752.001 L257.061 746.461 L250.761 744.931 L257.061 743.401 L253.691 737.861 L259.231 741.231 L260.761 734.931 L262.291 741.231 L267.831 737.861 L264.461 743.401 L270.761 744.931 L264.461 746.461 L267.831 752.001 L262.291 748.631 L260.761 754.931 Z" fill="#808080" fill-rule="evenodd" fill-opacity="1" stroke="#000000" stroke-opacity="1" stroke-width="3.2"/>
<path clip-path="url(#clip882)" d="M599.272 603.917 L597.742 597.617 L592.202 600.987 L595.572 595.447 L589.272 593.917 L595.572 592.387 L592.202 586.847 L597.742 590.217 L599.272 583.917 L600.802 590.217 L606.342 586.847 L602.972 592.387 L609.272 593.917 L602.972 595.447 L606.342 600.987 L600.802 597.617 L599.272 603.917 Z" fill="#808080" fill-rule="evenodd" fill-opacity="1" stroke="#000000" stroke-opacity="1" stroke-width="3.2"/>
<path clip-path="url(#clip882)" d="M937.782 286.203 L936.252 279.903 L930.712 283.273 L934.082 277.733 L927.782 276.203 L934.082 274.673 L930.712 269.133 L936.252 272.503 L937.782 266.203 L939.312 272.503 L944.852 269.133 L941.482 274.673 L947.782 276.203 L941.482 277.733 L944.852 283.273 L939.312 279.903 L937.782 286.203 Z" fill="#808080" fill-rule="evenodd" fill-opacity="1" stroke="#000000" stroke-opacity="1" stroke-width="3.2"/>
<path clip-path="url(#clip882)" d="M1276.29 256.654 L1274.76 250.354 L1269.22 253.724 L1272.59 248.184 L1266.29 246.654 L1272.59 245.124 L1269.22 239.584 L1274.76 242.954 L1276.29 236.654 L1277.82 242.954 L1283.36 239.584 L1279.99 245.124 L1286.29 246.654 L1279.99 248.184 L1283.36 253.724 L1277.82 250.354 L1276.29 256.654 Z" fill="#808080" fill-rule="evenodd" fill-opacity="1" stroke="#000000" stroke-opacity="1" stroke-width="3.2"/>
<path clip-path="url(#clip882)" d="M1614.8 529.068 L1613.27 522.768 L1607.73 526.138 L1611.1 520.598 L1604.8 519.068 L1611.1 517.538 L1607.73 511.998 L1613.27 515.368 L1614.8 509.068 L1616.33 515.368 L1621.87 511.998 L1618.5 517.538 L1624.8 519.068 L1618.5 520.598 L1621.87 526.138 L1616.33 522.768 L1614.8 529.068 Z" fill="#808080" fill-rule="evenodd" fill-opacity="1" stroke="#000000" stroke-opacity="1" stroke-width="3.2"/>
<path clip-path="url(#clip882)" d="M1953.31 754.291 L1951.78 747.991 L1946.24 751.361 L1949.61 745.821 L1943.31 744.291 L1949.61 742.761 L1946.24 737.221 L1951.78 740.591 L1953.31 734.291 L1954.84 740.591 L1960.38 737.221 L1957.01 742.761 L1963.31 744.291 L1957.01 745.821 L1960.38 751.361 L1954.84 747.991 L1953.31 754.291 Z" fill="#808080" fill-rule="evenodd" fill-opacity="1" stroke="#000000" stroke-opacity="1" stroke-width="3.2"/>
<path clip-path="url(#clip882)" d="M2291.82 1021.13 L2290.29 1014.83 L2284.75 1018.2 L2288.12 1012.66 L2281.82 1011.13 L2288.12 1009.6 L2284.75 1004.06 L2290.29 1007.43 L2291.82 1001.13 L2293.35 1007.43 L2298.89 1004.06 L2295.52 1009.6 L2301.82 1011.13 L2295.52 1012.66 L2298.89 1018.2 L2293.35 1014.83 L2291.82 1021.13 Z" fill="#808080" fill-rule="evenodd" fill-opacity="1" stroke="#000000" stroke-opacity="1" stroke-width="3.2"/>
<polyline clip-path="url(#clip882)" style="stroke:#912cee; stroke-linecap:butt; stroke-linejoin:round; stroke-width:7.6; stroke-opacity:1; fill:none" stroke-dasharray="30, 15, 4, 15" points="
  260.761,744.931 599.272,712.233 937.782,385.147 1276.29,548.237 1614.8,780.959 1953.31,1110.21 2291.82,1370.14 
  "/>
<path clip-path="url(#clip882)" d="M250.761 734.931 L250.761 754.931 L270.761 754.931 L270.761 734.931 L250.761 734.931 Z" fill="#912cee" fill-rule="evenodd" fill-opacity="1" stroke="#000000" stroke-opacity="1" stroke-width="3.2"/>
<path clip-path="url(#clip882)" d="M589.272 702.233 L589.272 722.233 L609.272 722.233 L609.272 702.233 L589.272 702.233 Z" fill="#912cee" fill-rule="evenodd" fill-opacity="1" stroke="#000000" stroke-opacity="1" stroke-width="3.2"/>
<path clip-path="url(#clip882)" d="M927.782 375.147 L927.782 395.147 L947.782 395.147 L947.782 375.147 L927.782 375.147 Z" fill="#912cee" fill-rule="evenodd" fill-opacity="1" stroke="#000000" stroke-opacity="1" stroke-width="3.2"/>
<path clip-path="url(#clip882)" d="M1266.29 538.237 L1266.29 558.237 L1286.29 558.237 L1286.29 538.237 L1266.29 538.237 Z" fill="#912cee" fill-rule="evenodd" fill-opacity="1" stroke="#000000" stroke-opacity="1" stroke-width="3.2"/>
<path clip-path="url(#clip882)" d="M1604.8 770.959 L1604.8 790.959 L1624.8 790.959 L1624.8 770.959 L1604.8 770.959 Z" fill="#912cee" fill-rule="evenodd" fill-opacity="1" stroke="#000000" stroke-opacity="1" stroke-width="3.2"/>
<path clip-path="url(#clip882)" d="M1943.31 1100.21 L1943.31 1120.21 L1963.31 1120.21 L1963.31 1100.21 L1943.31 1100.21 Z" fill="#912cee" fill-rule="evenodd" fill-opacity="1" stroke="#000000" stroke-opacity="1" stroke-width="3.2"/>
<path clip-path="url(#clip882)" d="M2281.82 1360.14 L2281.82 1380.14 L2301.82 1380.14 L2301.82 1360.14 L2281.82 1360.14 Z" fill="#912cee" fill-rule="evenodd" fill-opacity="1" stroke="#000000" stroke-opacity="1" stroke-width="3.2"/>
<polyline clip-path="url(#clip882)" style="stroke:#00ff7f; stroke-linecap:butt; stroke-linejoin:round; stroke-width:7.6; stroke-opacity:1; fill:none" stroke-dasharray="4, 8" points="
  260.761,744.931 599.272,695.278 937.782,100.949 1276.29,97.1947 1614.8,451.242 1953.31,631.019 2291.82,969.979 
  "/>
<path clip-path="url(#clip882)" d="M260.761 754.931 L259.231 748.631 L253.691 752.001 L257.061 746.461 L250.761 744.931 L257.061 743.401 L253.691 737.861 L259.231 741.231 L260.761 734.931 L262.291 741.231 L267.831 737.861 L264.461 743.401 L270.761 744.931 L264.461 746.461 L267.831 752.001 L262.291 748.631 L260.761 754.931 Z" fill="#00ff7f" fill-rule="evenodd" fill-opacity="1" stroke="#000000" stroke-opacity="1" stroke-width="3.2"/>
<path clip-path="url(#clip882)" d="M599.272 705.278 L597.742 698.978 L592.202 702.348 L595.572 696.808 L589.272 695.278 L595.572 693.748 L592.202 688.208 L597.742 691.578 L599.272 685.278 L600.802 691.578 L606.342 688.208 L602.972 693.748 L609.272 695.278 L602.972 696.808 L606.342 702.348 L600.802 698.978 L599.272 705.278 Z" fill="#00ff7f" fill-rule="evenodd" fill-opacity="1" stroke="#000000" stroke-opacity="1" stroke-width="3.2"/>
<path clip-path="url(#clip882)" d="M937.782 110.949 L936.252 104.649 L930.712 108.019 L934.082 102.479 L927.782 100.949 L934.082 99.4189 L930.712 93.8789 L936.252 97.2489 L937.782 90.9489 L939.312 97.2489 L944.852 93.8789 L941.482 99.4189 L947.782 100.949 L941.482 102.479 L944.852 108.019 L939.312 104.649 L937.782 110.949 Z" fill="#00ff7f" fill-rule="evenodd" fill-opacity="1" stroke="#000000" stroke-opacity="1" stroke-width="3.2"/>
<path clip-path="url(#clip882)" d="M1276.29 107.195 L1274.76 100.895 L1269.22 104.265 L1272.59 98.7247 L1266.29 97.1947 L1272.59 95.6647 L1269.22 90.1247 L1274.76 93.4947 L1276.29 87.1947 L1277.82 93.4947 L1283.36 90.1247 L1279.99 95.6647 L1286.29 97.1947 L1279.99 98.7247 L1283.36 104.265 L1277.82 100.895 L1276.29 107.195 Z" fill="#00ff7f" fill-rule="evenodd" fill-opacity="1" stroke="#000000" stroke-opacity="1" stroke-width="3.2"/>
<path clip-path="url(#clip882)" d="M1614.8 461.242 L1613.27 454.942 L1607.73 458.312 L1611.1 452.772 L1604.8 451.242 L1611.1 449.712 L1607.73 444.172 L1613.27 447.542 L1614.8 441.242 L1616.33 447.542 L1621.87 444.172 L1618.5 449.712 L1624.8 451.242 L1618.5 452.772 L1621.87 458.312 L1616.33 454.942 L1614.8 461.242 Z" fill="#00ff7f" fill-rule="evenodd" fill-opacity="1" stroke="#000000" stroke-opacity="1" stroke-width="3.2"/>
<path clip-path="url(#clip882)" d="M1953.31 641.019 L1951.78 634.719 L1946.24 638.089 L1949.61 632.549 L1943.31 631.019 L1949.61 629.489 L1946.24 623.949 L1951.78 627.319 L1953.31 621.019 L1954.84 627.319 L1960.38 623.949 L1957.01 629.489 L1963.31 631.019 L1957.01 632.549 L1960.38 638.089 L1954.84 634.719 L1953.31 641.019 Z" fill="#00ff7f" fill-rule="evenodd" fill-opacity="1" stroke="#000000" stroke-opacity="1" stroke-width="3.2"/>
<path clip-path="url(#clip882)" d="M2291.82 979.979 L2290.29 973.679 L2284.75 977.049 L2288.12 971.509 L2281.82 969.979 L2288.12 968.449 L2284.75 962.909 L2290.29 966.279 L2291.82 959.979 L2293.35 966.279 L2298.89 962.909 L2295.52 968.449 L2301.82 969.979 L2295.52 971.509 L2298.89 977.049 L2293.35 973.679 L2291.82 979.979 Z" fill="#00ff7f" fill-rule="evenodd" fill-opacity="1" stroke="#000000" stroke-opacity="1" stroke-width="3.2"/>
<polyline clip-path="url(#clip882)" style="stroke:#ff0000; stroke-linecap:butt; stroke-linejoin:round; stroke-width:7.6; stroke-opacity:1; fill:none" stroke-dasharray="30, 15, 4, 15" points="
  260.761,744.931 599.272,546.52 937.782,301.499 1276.29,289.465 1614.8,317.722 1953.31,336.526 2291.82,626.442 
  "/>
<path clip-path="url(#clip882)" d="M260.761 754.931 L252.101 749.931 L252.101 739.931 L260.761 734.931 L269.421 739.931 L269.421 749.931 Z" fill="#ff0000" fill-rule="evenodd" fill-opacity="1" stroke="#000000" stroke-opacity="1" stroke-width="3.2"/>
<path clip-path="url(#clip882)" d="M599.272 556.52 L590.612 551.52 L590.612 541.52 L599.272 536.52 L607.932 541.52 L607.932 551.52 Z" fill="#ff0000" fill-rule="evenodd" fill-opacity="1" stroke="#000000" stroke-opacity="1" stroke-width="3.2"/>
<path clip-path="url(#clip882)" d="M937.782 311.499 L929.122 306.499 L929.122 296.499 L937.782 291.499 L946.442 296.499 L946.442 306.499 Z" fill="#ff0000" fill-rule="evenodd" fill-opacity="1" stroke="#000000" stroke-opacity="1" stroke-width="3.2"/>
<path clip-path="url(#clip882)" d="M1276.29 299.465 L1267.63 294.465 L1267.63 284.465 L1276.29 279.465 L1284.95 284.465 L1284.95 294.465 Z" fill="#ff0000" fill-rule="evenodd" fill-opacity="1" stroke="#000000" stroke-opacity="1" stroke-width="3.2"/>
<path clip-path="url(#clip882)" d="M1614.8 327.722 L1606.14 322.722 L1606.14 312.722 L1614.8 307.722 L1623.46 312.722 L1623.46 322.722 Z" fill="#ff0000" fill-rule="evenodd" fill-opacity="1" stroke="#000000" stroke-opacity="1" stroke-width="3.2"/>
<path clip-path="url(#clip882)" d="M1953.31 346.526 L1944.65 341.526 L1944.65 331.526 L1953.31 326.526 L1961.97 331.526 L1961.97 341.526 Z" fill="#ff0000" fill-rule="evenodd" fill-opacity="1" stroke="#000000" stroke-opacity="1" stroke-width="3.2"/>
<path clip-path="url(#clip882)" d="M2291.82 636.442 L2283.16 631.442 L2283.16 621.442 L2291.82 616.442 L2300.48 621.442 L2300.48 631.442 Z" fill="#ff0000" fill-rule="evenodd" fill-opacity="1" stroke="#000000" stroke-opacity="1" stroke-width="3.2"/>
<polyline clip-path="url(#clip882)" style="stroke:#87ceeb; stroke-linecap:butt; stroke-linejoin:round; stroke-width:7.6; stroke-opacity:1; fill:none" stroke-dasharray="4, 8" points="
  260.761,744.931 599.272,608.293 937.782,289.695 1276.29,171.591 1614.8,158.812 1953.31,157.307 2291.82,384.394 
  "/>
<path clip-path="url(#clip882)" d="M250.761 734.931 L250.761 754.931 L270.761 754.931 L270.761 734.931 L250.761 734.931 Z" fill="#87ceeb" fill-rule="evenodd" fill-opacity="1" stroke="#000000" stroke-opacity="1" stroke-width="3.2"/>
<path clip-path="url(#clip882)" d="M589.272 598.293 L589.272 618.293 L609.272 618.293 L609.272 598.293 L589.272 598.293 Z" fill="#87ceeb" fill-rule="evenodd" fill-opacity="1" stroke="#000000" stroke-opacity="1" stroke-width="3.2"/>
<path clip-path="url(#clip882)" d="M927.782 279.695 L927.782 299.695 L947.782 299.695 L947.782 279.695 L927.782 279.695 Z" fill="#87ceeb" fill-rule="evenodd" fill-opacity="1" stroke="#000000" stroke-opacity="1" stroke-width="3.2"/>
<path clip-path="url(#clip882)" d="M1266.29 161.591 L1266.29 181.591 L1286.29 181.591 L1286.29 161.591 L1266.29 161.591 Z" fill="#87ceeb" fill-rule="evenodd" fill-opacity="1" stroke="#000000" stroke-opacity="1" stroke-width="3.2"/>
<path clip-path="url(#clip882)" d="M1604.8 148.812 L1604.8 168.812 L1624.8 168.812 L1624.8 148.812 L1604.8 148.812 Z" fill="#87ceeb" fill-rule="evenodd" fill-opacity="1" stroke="#000000" stroke-opacity="1" stroke-width="3.2"/>
<path clip-path="url(#clip882)" d="M1943.31 147.307 L1943.31 167.307 L1963.31 167.307 L1963.31 147.307 L1943.31 147.307 Z" fill="#87ceeb" fill-rule="evenodd" fill-opacity="1" stroke="#000000" stroke-opacity="1" stroke-width="3.2"/>
<path clip-path="url(#clip882)" d="M2281.82 374.394 L2281.82 394.394 L2301.82 394.394 L2301.82 374.394 L2281.82 374.394 Z" fill="#87ceeb" fill-rule="evenodd" fill-opacity="1" stroke="#000000" stroke-opacity="1" stroke-width="3.2"/>
<polyline clip-path="url(#clip882)" style="stroke:#008000; stroke-linecap:butt; stroke-linejoin:round; stroke-width:7.6; stroke-opacity:1; fill:none" stroke-dasharray="4, 8" points="
  260.761,744.931 599.272,466.938 937.782,240.296 1276.29,192.357 1614.8,509.781 1953.31,652.153 2291.82,897.598 
  "/>
<line clip-path="url(#clip882)" x1="260.761" y1="744.931" x2="250.761" y2="734.931" style="stroke:#008000; stroke-width:3.2; stroke-opacity:1"/>
<line clip-path="url(#clip882)" x1="260.761" y1="744.931" x2="250.761" y2="754.931" style="stroke:#008000; stroke-width:3.2; stroke-opacity:1"/>
<line clip-path="url(#clip882)" x1="260.761" y1="744.931" x2="270.761" y2="754.931" style="stroke:#008000; stroke-width:3.2; stroke-opacity:1"/>
<line clip-path="url(#clip882)" x1="260.761" y1="744.931" x2="270.761" y2="734.931" style="stroke:#008000; stroke-width:3.2; stroke-opacity:1"/>
<line clip-path="url(#clip882)" x1="599.272" y1="466.938" x2="589.272" y2="456.938" style="stroke:#008000; stroke-width:3.2; stroke-opacity:1"/>
<line clip-path="url(#clip882)" x1="599.272" y1="466.938" x2="589.272" y2="476.938" style="stroke:#008000; stroke-width:3.2; stroke-opacity:1"/>
<line clip-path="url(#clip882)" x1="599.272" y1="466.938" x2="609.272" y2="476.938" style="stroke:#008000; stroke-width:3.2; stroke-opacity:1"/>
<line clip-path="url(#clip882)" x1="599.272" y1="466.938" x2="609.272" y2="456.938" style="stroke:#008000; stroke-width:3.2; stroke-opacity:1"/>
<line clip-path="url(#clip882)" x1="937.782" y1="240.296" x2="927.782" y2="230.296" style="stroke:#008000; stroke-width:3.2; stroke-opacity:1"/>
<line clip-path="url(#clip882)" x1="937.782" y1="240.296" x2="927.782" y2="250.296" style="stroke:#008000; stroke-width:3.2; stroke-opacity:1"/>
<line clip-path="url(#clip882)" x1="937.782" y1="240.296" x2="947.782" y2="250.296" style="stroke:#008000; stroke-width:3.2; stroke-opacity:1"/>
<line clip-path="url(#clip882)" x1="937.782" y1="240.296" x2="947.782" y2="230.296" style="stroke:#008000; stroke-width:3.2; stroke-opacity:1"/>
<line clip-path="url(#clip882)" x1="1276.29" y1="192.357" x2="1266.29" y2="182.357" style="stroke:#008000; stroke-width:3.2; stroke-opacity:1"/>
<line clip-path="url(#clip882)" x1="1276.29" y1="192.357" x2="1266.29" y2="202.357" style="stroke:#008000; stroke-width:3.2; stroke-opacity:1"/>
<line clip-path="url(#clip882)" x1="1276.29" y1="192.357" x2="1286.29" y2="202.357" style="stroke:#008000; stroke-width:3.2; stroke-opacity:1"/>
<line clip-path="url(#clip882)" x1="1276.29" y1="192.357" x2="1286.29" y2="182.357" style="stroke:#008000; stroke-width:3.2; stroke-opacity:1"/>
<line clip-path="url(#clip882)" x1="1614.8" y1="509.781" x2="1604.8" y2="499.781" style="stroke:#008000; stroke-width:3.2; stroke-opacity:1"/>
<line clip-path="url(#clip882)" x1="1614.8" y1="509.781" x2="1604.8" y2="519.781" style="stroke:#008000; stroke-width:3.2; stroke-opacity:1"/>
<line clip-path="url(#clip882)" x1="1614.8" y1="509.781" x2="1624.8" y2="519.781" style="stroke:#008000; stroke-width:3.2; stroke-opacity:1"/>
<line clip-path="url(#clip882)" x1="1614.8" y1="509.781" x2="1624.8" y2="499.781" style="stroke:#008000; stroke-width:3.2; stroke-opacity:1"/>
<line clip-path="url(#clip882)" x1="1953.31" y1="652.153" x2="1943.31" y2="642.153" style="stroke:#008000; stroke-width:3.2; stroke-opacity:1"/>
<line clip-path="url(#clip882)" x1="1953.31" y1="652.153" x2="1943.31" y2="662.153" style="stroke:#008000; stroke-width:3.2; stroke-opacity:1"/>
<line clip-path="url(#clip882)" x1="1953.31" y1="652.153" x2="1963.31" y2="662.153" style="stroke:#008000; stroke-width:3.2; stroke-opacity:1"/>
<line clip-path="url(#clip882)" x1="1953.31" y1="652.153" x2="1963.31" y2="642.153" style="stroke:#008000; stroke-width:3.2; stroke-opacity:1"/>
<line clip-path="url(#clip882)" x1="2291.82" y1="897.598" x2="2281.82" y2="887.598" style="stroke:#008000; stroke-width:3.2; stroke-opacity:1"/>
<line clip-path="url(#clip882)" x1="2291.82" y1="897.598" x2="2281.82" y2="907.598" style="stroke:#008000; stroke-width:3.2; stroke-opacity:1"/>
<line clip-path="url(#clip882)" x1="2291.82" y1="897.598" x2="2301.82" y2="907.598" style="stroke:#008000; stroke-width:3.2; stroke-opacity:1"/>
<line clip-path="url(#clip882)" x1="2291.82" y1="897.598" x2="2301.82" y2="887.598" style="stroke:#008000; stroke-width:3.2; stroke-opacity:1"/>
<polyline clip-path="url(#clip882)" style="stroke:#ffa500; stroke-linecap:butt; stroke-linejoin:round; stroke-width:7.6; stroke-opacity:1; fill:none" stroke-dasharray="4, 8" points="
  260.761,744.931 599.272,458.407 937.782,218.348 1276.29,188.766 1614.8,483.178 1953.31,583.276 2291.82,838.106 
  "/>
<path clip-path="url(#clip882)" d="M260.761 734.931 L250.761 754.931 L270.761 754.931 L260.761 734.931 Z" fill="#ffa500" fill-rule="evenodd" fill-opacity="1" stroke="#000000" stroke-opacity="1" stroke-width="3.2"/>
<path clip-path="url(#clip882)" d="M599.272 448.407 L589.272 468.407 L609.272 468.407 L599.272 448.407 Z" fill="#ffa500" fill-rule="evenodd" fill-opacity="1" stroke="#000000" stroke-opacity="1" stroke-width="3.2"/>
<path clip-path="url(#clip882)" d="M937.782 208.348 L927.782 228.348 L947.782 228.348 L937.782 208.348 Z" fill="#ffa500" fill-rule="evenodd" fill-opacity="1" stroke="#000000" stroke-opacity="1" stroke-width="3.2"/>
<path clip-path="url(#clip882)" d="M1276.29 178.766 L1266.29 198.766 L1286.29 198.766 L1276.29 178.766 Z" fill="#ffa500" fill-rule="evenodd" fill-opacity="1" stroke="#000000" stroke-opacity="1" stroke-width="3.2"/>
<path clip-path="url(#clip882)" d="M1614.8 473.178 L1604.8 493.178 L1624.8 493.178 L1614.8 473.178 Z" fill="#ffa500" fill-rule="evenodd" fill-opacity="1" stroke="#000000" stroke-opacity="1" stroke-width="3.2"/>
<path clip-path="url(#clip882)" d="M1953.31 573.276 L1943.31 593.276 L1963.31 593.276 L1953.31 573.276 Z" fill="#ffa500" fill-rule="evenodd" fill-opacity="1" stroke="#000000" stroke-opacity="1" stroke-width="3.2"/>
<path clip-path="url(#clip882)" d="M2291.82 828.106 L2281.82 848.106 L2301.82 848.106 L2291.82 828.106 Z" fill="#ffa500" fill-rule="evenodd" fill-opacity="1" stroke="#000000" stroke-opacity="1" stroke-width="3.2"/>
<polyline clip-path="url(#clip882)" style="stroke:#deb887; stroke-linecap:butt; stroke-linejoin:round; stroke-width:7.6; stroke-opacity:1; fill:none" stroke-dasharray="4, 8" points="
  260.761,744.931 599.272,447.032 937.782,195.852 1276.29,101.54 1614.8,323.253 1953.31,390.186 2291.82,633.106 
  "/>
<path clip-path="url(#clip882)" d="M260.761 754.931 L257.931 747.761 L250.761 744.931 L257.931 742.101 L260.761 734.931 L263.591 742.101 L270.761 744.931 L263.591 747.761 L260.761 754.931 Z" fill="#deb887" fill-rule="evenodd" fill-opacity="1" stroke="#000000" stroke-opacity="1" stroke-width="3.2"/>
<path clip-path="url(#clip882)" d="M599.272 457.032 L596.442 449.862 L589.272 447.032 L596.442 444.202 L599.272 437.032 L602.102 444.202 L609.272 447.032 L602.102 449.862 L599.272 457.032 Z" fill="#deb887" fill-rule="evenodd" fill-opacity="1" stroke="#000000" stroke-opacity="1" stroke-width="3.2"/>
<path clip-path="url(#clip882)" d="M937.782 205.852 L934.952 198.682 L927.782 195.852 L934.952 193.022 L937.782 185.852 L940.612 193.022 L947.782 195.852 L940.612 198.682 L937.782 205.852 Z" fill="#deb887" fill-rule="evenodd" fill-opacity="1" stroke="#000000" stroke-opacity="1" stroke-width="3.2"/>
<path clip-path="url(#clip882)" d="M1276.29 111.54 L1273.46 104.37 L1266.29 101.54 L1273.46 98.7105 L1276.29 91.5405 L1279.12 98.7105 L1286.29 101.54 L1279.12 104.37 L1276.29 111.54 Z" fill="#deb887" fill-rule="evenodd" fill-opacity="1" stroke="#000000" stroke-opacity="1" stroke-width="3.2"/>
<path clip-path="url(#clip882)" d="M1614.8 333.253 L1611.97 326.083 L1604.8 323.253 L1611.97 320.423 L1614.8 313.253 L1617.63 320.423 L1624.8 323.253 L1617.63 326.083 L1614.8 333.253 Z" fill="#deb887" fill-rule="evenodd" fill-opacity="1" stroke="#000000" stroke-opacity="1" stroke-width="3.2"/>
<path clip-path="url(#clip882)" d="M1953.31 400.186 L1950.48 393.016 L1943.31 390.186 L1950.48 387.356 L1953.31 380.186 L1956.14 387.356 L1963.31 390.186 L1956.14 393.016 L1953.31 400.186 Z" fill="#deb887" fill-rule="evenodd" fill-opacity="1" stroke="#000000" stroke-opacity="1" stroke-width="3.2"/>
<path clip-path="url(#clip882)" d="M2291.82 643.106 L2288.99 635.936 L2281.82 633.106 L2288.99 630.276 L2291.82 623.106 L2294.65 630.276 L2301.82 633.106 L2294.65 635.936 L2291.82 643.106 Z" fill="#deb887" fill-rule="evenodd" fill-opacity="1" stroke="#000000" stroke-opacity="1" stroke-width="3.2"/>
<polyline clip-path="url(#clip882)" style="stroke:#000000; stroke-linecap:butt; stroke-linejoin:round; stroke-width:4; stroke-opacity:1; fill:none" stroke-dasharray="2, 4" points="
  -1953.1,744.931 4505.68,744.931 
  "/>
<path clip-path="url(#clip880)" d="
M223.751 1375.12 L973.39 1375.12 L973.39 964.418 L223.751 964.418  Z
  " fill="#ffffff" fill-rule="evenodd" fill-opacity="1"/>
<polyline clip-path="url(#clip880)" style="stroke:#000000; stroke-linecap:butt; stroke-linejoin:round; stroke-width:4; stroke-opacity:0; fill:none" points="
  223.751,1375.12 973.39,1375.12 973.39,964.418 223.751,964.418 223.751,1375.12 
  "/>
<polyline clip-path="url(#clip880)" style="stroke:#808080; stroke-linecap:butt; stroke-linejoin:round; stroke-width:3.5; stroke-opacity:1; fill:none" stroke-dasharray="14, 9" points="
  247.672,1010.05 391.2,1010.05 
  "/>
<path clip-path="url(#clip880)" d="M319.436 1032.45 L316.009 1018.34 L303.599 1025.89 L311.148 1013.48 L297.036 1010.05 L311.148 1006.62 L303.599 994.215 L316.009 1001.76 L319.436 987.652 L322.863 1001.76 L335.273 994.215 L327.724 1006.62 L341.836 1010.05 L327.724 1013.48 L335.273 1025.89 L322.863 1018.34 L319.436 1032.45 Z" fill="#808080" fill-rule="evenodd" fill-opacity="1" stroke="#000000" stroke-opacity="1" stroke-width="7.168"/>
<g clip-path="url(#clip880)">
<text style="fill:#000000; fill-opacity:1; font-family:Times New Roman,TimesNewRoman,Times,Baskerville,Georgia,serif; font-size:45px; text-anchor:start;" transform="rotate(0, 415.122, 1025.05)" x="415.122" y="1025.05">Non-Zero Funds Disbursed</text>
</g>
<polyline clip-path="url(#clip880)" style="stroke:#912cee; stroke-linecap:butt; stroke-linejoin:round; stroke-width:3.5; stroke-opacity:1; fill:none" stroke-dasharray="14, 7, 2, 7" points="
  247.672,1055.69 391.2,1055.69 
  "/>
<path clip-path="url(#clip880)" d="M297.036 1033.29 L297.036 1078.09 L341.836 1078.09 L341.836 1033.29 L297.036 1033.29 Z" fill="#912cee" fill-rule="evenodd" fill-opacity="1" stroke="#000000" stroke-opacity="1" stroke-width="7.168"/>
<g clip-path="url(#clip880)">
<text style="fill:#000000; fill-opacity:1; font-family:Times New Roman,TimesNewRoman,Times,Baskerville,Georgia,serif; font-size:45px; text-anchor:start;" transform="rotate(0, 415.122, 1070.69)" x="415.122" y="1070.69">Logged Inflation</text>
</g>
<polyline clip-path="url(#clip880)" style="stroke:#00ff7f; stroke-linecap:butt; stroke-linejoin:round; stroke-width:3.5; stroke-opacity:1; fill:none" stroke-dasharray="2, 4" points="
  247.672,1101.32 391.2,1101.32 
  "/>
<path clip-path="url(#clip880)" d="M319.436 1123.72 L316.009 1109.61 L303.599 1117.16 L311.148 1104.75 L297.036 1101.32 L311.148 1097.89 L303.599 1085.48 L316.009 1093.03 L319.436 1078.92 L322.863 1093.03 L335.273 1085.48 L327.724 1097.89 L341.836 1101.32 L327.724 1104.75 L335.273 1117.16 L322.863 1109.61 L319.436 1123.72 Z" fill="#00ff7f" fill-rule="evenodd" fill-opacity="1" stroke="#000000" stroke-opacity="1" stroke-width="7.168"/>
<g clip-path="url(#clip880)">
<text style="fill:#000000; fill-opacity:1; font-family:Times New Roman,TimesNewRoman,Times,Baskerville,Georgia,serif; font-size:45px; text-anchor:start;" transform="rotate(0, 415.122, 1116.32)" x="415.122" y="1116.32">CAB + Debt + Inflation</text>
</g>
<polyline clip-path="url(#clip880)" style="stroke:#ff0000; stroke-linecap:butt; stroke-linejoin:round; stroke-width:3.5; stroke-opacity:1; fill:none" stroke-dasharray="14, 7, 2, 7" points="
  247.672,1146.95 391.2,1146.95 
  "/>
<path clip-path="url(#clip880)" d="M319.436 1169.35 L300.038 1158.15 L300.038 1135.75 L319.436 1124.55 L338.835 1135.75 L338.835 1158.15 Z" fill="#ff0000" fill-rule="evenodd" fill-opacity="1" stroke="#000000" stroke-opacity="1" stroke-width="7.168"/>
<g clip-path="url(#clip880)">
<text style="fill:#000000; fill-opacity:1; font-family:Times New Roman,TimesNewRoman,Times,Baskerville,Georgia,serif; font-size:45px; text-anchor:start;" transform="rotate(0, 415.122, 1161.95)" x="415.122" y="1161.95">PWT</text>
</g>
<polyline clip-path="url(#clip880)" style="stroke:#87ceeb; stroke-linecap:butt; stroke-linejoin:round; stroke-width:3.5; stroke-opacity:1; fill:none" stroke-dasharray="2, 4" points="
  247.672,1192.59 391.2,1192.59 
  "/>
<path clip-path="url(#clip880)" d="M297.036 1170.19 L297.036 1214.99 L341.836 1214.99 L341.836 1170.19 L297.036 1170.19 Z" fill="#87ceeb" fill-rule="evenodd" fill-opacity="1" stroke="#000000" stroke-opacity="1" stroke-width="7.168"/>
<g clip-path="url(#clip880)">
<text style="fill:#000000; fill-opacity:1; font-family:Times New Roman,TimesNewRoman,Times,Baskerville,Georgia,serif; font-size:45px; text-anchor:start;" transform="rotate(0, 415.122, 1207.59)" x="415.122" y="1207.59">+/-7</text>
</g>
<polyline clip-path="url(#clip880)" style="stroke:#008000; stroke-linecap:butt; stroke-linejoin:round; stroke-width:3.5; stroke-opacity:1; fill:none" stroke-dasharray="2, 4" points="
  247.672,1238.22 391.2,1238.22 
  "/>
<line clip-path="url(#clip880)" x1="319.436" y1="1238.22" x2="297.036" y2="1215.82" style="stroke:#008000; stroke-width:3.2; stroke-opacity:1"/>
<line clip-path="url(#clip880)" x1="319.436" y1="1238.22" x2="297.036" y2="1260.62" style="stroke:#008000; stroke-width:3.2; stroke-opacity:1"/>
<line clip-path="url(#clip880)" x1="319.436" y1="1238.22" x2="341.836" y2="1260.62" style="stroke:#008000; stroke-width:3.2; stroke-opacity:1"/>
<line clip-path="url(#clip880)" x1="319.436" y1="1238.22" x2="341.836" y2="1215.82" style="stroke:#008000; stroke-width:3.2; stroke-opacity:1"/>
<g clip-path="url(#clip880)">
<text style="fill:#000000; fill-opacity:1; font-family:Times New Roman,TimesNewRoman,Times,Baskerville,Georgia,serif; font-size:45px; text-anchor:start;" transform="rotate(0, 415.122, 1253.22)" x="415.122" y="1253.22">+/-11</text>
</g>
<polyline clip-path="url(#clip880)" style="stroke:#ffa500; stroke-linecap:butt; stroke-linejoin:round; stroke-width:3.5; stroke-opacity:1; fill:none" stroke-dasharray="2, 4" points="
  247.672,1283.86 391.2,1283.86 
  "/>
<path clip-path="url(#clip880)" d="M319.436 1261.46 L297.036 1306.26 L341.836 1306.26 L319.436 1261.46 Z" fill="#ffa500" fill-rule="evenodd" fill-opacity="1" stroke="#000000" stroke-opacity="1" stroke-width="7.168"/>
<g clip-path="url(#clip880)">
<text style="fill:#000000; fill-opacity:1; font-family:Times New Roman,TimesNewRoman,Times,Baskerville,Georgia,serif; font-size:45px; text-anchor:start;" transform="rotate(0, 415.122, 1298.86)" x="415.122" y="1298.86">+/-13</text>
</g>
<polyline clip-path="url(#clip880)" style="stroke:#deb887; stroke-linecap:butt; stroke-linejoin:round; stroke-width:3.5; stroke-opacity:1; fill:none" stroke-dasharray="2, 4" points="
  247.672,1329.49 391.2,1329.49 
  "/>
<path clip-path="url(#clip880)" d="M319.436 1351.89 L313.097 1335.83 L297.036 1329.49 L313.097 1323.15 L319.436 1307.09 L325.775 1323.15 L341.836 1329.49 L325.775 1335.83 L319.436 1351.89 Z" fill="#deb887" fill-rule="evenodd" fill-opacity="1" stroke="#000000" stroke-opacity="1" stroke-width="7.168"/>
<g clip-path="url(#clip880)">
<text style="fill:#000000; fill-opacity:1; font-family:Times New Roman,TimesNewRoman,Times,Baskerville,Georgia,serif; font-size:45px; text-anchor:start;" transform="rotate(0, 415.122, 1344.49)" x="415.122" y="1344.49">+/-15</text>
</g>
</svg>
