<?xml version="1.0" encoding="utf-8"?>
<svg xmlns="http://www.w3.org/2000/svg" xmlns:xlink="http://www.w3.org/1999/xlink" width="600" height="400" viewBox="0 0 2400 1600">
<defs>
  <clipPath id="clip830">
    <rect x="0" y="0" width="2400" height="1600"/>
  </clipPath>
</defs>
<path clip-path="url(#clip830)" d="
M0 1600 L2400 1600 L2400 0 L0 0  Z
  " fill="#ffffff" fill-rule="evenodd" fill-opacity="1"/>
<defs>
  <clipPath id="clip831">
    <rect x="480" y="0" width="1681" height="1600"/>
  </clipPath>
</defs>
<path clip-path="url(#clip830)" d="
M199.829 1422.68 L2352.76 1422.68 L2352.76 47.2441 L199.829 47.2441  Z
  " fill="#ffffff" fill-rule="evenodd" fill-opacity="1"/>
<defs>
  <clipPath id="clip832">
    <rect x="199" y="47" width="2154" height="1376"/>
  </clipPath>
</defs>
<polyline clip-path="url(#clip830)" style="stroke:#000000; stroke-linecap:butt; stroke-linejoin:round; stroke-width:4; stroke-opacity:1; fill:none" points="
  199.829,1422.68 2352.76,1422.68 
  "/>
<polyline clip-path="url(#clip830)" style="stroke:#000000; stroke-linecap:butt; stroke-linejoin:round; stroke-width:4; stroke-opacity:1; fill:none" points="
  260.761,1422.68 260.761,1403.79 
  "/>
<polyline clip-path="url(#clip830)" style="stroke:#000000; stroke-linecap:butt; stroke-linejoin:round; stroke-width:4; stroke-opacity:1; fill:none" points="
  599.272,1422.68 599.272,1403.79 
  "/>
<polyline clip-path="url(#clip830)" style="stroke:#000000; stroke-linecap:butt; stroke-linejoin:round; stroke-width:4; stroke-opacity:1; fill:none" points="
  937.782,1422.68 937.782,1403.79 
  "/>
<polyline clip-path="url(#clip830)" style="stroke:#000000; stroke-linecap:butt; stroke-linejoin:round; stroke-width:4; stroke-opacity:1; fill:none" points="
  1276.29,1422.68 1276.29,1403.79 
  "/>
<polyline clip-path="url(#clip830)" style="stroke:#000000; stroke-linecap:butt; stroke-linejoin:round; stroke-width:4; stroke-opacity:1; fill:none" points="
  1614.8,1422.68 1614.8,1403.79 
  "/>
<polyline clip-path="url(#clip830)" style="stroke:#000000; stroke-linecap:butt; stroke-linejoin:round; stroke-width:4; stroke-opacity:1; fill:none" points="
  1953.31,1422.68 1953.31,1403.79 
  "/>
<polyline clip-path="url(#clip830)" style="stroke:#000000; stroke-linecap:butt; stroke-linejoin:round; stroke-width:4; stroke-opacity:1; fill:none" points="
  2291.82,1422.68 2291.82,1403.79 
  "/>
<g clip-path="url(#clip830)">
<text style="fill:#000000; fill-opacity:1; font-family:Times New Roman,TimesNewRoman,Times,Baskerville,Georgia,serif; font-size:53px; text-anchor:middle;" transform="rotate(0, 260.761, 1483.88)" x="260.761" y="1483.88">0</text>
</g>
<g clip-path="url(#clip830)">
<text style="fill:#000000; fill-opacity:1; font-family:Times New Roman,TimesNewRoman,Times,Baskerville,Georgia,serif; font-size:53px; text-anchor:middle;" transform="rotate(0, 599.272, 1483.88)" x="599.272" y="1483.88">1</text>
</g>
<g clip-path="url(#clip830)">
<text style="fill:#000000; fill-opacity:1; font-family:Times New Roman,TimesNewRoman,Times,Baskerville,Georgia,serif; font-size:53px; text-anchor:middle;" transform="rotate(0, 937.782, 1483.88)" x="937.782" y="1483.88">2</text>
</g>
<g clip-path="url(#clip830)">
<text style="fill:#000000; fill-opacity:1; font-family:Times New Roman,TimesNewRoman,Times,Baskerville,Georgia,serif; font-size:53px; text-anchor:middle;" transform="rotate(0, 1276.29, 1483.88)" x="1276.29" y="1483.88">3</text>
</g>
<g clip-path="url(#clip830)">
<text style="fill:#000000; fill-opacity:1; font-family:Times New Roman,TimesNewRoman,Times,Baskerville,Georgia,serif; font-size:53px; text-anchor:middle;" transform="rotate(0, 1614.8, 1483.88)" x="1614.8" y="1483.88">4</text>
</g>
<g clip-path="url(#clip830)">
<text style="fill:#000000; fill-opacity:1; font-family:Times New Roman,TimesNewRoman,Times,Baskerville,Georgia,serif; font-size:53px; text-anchor:middle;" transform="rotate(0, 1953.31, 1483.88)" x="1953.31" y="1483.88">5</text>
</g>
<g clip-path="url(#clip830)">
<text style="fill:#000000; fill-opacity:1; font-family:Times New Roman,TimesNewRoman,Times,Baskerville,Georgia,serif; font-size:53px; text-anchor:middle;" transform="rotate(0, 2291.82, 1483.88)" x="2291.82" y="1483.88">6</text>
</g>
<g clip-path="url(#clip830)">
<text style="fill:#000000; fill-opacity:1; font-family:Times New Roman,TimesNewRoman,Times,Baskerville,Georgia,serif; font-size:73px; text-anchor:middle;" transform="rotate(0, 1276.29, 1572.95)" x="1276.29" y="1572.95">Years From Crisis</text>
</g>
<polyline clip-path="url(#clip830)" style="stroke:#000000; stroke-linecap:butt; stroke-linejoin:round; stroke-width:4; stroke-opacity:1; fill:none" points="
  199.829,1422.68 199.829,47.2441 
  "/>
<polyline clip-path="url(#clip830)" style="stroke:#000000; stroke-linecap:butt; stroke-linejoin:round; stroke-width:4; stroke-opacity:1; fill:none" points="
  199.829,1422.68 218.727,1422.68 
  "/>
<polyline clip-path="url(#clip830)" style="stroke:#000000; stroke-linecap:butt; stroke-linejoin:round; stroke-width:4; stroke-opacity:1; fill:none" points="
  199.829,1226.19 218.727,1226.19 
  "/>
<polyline clip-path="url(#clip830)" style="stroke:#000000; stroke-linecap:butt; stroke-linejoin:round; stroke-width:4; stroke-opacity:1; fill:none" points="
  199.829,1029.7 218.727,1029.7 
  "/>
<polyline clip-path="url(#clip830)" style="stroke:#000000; stroke-linecap:butt; stroke-linejoin:round; stroke-width:4; stroke-opacity:1; fill:none" points="
  199.829,833.21 218.727,833.21 
  "/>
<polyline clip-path="url(#clip830)" style="stroke:#000000; stroke-linecap:butt; stroke-linejoin:round; stroke-width:4; stroke-opacity:1; fill:none" points="
  199.829,636.718 218.727,636.718 
  "/>
<polyline clip-path="url(#clip830)" style="stroke:#000000; stroke-linecap:butt; stroke-linejoin:round; stroke-width:4; stroke-opacity:1; fill:none" points="
  199.829,440.227 218.727,440.227 
  "/>
<polyline clip-path="url(#clip830)" style="stroke:#000000; stroke-linecap:butt; stroke-linejoin:round; stroke-width:4; stroke-opacity:1; fill:none" points="
  199.829,243.735 218.727,243.735 
  "/>
<polyline clip-path="url(#clip830)" style="stroke:#000000; stroke-linecap:butt; stroke-linejoin:round; stroke-width:4; stroke-opacity:1; fill:none" points="
  199.829,47.2441 218.727,47.2441 
  "/>
<g clip-path="url(#clip830)">
<text style="fill:#000000; fill-opacity:1; font-family:Times New Roman,TimesNewRoman,Times,Baskerville,Georgia,serif; font-size:53px; text-anchor:end;" transform="rotate(0, 163.829, 1440.18)" x="163.829" y="1440.18">−3</text>
</g>
<g clip-path="url(#clip830)">
<text style="fill:#000000; fill-opacity:1; font-family:Times New Roman,TimesNewRoman,Times,Baskerville,Georgia,serif; font-size:53px; text-anchor:end;" transform="rotate(0, 163.829, 1243.69)" x="163.829" y="1243.69">−2</text>
</g>
<g clip-path="url(#clip830)">
<text style="fill:#000000; fill-opacity:1; font-family:Times New Roman,TimesNewRoman,Times,Baskerville,Georgia,serif; font-size:53px; text-anchor:end;" transform="rotate(0, 163.829, 1047.2)" x="163.829" y="1047.2">−1</text>
</g>
<g clip-path="url(#clip830)">
<text style="fill:#000000; fill-opacity:1; font-family:Times New Roman,TimesNewRoman,Times,Baskerville,Georgia,serif; font-size:53px; text-anchor:end;" transform="rotate(0, 163.829, 850.71)" x="163.829" y="850.71">0</text>
</g>
<g clip-path="url(#clip830)">
<text style="fill:#000000; fill-opacity:1; font-family:Times New Roman,TimesNewRoman,Times,Baskerville,Georgia,serif; font-size:53px; text-anchor:end;" transform="rotate(0, 163.829, 654.218)" x="163.829" y="654.218">1</text>
</g>
<g clip-path="url(#clip830)">
<text style="fill:#000000; fill-opacity:1; font-family:Times New Roman,TimesNewRoman,Times,Baskerville,Georgia,serif; font-size:53px; text-anchor:end;" transform="rotate(0, 163.829, 457.727)" x="163.829" y="457.727">2</text>
</g>
<g clip-path="url(#clip830)">
<text style="fill:#000000; fill-opacity:1; font-family:Times New Roman,TimesNewRoman,Times,Baskerville,Georgia,serif; font-size:53px; text-anchor:end;" transform="rotate(0, 163.829, 261.235)" x="163.829" y="261.235">3</text>
</g>
<g clip-path="url(#clip830)">
<text style="fill:#000000; fill-opacity:1; font-family:Times New Roman,TimesNewRoman,Times,Baskerville,Georgia,serif; font-size:53px; text-anchor:end;" transform="rotate(0, 163.829, 64.7441)" x="163.829" y="64.7441">4</text>
</g>
<g clip-path="url(#clip830)">
<text style="fill:#000000; fill-opacity:1; font-family:Times New Roman,TimesNewRoman,Times,Baskerville,Georgia,serif; font-size:73px; text-anchor:middle;" transform="rotate(-90, 64.4366, 734.964)" x="64.4366" y="734.964">Increase in Output (%)</text>
</g>
<polyline clip-path="url(#clip832)" style="stroke:#0000ff; stroke-linecap:butt; stroke-linejoin:round; stroke-width:10; stroke-opacity:1; fill:none" points="
  260.761,833.21 599.272,627.907 937.782,330.388 1276.29,285.67 1614.8,530.764 1953.31,690.467 2291.82,932.117 
  "/>
<circle clip-path="url(#clip832)" cx="260.761" cy="833.21" r="10" fill="#0000ff" fill-rule="evenodd" fill-opacity="1" stroke="#000000" stroke-opacity="1" stroke-width="3.2"/>
<circle clip-path="url(#clip832)" cx="599.272" cy="627.907" r="10" fill="#0000ff" fill-rule="evenodd" fill-opacity="1" stroke="#000000" stroke-opacity="1" stroke-width="3.2"/>
<circle clip-path="url(#clip832)" cx="937.782" cy="330.388" r="10" fill="#0000ff" fill-rule="evenodd" fill-opacity="1" stroke="#000000" stroke-opacity="1" stroke-width="3.2"/>
<circle clip-path="url(#clip832)" cx="1276.29" cy="285.67" r="10" fill="#0000ff" fill-rule="evenodd" fill-opacity="1" stroke="#000000" stroke-opacity="1" stroke-width="3.2"/>
<circle clip-path="url(#clip832)" cx="1614.8" cy="530.764" r="10" fill="#0000ff" fill-rule="evenodd" fill-opacity="1" stroke="#000000" stroke-opacity="1" stroke-width="3.2"/>
<circle clip-path="url(#clip832)" cx="1953.31" cy="690.467" r="10" fill="#0000ff" fill-rule="evenodd" fill-opacity="1" stroke="#000000" stroke-opacity="1" stroke-width="3.2"/>
<circle clip-path="url(#clip832)" cx="2291.82" cy="932.117" r="10" fill="#0000ff" fill-rule="evenodd" fill-opacity="1" stroke="#000000" stroke-opacity="1" stroke-width="3.2"/>
<polyline clip-path="url(#clip832)" style="stroke:#800000; stroke-linecap:butt; stroke-linejoin:round; stroke-width:7.6; stroke-opacity:1; fill:none" stroke-dasharray="30, 19" points="
  260.761,833.21 599.272,672.544 937.782,343.146 1276.29,65.0508 1614.8,335.596 1953.31,362.907 2291.82,583.988 
  "/>
<path clip-path="url(#clip832)" d="M260.761 843.21 L252.101 838.21 L252.101 828.21 L260.761 823.21 L269.421 828.21 L269.421 838.21 Z" fill="#800000" fill-rule="evenodd" fill-opacity="1" stroke="#000000" stroke-opacity="1" stroke-width="3.2"/>
<path clip-path="url(#clip832)" d="M599.272 682.544 L590.612 677.544 L590.612 667.544 L599.272 662.544 L607.932 667.544 L607.932 677.544 Z" fill="#800000" fill-rule="evenodd" fill-opacity="1" stroke="#000000" stroke-opacity="1" stroke-width="3.2"/>
<path clip-path="url(#clip832)" d="M937.782 353.146 L929.122 348.146 L929.122 338.146 L937.782 333.146 L946.442 338.146 L946.442 348.146 Z" fill="#800000" fill-rule="evenodd" fill-opacity="1" stroke="#000000" stroke-opacity="1" stroke-width="3.2"/>
<path clip-path="url(#clip832)" d="M1276.29 75.0508 L1267.63 70.0508 L1267.63 60.0508 L1276.29 55.0508 L1284.95 60.0508 L1284.95 70.0508 Z" fill="#800000" fill-rule="evenodd" fill-opacity="1" stroke="#000000" stroke-opacity="1" stroke-width="3.2"/>
<path clip-path="url(#clip832)" d="M1614.8 345.596 L1606.14 340.596 L1606.14 330.596 L1614.8 325.596 L1623.46 330.596 L1623.46 340.596 Z" fill="#800000" fill-rule="evenodd" fill-opacity="1" stroke="#000000" stroke-opacity="1" stroke-width="3.2"/>
<path clip-path="url(#clip832)" d="M1953.31 372.907 L1944.65 367.907 L1944.65 357.907 L1953.31 352.907 L1961.97 357.907 L1961.97 367.907 Z" fill="#800000" fill-rule="evenodd" fill-opacity="1" stroke="#000000" stroke-opacity="1" stroke-width="3.2"/>
<path clip-path="url(#clip832)" d="M2291.82 593.988 L2283.16 588.988 L2283.16 578.988 L2291.82 573.988 L2300.48 578.988 L2300.48 588.988 Z" fill="#800000" fill-rule="evenodd" fill-opacity="1" stroke="#000000" stroke-opacity="1" stroke-width="3.2"/>
<polyline clip-path="url(#clip832)" style="stroke:#912cee; stroke-linecap:butt; stroke-linejoin:round; stroke-width:7.6; stroke-opacity:1; fill:none" stroke-dasharray="30, 15, 4, 15" points="
  260.761,833.21 599.272,662.619 937.782,286.847 1276.29,463.517 1614.8,741.46 1953.31,1074.05 2291.82,1296.03 
  "/>
<path clip-path="url(#clip832)" d="M250.761 823.21 L250.761 843.21 L270.761 843.21 L270.761 823.21 L250.761 823.21 Z" fill="#912cee" fill-rule="evenodd" fill-opacity="1" stroke="#000000" stroke-opacity="1" stroke-width="3.2"/>
<path clip-path="url(#clip832)" d="M589.272 652.619 L589.272 672.619 L609.272 672.619 L609.272 652.619 L589.272 652.619 Z" fill="#912cee" fill-rule="evenodd" fill-opacity="1" stroke="#000000" stroke-opacity="1" stroke-width="3.2"/>
<path clip-path="url(#clip832)" d="M927.782 276.847 L927.782 296.847 L947.782 296.847 L947.782 276.847 L927.782 276.847 Z" fill="#912cee" fill-rule="evenodd" fill-opacity="1" stroke="#000000" stroke-opacity="1" stroke-width="3.2"/>
<path clip-path="url(#clip832)" d="M1266.29 453.517 L1266.29 473.517 L1286.29 473.517 L1286.29 453.517 L1266.29 453.517 Z" fill="#912cee" fill-rule="evenodd" fill-opacity="1" stroke="#000000" stroke-opacity="1" stroke-width="3.2"/>
<path clip-path="url(#clip832)" d="M1604.8 731.46 L1604.8 751.46 L1624.8 751.46 L1624.8 731.46 L1604.8 731.46 Z" fill="#912cee" fill-rule="evenodd" fill-opacity="1" stroke="#000000" stroke-opacity="1" stroke-width="3.2"/>
<path clip-path="url(#clip832)" d="M1943.31 1064.05 L1943.31 1084.05 L1963.31 1084.05 L1963.31 1064.05 L1943.31 1064.05 Z" fill="#912cee" fill-rule="evenodd" fill-opacity="1" stroke="#000000" stroke-opacity="1" stroke-width="3.2"/>
<path clip-path="url(#clip832)" d="M2281.82 1286.03 L2281.82 1306.03 L2301.82 1306.03 L2301.82 1286.03 L2281.82 1286.03 Z" fill="#912cee" fill-rule="evenodd" fill-opacity="1" stroke="#000000" stroke-opacity="1" stroke-width="3.2"/>
<polyline clip-path="url(#clip832)" style="stroke:#ff0000; stroke-linecap:butt; stroke-linejoin:round; stroke-width:7.6; stroke-opacity:1; fill:none" stroke-dasharray="4, 8" points="
  260.761,833.21 599.272,623.349 937.782,203.019 1276.29,78.9947 1614.8,418.83 1953.31,558.094 2291.82,762.675 
  "/>
<line clip-path="url(#clip832)" x1="260.761" y1="833.21" x2="250.761" y2="823.21" style="stroke:#ff0000; stroke-width:3.2; stroke-opacity:1"/>
<line clip-path="url(#clip832)" x1="260.761" y1="833.21" x2="250.761" y2="843.21" style="stroke:#ff0000; stroke-width:3.2; stroke-opacity:1"/>
<line clip-path="url(#clip832)" x1="260.761" y1="833.21" x2="270.761" y2="843.21" style="stroke:#ff0000; stroke-width:3.2; stroke-opacity:1"/>
<line clip-path="url(#clip832)" x1="260.761" y1="833.21" x2="270.761" y2="823.21" style="stroke:#ff0000; stroke-width:3.2; stroke-opacity:1"/>
<line clip-path="url(#clip832)" x1="599.272" y1="623.349" x2="589.272" y2="613.349" style="stroke:#ff0000; stroke-width:3.2; stroke-opacity:1"/>
<line clip-path="url(#clip832)" x1="599.272" y1="623.349" x2="589.272" y2="633.349" style="stroke:#ff0000; stroke-width:3.2; stroke-opacity:1"/>
<line clip-path="url(#clip832)" x1="599.272" y1="623.349" x2="609.272" y2="633.349" style="stroke:#ff0000; stroke-width:3.2; stroke-opacity:1"/>
<line clip-path="url(#clip832)" x1="599.272" y1="623.349" x2="609.272" y2="613.349" style="stroke:#ff0000; stroke-width:3.2; stroke-opacity:1"/>
<line clip-path="url(#clip832)" x1="937.782" y1="203.019" x2="927.782" y2="193.019" style="stroke:#ff0000; stroke-width:3.2; stroke-opacity:1"/>
<line clip-path="url(#clip832)" x1="937.782" y1="203.019" x2="927.782" y2="213.019" style="stroke:#ff0000; stroke-width:3.2; stroke-opacity:1"/>
<line clip-path="url(#clip832)" x1="937.782" y1="203.019" x2="947.782" y2="213.019" style="stroke:#ff0000; stroke-width:3.2; stroke-opacity:1"/>
<line clip-path="url(#clip832)" x1="937.782" y1="203.019" x2="947.782" y2="193.019" style="stroke:#ff0000; stroke-width:3.2; stroke-opacity:1"/>
<line clip-path="url(#clip832)" x1="1276.29" y1="78.9947" x2="1266.29" y2="68.9947" style="stroke:#ff0000; stroke-width:3.2; stroke-opacity:1"/>
<line clip-path="url(#clip832)" x1="1276.29" y1="78.9947" x2="1266.29" y2="88.9947" style="stroke:#ff0000; stroke-width:3.2; stroke-opacity:1"/>
<line clip-path="url(#clip832)" x1="1276.29" y1="78.9947" x2="1286.29" y2="88.9947" style="stroke:#ff0000; stroke-width:3.2; stroke-opacity:1"/>
<line clip-path="url(#clip832)" x1="1276.29" y1="78.9947" x2="1286.29" y2="68.9947" style="stroke:#ff0000; stroke-width:3.2; stroke-opacity:1"/>
<line clip-path="url(#clip832)" x1="1614.8" y1="418.83" x2="1604.8" y2="408.83" style="stroke:#ff0000; stroke-width:3.2; stroke-opacity:1"/>
<line clip-path="url(#clip832)" x1="1614.8" y1="418.83" x2="1604.8" y2="428.83" style="stroke:#ff0000; stroke-width:3.2; stroke-opacity:1"/>
<line clip-path="url(#clip832)" x1="1614.8" y1="418.83" x2="1624.8" y2="428.83" style="stroke:#ff0000; stroke-width:3.2; stroke-opacity:1"/>
<line clip-path="url(#clip832)" x1="1614.8" y1="418.83" x2="1624.8" y2="408.83" style="stroke:#ff0000; stroke-width:3.2; stroke-opacity:1"/>
<line clip-path="url(#clip832)" x1="1953.31" y1="558.094" x2="1943.31" y2="548.094" style="stroke:#ff0000; stroke-width:3.2; stroke-opacity:1"/>
<line clip-path="url(#clip832)" x1="1953.31" y1="558.094" x2="1943.31" y2="568.094" style="stroke:#ff0000; stroke-width:3.2; stroke-opacity:1"/>
<line clip-path="url(#clip832)" x1="1953.31" y1="558.094" x2="1963.31" y2="568.094" style="stroke:#ff0000; stroke-width:3.2; stroke-opacity:1"/>
<line clip-path="url(#clip832)" x1="1953.31" y1="558.094" x2="1963.31" y2="548.094" style="stroke:#ff0000; stroke-width:3.2; stroke-opacity:1"/>
<line clip-path="url(#clip832)" x1="2291.82" y1="762.675" x2="2281.82" y2="752.675" style="stroke:#ff0000; stroke-width:3.2; stroke-opacity:1"/>
<line clip-path="url(#clip832)" x1="2291.82" y1="762.675" x2="2281.82" y2="772.675" style="stroke:#ff0000; stroke-width:3.2; stroke-opacity:1"/>
<line clip-path="url(#clip832)" x1="2291.82" y1="762.675" x2="2301.82" y2="772.675" style="stroke:#ff0000; stroke-width:3.2; stroke-opacity:1"/>
<line clip-path="url(#clip832)" x1="2291.82" y1="762.675" x2="2301.82" y2="752.675" style="stroke:#ff0000; stroke-width:3.2; stroke-opacity:1"/>
<polyline clip-path="url(#clip832)" style="stroke:#87ceeb; stroke-linecap:butt; stroke-linejoin:round; stroke-width:7.6; stroke-opacity:1; fill:none" stroke-dasharray="30, 19" points="
  260.761,833.21 599.272,698.523 937.782,384.477 1276.29,268.06 1614.8,255.464 1953.31,253.98 2291.82,477.824 
  "/>
<path clip-path="url(#clip832)" d="M260.761 823.21 L250.761 843.21 L270.761 843.21 L260.761 823.21 Z" fill="#87ceeb" fill-rule="evenodd" fill-opacity="1" stroke="#000000" stroke-opacity="1" stroke-width="3.2"/>
<path clip-path="url(#clip832)" d="M599.272 688.523 L589.272 708.523 L609.272 708.523 L599.272 688.523 Z" fill="#87ceeb" fill-rule="evenodd" fill-opacity="1" stroke="#000000" stroke-opacity="1" stroke-width="3.2"/>
<path clip-path="url(#clip832)" d="M937.782 374.477 L927.782 394.477 L947.782 394.477 L937.782 374.477 Z" fill="#87ceeb" fill-rule="evenodd" fill-opacity="1" stroke="#000000" stroke-opacity="1" stroke-width="3.2"/>
<path clip-path="url(#clip832)" d="M1276.29 258.06 L1266.29 278.06 L1286.29 278.06 L1276.29 258.06 Z" fill="#87ceeb" fill-rule="evenodd" fill-opacity="1" stroke="#000000" stroke-opacity="1" stroke-width="3.2"/>
<path clip-path="url(#clip832)" d="M1614.8 245.464 L1604.8 265.464 L1624.8 265.464 L1614.8 245.464 Z" fill="#87ceeb" fill-rule="evenodd" fill-opacity="1" stroke="#000000" stroke-opacity="1" stroke-width="3.2"/>
<path clip-path="url(#clip832)" d="M1953.31 243.98 L1943.31 263.98 L1963.31 263.98 L1953.31 243.98 Z" fill="#87ceeb" fill-rule="evenodd" fill-opacity="1" stroke="#000000" stroke-opacity="1" stroke-width="3.2"/>
<path clip-path="url(#clip832)" d="M2291.82 467.824 L2281.82 487.824 L2301.82 487.824 L2291.82 467.824 Z" fill="#87ceeb" fill-rule="evenodd" fill-opacity="1" stroke="#000000" stroke-opacity="1" stroke-width="3.2"/>
<polyline clip-path="url(#clip832)" style="stroke:#008000; stroke-linecap:butt; stroke-linejoin:round; stroke-width:7.6; stroke-opacity:1; fill:none" stroke-dasharray="30, 15, 4, 15, 4, 15" points="
  260.761,833.21 599.272,559.188 937.782,335.783 1276.29,288.53 1614.8,601.419 1953.31,741.757 2291.82,983.696 
  "/>
<path clip-path="url(#clip832)" d="M270.761 823.21 L250.761 823.21 L260.761 843.21 L270.761 823.21 Z" fill="#008000" fill-rule="evenodd" fill-opacity="1" stroke="#000000" stroke-opacity="1" stroke-width="3.2"/>
<path clip-path="url(#clip832)" d="M609.272 549.188 L589.272 549.188 L599.272 569.188 L609.272 549.188 Z" fill="#008000" fill-rule="evenodd" fill-opacity="1" stroke="#000000" stroke-opacity="1" stroke-width="3.2"/>
<path clip-path="url(#clip832)" d="M947.782 325.783 L927.782 325.783 L937.782 345.783 L947.782 325.783 Z" fill="#008000" fill-rule="evenodd" fill-opacity="1" stroke="#000000" stroke-opacity="1" stroke-width="3.2"/>
<path clip-path="url(#clip832)" d="M1286.29 278.53 L1266.29 278.53 L1276.29 298.53 L1286.29 278.53 Z" fill="#008000" fill-rule="evenodd" fill-opacity="1" stroke="#000000" stroke-opacity="1" stroke-width="3.2"/>
<path clip-path="url(#clip832)" d="M1624.8 591.419 L1604.8 591.419 L1614.8 611.419 L1624.8 591.419 Z" fill="#008000" fill-rule="evenodd" fill-opacity="1" stroke="#000000" stroke-opacity="1" stroke-width="3.2"/>
<path clip-path="url(#clip832)" d="M1963.31 731.757 L1943.31 731.757 L1953.31 751.757 L1963.31 731.757 Z" fill="#008000" fill-rule="evenodd" fill-opacity="1" stroke="#000000" stroke-opacity="1" stroke-width="3.2"/>
<path clip-path="url(#clip832)" d="M2301.82 973.696 L2281.82 973.696 L2291.82 993.696 L2301.82 973.696 Z" fill="#008000" fill-rule="evenodd" fill-opacity="1" stroke="#000000" stroke-opacity="1" stroke-width="3.2"/>
<polyline clip-path="url(#clip832)" style="stroke:#00ff7f; stroke-linecap:butt; stroke-linejoin:round; stroke-width:7.6; stroke-opacity:1; fill:none" stroke-dasharray="4, 8" points="
  260.761,833.21 599.272,732.168 937.782,493.597 1276.29,314.04 1614.8,533.745 1953.31,571.968 2291.82,763.707 
  "/>
<path clip-path="url(#clip832)" d="M260.761 843.21 L257.931 836.04 L250.761 833.21 L257.931 830.38 L260.761 823.21 L263.591 830.38 L270.761 833.21 L263.591 836.04 L260.761 843.21 Z" fill="#00ff7f" fill-rule="evenodd" fill-opacity="1" stroke="#000000" stroke-opacity="1" stroke-width="3.2"/>
<path clip-path="url(#clip832)" d="M599.272 742.168 L596.442 734.998 L589.272 732.168 L596.442 729.338 L599.272 722.168 L602.102 729.338 L609.272 732.168 L602.102 734.998 L599.272 742.168 Z" fill="#00ff7f" fill-rule="evenodd" fill-opacity="1" stroke="#000000" stroke-opacity="1" stroke-width="3.2"/>
<path clip-path="url(#clip832)" d="M937.782 503.597 L934.952 496.427 L927.782 493.597 L934.952 490.767 L937.782 483.597 L940.612 490.767 L947.782 493.597 L940.612 496.427 L937.782 503.597 Z" fill="#00ff7f" fill-rule="evenodd" fill-opacity="1" stroke="#000000" stroke-opacity="1" stroke-width="3.2"/>
<path clip-path="url(#clip832)" d="M1276.29 324.04 L1273.46 316.87 L1266.29 314.04 L1273.46 311.21 L1276.29 304.04 L1279.12 311.21 L1286.29 314.04 L1279.12 316.87 L1276.29 324.04 Z" fill="#00ff7f" fill-rule="evenodd" fill-opacity="1" stroke="#000000" stroke-opacity="1" stroke-width="3.2"/>
<path clip-path="url(#clip832)" d="M1614.8 543.745 L1611.97 536.575 L1604.8 533.745 L1611.97 530.915 L1614.8 523.745 L1617.63 530.915 L1624.8 533.745 L1617.63 536.575 L1614.8 543.745 Z" fill="#00ff7f" fill-rule="evenodd" fill-opacity="1" stroke="#000000" stroke-opacity="1" stroke-width="3.2"/>
<path clip-path="url(#clip832)" d="M1953.31 581.968 L1950.48 574.798 L1943.31 571.968 L1950.48 569.138 L1953.31 561.968 L1956.14 569.138 L1963.31 571.968 L1956.14 574.798 L1953.31 581.968 Z" fill="#00ff7f" fill-rule="evenodd" fill-opacity="1" stroke="#000000" stroke-opacity="1" stroke-width="3.2"/>
<path clip-path="url(#clip832)" d="M2291.82 773.707 L2288.99 766.537 L2281.82 763.707 L2288.99 760.877 L2291.82 753.707 L2294.65 760.877 L2301.82 763.707 L2294.65 766.537 L2291.82 773.707 Z" fill="#00ff7f" fill-rule="evenodd" fill-opacity="1" stroke="#000000" stroke-opacity="1" stroke-width="3.2"/>
<polyline clip-path="url(#clip832)" style="stroke:#ffa500; stroke-linecap:butt; stroke-linejoin:round; stroke-width:7.6; stroke-opacity:1; fill:none" stroke-dasharray="30, 15, 4, 15" points="
  260.761,833.21 599.272,676.324 937.782,326.685 1276.29,314.802 1614.8,647.201 1953.31,836.855 2291.82,1131.94 
  "/>
<line clip-path="url(#clip832)" x1="260.761" y1="833.21" x2="260.761" y2="823.21" style="stroke:#ffa500; stroke-width:3.2; stroke-opacity:1"/>
<line clip-path="url(#clip832)" x1="260.761" y1="833.21" x2="250.761" y2="833.21" style="stroke:#ffa500; stroke-width:3.2; stroke-opacity:1"/>
<line clip-path="url(#clip832)" x1="260.761" y1="833.21" x2="260.761" y2="843.21" style="stroke:#ffa500; stroke-width:3.2; stroke-opacity:1"/>
<line clip-path="url(#clip832)" x1="260.761" y1="833.21" x2="270.761" y2="833.21" style="stroke:#ffa500; stroke-width:3.2; stroke-opacity:1"/>
<line clip-path="url(#clip832)" x1="599.272" y1="676.324" x2="599.272" y2="666.324" style="stroke:#ffa500; stroke-width:3.2; stroke-opacity:1"/>
<line clip-path="url(#clip832)" x1="599.272" y1="676.324" x2="589.272" y2="676.324" style="stroke:#ffa500; stroke-width:3.2; stroke-opacity:1"/>
<line clip-path="url(#clip832)" x1="599.272" y1="676.324" x2="599.272" y2="686.324" style="stroke:#ffa500; stroke-width:3.2; stroke-opacity:1"/>
<line clip-path="url(#clip832)" x1="599.272" y1="676.324" x2="609.272" y2="676.324" style="stroke:#ffa500; stroke-width:3.2; stroke-opacity:1"/>
<line clip-path="url(#clip832)" x1="937.782" y1="326.685" x2="937.782" y2="316.685" style="stroke:#ffa500; stroke-width:3.2; stroke-opacity:1"/>
<line clip-path="url(#clip832)" x1="937.782" y1="326.685" x2="927.782" y2="326.685" style="stroke:#ffa500; stroke-width:3.2; stroke-opacity:1"/>
<line clip-path="url(#clip832)" x1="937.782" y1="326.685" x2="937.782" y2="336.685" style="stroke:#ffa500; stroke-width:3.2; stroke-opacity:1"/>
<line clip-path="url(#clip832)" x1="937.782" y1="326.685" x2="947.782" y2="326.685" style="stroke:#ffa500; stroke-width:3.2; stroke-opacity:1"/>
<line clip-path="url(#clip832)" x1="1276.29" y1="314.802" x2="1276.29" y2="304.802" style="stroke:#ffa500; stroke-width:3.2; stroke-opacity:1"/>
<line clip-path="url(#clip832)" x1="1276.29" y1="314.802" x2="1266.29" y2="314.802" style="stroke:#ffa500; stroke-width:3.2; stroke-opacity:1"/>
<line clip-path="url(#clip832)" x1="1276.29" y1="314.802" x2="1276.29" y2="324.802" style="stroke:#ffa500; stroke-width:3.2; stroke-opacity:1"/>
<line clip-path="url(#clip832)" x1="1276.29" y1="314.802" x2="1286.29" y2="314.802" style="stroke:#ffa500; stroke-width:3.2; stroke-opacity:1"/>
<line clip-path="url(#clip832)" x1="1614.8" y1="647.201" x2="1614.8" y2="637.201" style="stroke:#ffa500; stroke-width:3.2; stroke-opacity:1"/>
<line clip-path="url(#clip832)" x1="1614.8" y1="647.201" x2="1604.8" y2="647.201" style="stroke:#ffa500; stroke-width:3.2; stroke-opacity:1"/>
<line clip-path="url(#clip832)" x1="1614.8" y1="647.201" x2="1614.8" y2="657.201" style="stroke:#ffa500; stroke-width:3.2; stroke-opacity:1"/>
<line clip-path="url(#clip832)" x1="1614.8" y1="647.201" x2="1624.8" y2="647.201" style="stroke:#ffa500; stroke-width:3.2; stroke-opacity:1"/>
<line clip-path="url(#clip832)" x1="1953.31" y1="836.855" x2="1953.31" y2="826.855" style="stroke:#ffa500; stroke-width:3.2; stroke-opacity:1"/>
<line clip-path="url(#clip832)" x1="1953.31" y1="836.855" x2="1943.31" y2="836.855" style="stroke:#ffa500; stroke-width:3.2; stroke-opacity:1"/>
<line clip-path="url(#clip832)" x1="1953.31" y1="836.855" x2="1953.31" y2="846.855" style="stroke:#ffa500; stroke-width:3.2; stroke-opacity:1"/>
<line clip-path="url(#clip832)" x1="1953.31" y1="836.855" x2="1963.31" y2="836.855" style="stroke:#ffa500; stroke-width:3.2; stroke-opacity:1"/>
<line clip-path="url(#clip832)" x1="2291.82" y1="1131.94" x2="2291.82" y2="1121.94" style="stroke:#ffa500; stroke-width:3.2; stroke-opacity:1"/>
<line clip-path="url(#clip832)" x1="2291.82" y1="1131.94" x2="2281.82" y2="1131.94" style="stroke:#ffa500; stroke-width:3.2; stroke-opacity:1"/>
<line clip-path="url(#clip832)" x1="2291.82" y1="1131.94" x2="2291.82" y2="1141.94" style="stroke:#ffa500; stroke-width:3.2; stroke-opacity:1"/>
<line clip-path="url(#clip832)" x1="2291.82" y1="1131.94" x2="2301.82" y2="1131.94" style="stroke:#ffa500; stroke-width:3.2; stroke-opacity:1"/>
<polyline clip-path="url(#clip832)" style="stroke:#deb887; stroke-linecap:butt; stroke-linejoin:round; stroke-width:7.6; stroke-opacity:1; fill:none" stroke-dasharray="30, 15, 4, 15, 4, 15" points="
  260.761,833.21 599.272,615.475 937.782,295.912 1276.29,252.51 1614.8,452.631 1953.31,617.325 2291.82,889.22 
  "/>
<path clip-path="url(#clip832)" d="M260.761 823.21 L251.251 830.12 L254.881 841.3 L266.641 841.3 L270.271 830.12 Z" fill="#deb887" fill-rule="evenodd" fill-opacity="1" stroke="#000000" stroke-opacity="1" stroke-width="3.2"/>
<path clip-path="url(#clip832)" d="M599.272 605.475 L589.762 612.385 L593.392 623.565 L605.152 623.565 L608.782 612.385 Z" fill="#deb887" fill-rule="evenodd" fill-opacity="1" stroke="#000000" stroke-opacity="1" stroke-width="3.2"/>
<path clip-path="url(#clip832)" d="M937.782 285.912 L928.272 292.822 L931.902 304.002 L943.662 304.002 L947.292 292.822 Z" fill="#deb887" fill-rule="evenodd" fill-opacity="1" stroke="#000000" stroke-opacity="1" stroke-width="3.2"/>
<path clip-path="url(#clip832)" d="M1276.29 242.51 L1266.78 249.42 L1270.41 260.6 L1282.17 260.6 L1285.8 249.42 Z" fill="#deb887" fill-rule="evenodd" fill-opacity="1" stroke="#000000" stroke-opacity="1" stroke-width="3.2"/>
<path clip-path="url(#clip832)" d="M1614.8 442.631 L1605.29 449.541 L1608.92 460.721 L1620.68 460.721 L1624.31 449.541 Z" fill="#deb887" fill-rule="evenodd" fill-opacity="1" stroke="#000000" stroke-opacity="1" stroke-width="3.2"/>
<path clip-path="url(#clip832)" d="M1953.31 607.325 L1943.8 614.235 L1947.43 625.415 L1959.19 625.415 L1962.82 614.235 Z" fill="#deb887" fill-rule="evenodd" fill-opacity="1" stroke="#000000" stroke-opacity="1" stroke-width="3.2"/>
<path clip-path="url(#clip832)" d="M2291.82 879.22 L2282.31 886.13 L2285.94 897.31 L2297.7 897.31 L2301.33 886.13 Z" fill="#deb887" fill-rule="evenodd" fill-opacity="1" stroke="#000000" stroke-opacity="1" stroke-width="3.2"/>
<polyline clip-path="url(#clip832)" style="stroke:#808080; stroke-linecap:butt; stroke-linejoin:round; stroke-width:7.6; stroke-opacity:1; fill:none" stroke-dasharray="30, 19" points="
  260.761,833.21 599.272,588.239 937.782,322.771 1276.29,264.187 1614.8,376.942 1953.31,610.711 2291.82,932.104 
  "/>
<path clip-path="url(#clip832)" d="M260.761 843.21 L259.231 836.91 L253.691 840.28 L257.061 834.74 L250.761 833.21 L257.061 831.68 L253.691 826.14 L259.231 829.51 L260.761 823.21 L262.291 829.51 L267.831 826.14 L264.461 831.68 L270.761 833.21 L264.461 834.74 L267.831 840.28 L262.291 836.91 L260.761 843.21 Z" fill="#808080" fill-rule="evenodd" fill-opacity="1" stroke="#000000" stroke-opacity="1" stroke-width="3.2"/>
<path clip-path="url(#clip832)" d="M599.272 598.239 L597.742 591.939 L592.202 595.309 L595.572 589.769 L589.272 588.239 L595.572 586.709 L592.202 581.169 L597.742 584.539 L599.272 578.239 L600.802 584.539 L606.342 581.169 L602.972 586.709 L609.272 588.239 L602.972 589.769 L606.342 595.309 L600.802 591.939 L599.272 598.239 Z" fill="#808080" fill-rule="evenodd" fill-opacity="1" stroke="#000000" stroke-opacity="1" stroke-width="3.2"/>
<path clip-path="url(#clip832)" d="M937.782 332.771 L936.252 326.471 L930.712 329.841 L934.082 324.301 L927.782 322.771 L934.082 321.241 L930.712 315.701 L936.252 319.071 L937.782 312.771 L939.312 319.071 L944.852 315.701 L941.482 321.241 L947.782 322.771 L941.482 324.301 L944.852 329.841 L939.312 326.471 L937.782 332.771 Z" fill="#808080" fill-rule="evenodd" fill-opacity="1" stroke="#000000" stroke-opacity="1" stroke-width="3.2"/>
<path clip-path="url(#clip832)" d="M1276.29 274.187 L1274.76 267.887 L1269.22 271.257 L1272.59 265.717 L1266.29 264.187 L1272.59 262.657 L1269.22 257.117 L1274.76 260.487 L1276.29 254.187 L1277.82 260.487 L1283.36 257.117 L1279.99 262.657 L1286.29 264.187 L1279.99 265.717 L1283.36 271.257 L1277.82 267.887 L1276.29 274.187 Z" fill="#808080" fill-rule="evenodd" fill-opacity="1" stroke="#000000" stroke-opacity="1" stroke-width="3.2"/>
<path clip-path="url(#clip832)" d="M1614.8 386.942 L1613.27 380.642 L1607.73 384.012 L1611.1 378.472 L1604.8 376.942 L1611.1 375.412 L1607.73 369.872 L1613.27 373.242 L1614.8 366.942 L1616.33 373.242 L1621.87 369.872 L1618.5 375.412 L1624.8 376.942 L1618.5 378.472 L1621.87 384.012 L1616.33 380.642 L1614.8 386.942 Z" fill="#808080" fill-rule="evenodd" fill-opacity="1" stroke="#000000" stroke-opacity="1" stroke-width="3.2"/>
<path clip-path="url(#clip832)" d="M1953.31 620.711 L1951.78 614.411 L1946.24 617.781 L1949.61 612.241 L1943.31 610.711 L1949.61 609.181 L1946.24 603.641 L1951.78 607.011 L1953.31 600.711 L1954.84 607.011 L1960.38 603.641 L1957.01 609.181 L1963.31 610.711 L1957.01 612.241 L1960.38 617.781 L1954.84 614.411 L1953.31 620.711 Z" fill="#808080" fill-rule="evenodd" fill-opacity="1" stroke="#000000" stroke-opacity="1" stroke-width="3.2"/>
<path clip-path="url(#clip832)" d="M2291.82 942.104 L2290.29 935.804 L2284.75 939.174 L2288.12 933.634 L2281.82 932.104 L2288.12 930.574 L2284.75 925.034 L2290.29 928.404 L2291.82 922.104 L2293.35 928.404 L2298.89 925.034 L2295.52 930.574 L2301.82 932.104 L2295.52 933.634 L2298.89 939.174 L2293.35 935.804 L2291.82 942.104 Z" fill="#808080" fill-rule="evenodd" fill-opacity="1" stroke="#000000" stroke-opacity="1" stroke-width="3.2"/>
<polyline clip-path="url(#clip832)" style="stroke:#000000; stroke-linecap:butt; stroke-linejoin:round; stroke-width:4; stroke-opacity:1; fill:none" stroke-dasharray="2, 4" points="
  -1953.1,833.21 4505.68,833.21 
  "/>
<polyline clip-path="url(#clip832)" style="stroke:#000000; stroke-linecap:butt; stroke-linejoin:round; stroke-width:7.6; stroke-opacity:1; fill:none" stroke-dasharray="30, 15, 4, 15" points="
  260.761,833.21 599.272,577.436 937.782,332.105 1276.29,276.75 1614.8,363.645 1953.31,393.601 2291.82,540.995 
  "/>
<path clip-path="url(#clip832)" d="M260.761 843.21 L259.231 836.91 L253.691 840.28 L257.061 834.74 L250.761 833.21 L257.061 831.68 L253.691 826.14 L259.231 829.51 L260.761 823.21 L262.291 829.51 L267.831 826.14 L264.461 831.68 L270.761 833.21 L264.461 834.74 L267.831 840.28 L262.291 836.91 L260.761 843.21 Z" fill="#000000" fill-rule="evenodd" fill-opacity="1" stroke="none"/>
<path clip-path="url(#clip832)" d="M599.272 587.436 L597.742 581.136 L592.202 584.506 L595.572 578.966 L589.272 577.436 L595.572 575.906 L592.202 570.366 L597.742 573.736 L599.272 567.436 L600.802 573.736 L606.342 570.366 L602.972 575.906 L609.272 577.436 L602.972 578.966 L606.342 584.506 L600.802 581.136 L599.272 587.436 Z" fill="#000000" fill-rule="evenodd" fill-opacity="1" stroke="none"/>
<path clip-path="url(#clip832)" d="M937.782 342.105 L936.252 335.805 L930.712 339.175 L934.082 333.635 L927.782 332.105 L934.082 330.575 L930.712 325.035 L936.252 328.405 L937.782 322.105 L939.312 328.405 L944.852 325.035 L941.482 330.575 L947.782 332.105 L941.482 333.635 L944.852 339.175 L939.312 335.805 L937.782 342.105 Z" fill="#000000" fill-rule="evenodd" fill-opacity="1" stroke="none"/>
<path clip-path="url(#clip832)" d="M1276.29 286.75 L1274.76 280.45 L1269.22 283.82 L1272.59 278.28 L1266.29 276.75 L1272.59 275.22 L1269.22 269.68 L1274.76 273.05 L1276.29 266.75 L1277.82 273.05 L1283.36 269.68 L1279.99 275.22 L1286.29 276.75 L1279.99 278.28 L1283.36 283.82 L1277.82 280.45 L1276.29 286.75 Z" fill="#000000" fill-rule="evenodd" fill-opacity="1" stroke="none"/>
<path clip-path="url(#clip832)" d="M1614.8 373.645 L1613.27 367.345 L1607.73 370.715 L1611.1 365.175 L1604.8 363.645 L1611.1 362.115 L1607.73 356.575 L1613.27 359.945 L1614.8 353.645 L1616.33 359.945 L1621.87 356.575 L1618.5 362.115 L1624.8 363.645 L1618.5 365.175 L1621.87 370.715 L1616.33 367.345 L1614.8 373.645 Z" fill="#000000" fill-rule="evenodd" fill-opacity="1" stroke="none"/>
<path clip-path="url(#clip832)" d="M1953.31 403.601 L1951.78 397.301 L1946.24 400.671 L1949.61 395.131 L1943.31 393.601 L1949.61 392.071 L1946.24 386.531 L1951.78 389.901 L1953.31 383.601 L1954.84 389.901 L1960.38 386.531 L1957.01 392.071 L1963.31 393.601 L1957.01 395.131 L1960.38 400.671 L1954.84 397.301 L1953.31 403.601 Z" fill="#000000" fill-rule="evenodd" fill-opacity="1" stroke="none"/>
<path clip-path="url(#clip832)" d="M2291.82 550.995 L2290.29 544.695 L2284.75 548.065 L2288.12 542.525 L2281.82 540.995 L2288.12 539.465 L2284.75 533.925 L2290.29 537.295 L2291.82 530.995 L2293.35 537.295 L2298.89 533.925 L2295.52 539.465 L2301.82 540.995 L2295.52 542.525 L2298.89 548.065 L2293.35 544.695 L2291.82 550.995 Z" fill="#000000" fill-rule="evenodd" fill-opacity="1" stroke="none"/>
<path clip-path="url(#clip830)" d="
M223.751 1414.67 L809.504 1414.67 L809.504 840.986 L223.751 840.986  Z
  " fill="#000000" fill-rule="evenodd" fill-opacity="0"/>
<polyline clip-path="url(#clip830)" style="stroke:#000000; stroke-linecap:butt; stroke-linejoin:round; stroke-width:4; stroke-opacity:0; fill:none" points="
  223.751,1414.67 809.504,1414.67 809.504,840.986 223.751,840.986 223.751,1414.67 
  "/>
<polyline clip-path="url(#clip830)" style="stroke:#800000; stroke-linecap:butt; stroke-linejoin:round; stroke-width:4; stroke-opacity:1; fill:none" stroke-dasharray="16, 10" points="
  247.672,893.14 391.2,893.14 
  "/>
<path clip-path="url(#clip830)" d="M319.436 918.74 L297.267 905.94 L297.267 880.34 L319.436 867.54 L341.606 880.34 L341.606 905.94 Z" fill="#800000" fill-rule="evenodd" fill-opacity="1" stroke="#000000" stroke-opacity="1" stroke-width="8.192"/>
<g clip-path="url(#clip830)">
<text style="fill:#000000; fill-opacity:1; font-family:Times New Roman,TimesNewRoman,Times,Baskerville,Georgia,serif; font-size:53px; text-anchor:start;" transform="rotate(0, 415.122, 910.64)" x="415.122" y="910.64">+CAB</text>
</g>
<polyline clip-path="url(#clip830)" style="stroke:#912cee; stroke-linecap:butt; stroke-linejoin:round; stroke-width:4; stroke-opacity:1; fill:none" stroke-dasharray="16, 8, 2, 8" points="
  247.672,945.293 391.2,945.293 
  "/>
<path clip-path="url(#clip830)" d="M293.836 919.693 L293.836 970.893 L345.036 970.893 L345.036 919.693 L293.836 919.693 Z" fill="#912cee" fill-rule="evenodd" fill-opacity="1" stroke="#000000" stroke-opacity="1" stroke-width="8.192"/>
<g clip-path="url(#clip830)">
<text style="fill:#000000; fill-opacity:1; font-family:Times New Roman,TimesNewRoman,Times,Baskerville,Georgia,serif; font-size:53px; text-anchor:start;" transform="rotate(0, 415.122, 962.793)" x="415.122" y="962.793">+Infl</text>
</g>
<polyline clip-path="url(#clip830)" style="stroke:#ff0000; stroke-linecap:butt; stroke-linejoin:round; stroke-width:4; stroke-opacity:1; fill:none" stroke-dasharray="2, 4" points="
  247.672,997.446 391.2,997.446 
  "/>
<line clip-path="url(#clip830)" x1="319.436" y1="997.446" x2="293.836" y2="971.846" style="stroke:#ff0000; stroke-width:3.2; stroke-opacity:1"/>
<line clip-path="url(#clip830)" x1="319.436" y1="997.446" x2="293.836" y2="1023.05" style="stroke:#ff0000; stroke-width:3.2; stroke-opacity:1"/>
<line clip-path="url(#clip830)" x1="319.436" y1="997.446" x2="345.036" y2="1023.05" style="stroke:#ff0000; stroke-width:3.2; stroke-opacity:1"/>
<line clip-path="url(#clip830)" x1="319.436" y1="997.446" x2="345.036" y2="971.846" style="stroke:#ff0000; stroke-width:3.2; stroke-opacity:1"/>
<g clip-path="url(#clip830)">
<text style="fill:#000000; fill-opacity:1; font-family:Times New Roman,TimesNewRoman,Times,Baskerville,Georgia,serif; font-size:53px; text-anchor:start;" transform="rotate(0, 415.122, 1014.95)" x="415.122" y="1014.95">+Debt</text>
</g>
<polyline clip-path="url(#clip830)" style="stroke:#87ceeb; stroke-linecap:butt; stroke-linejoin:round; stroke-width:4; stroke-opacity:1; fill:none" stroke-dasharray="16, 10" points="
  247.672,1049.6 391.2,1049.6 
  "/>
<path clip-path="url(#clip830)" d="M319.436 1024 L293.836 1075.2 L345.036 1075.2 L319.436 1024 Z" fill="#87ceeb" fill-rule="evenodd" fill-opacity="1" stroke="#000000" stroke-opacity="1" stroke-width="8.192"/>
<g clip-path="url(#clip830)">
<text style="fill:#000000; fill-opacity:1; font-family:Times New Roman,TimesNewRoman,Times,Baskerville,Georgia,serif; font-size:53px; text-anchor:start;" transform="rotate(0, 415.122, 1067.1)" x="415.122" y="1067.1">Tight Bounds</text>
</g>
<polyline clip-path="url(#clip830)" style="stroke:#008000; stroke-linecap:butt; stroke-linejoin:round; stroke-width:4; stroke-opacity:1; fill:none" stroke-dasharray="16, 8, 2, 8, 2, 8" points="
  247.672,1101.75 391.2,1101.75 
  "/>
<path clip-path="url(#clip830)" d="M345.036 1076.15 L293.836 1076.15 L319.436 1127.35 L345.036 1076.15 Z" fill="#008000" fill-rule="evenodd" fill-opacity="1" stroke="#000000" stroke-opacity="1" stroke-width="8.192"/>
<g clip-path="url(#clip830)">
<text style="fill:#000000; fill-opacity:1; font-family:Times New Roman,TimesNewRoman,Times,Baskerville,Georgia,serif; font-size:53px; text-anchor:start;" transform="rotate(0, 415.122, 1119.25)" x="415.122" y="1119.25">Wide Bounds</text>
</g>
<polyline clip-path="url(#clip830)" style="stroke:#00ff7f; stroke-linecap:butt; stroke-linejoin:round; stroke-width:4; stroke-opacity:1; fill:none" stroke-dasharray="2, 4" points="
  247.672,1153.91 391.2,1153.91 
  "/>
<path clip-path="url(#clip830)" d="M319.436 1179.51 L312.191 1161.15 L293.836 1153.91 L312.191 1146.66 L319.436 1128.31 L326.681 1146.66 L345.036 1153.91 L326.681 1161.15 L319.436 1179.51 Z" fill="#00ff7f" fill-rule="evenodd" fill-opacity="1" stroke="#000000" stroke-opacity="1" stroke-width="8.192"/>
<g clip-path="url(#clip830)">
<text style="fill:#000000; fill-opacity:1; font-family:Times New Roman,TimesNewRoman,Times,Baskerville,Georgia,serif; font-size:53px; text-anchor:start;" transform="rotate(0, 415.122, 1171.41)" x="415.122" y="1171.41">Any Crisis Type</text>
</g>
<polyline clip-path="url(#clip830)" style="stroke:#ffa500; stroke-linecap:butt; stroke-linejoin:round; stroke-width:4; stroke-opacity:1; fill:none" stroke-dasharray="16, 8, 2, 8" points="
  247.672,1206.06 391.2,1206.06 
  "/>
<line clip-path="url(#clip830)" x1="319.436" y1="1206.06" x2="319.436" y2="1180.46" style="stroke:#ffa500; stroke-width:3.2; stroke-opacity:1"/>
<line clip-path="url(#clip830)" x1="319.436" y1="1206.06" x2="293.836" y2="1206.06" style="stroke:#ffa500; stroke-width:3.2; stroke-opacity:1"/>
<line clip-path="url(#clip830)" x1="319.436" y1="1206.06" x2="319.436" y2="1231.66" style="stroke:#ffa500; stroke-width:3.2; stroke-opacity:1"/>
<line clip-path="url(#clip830)" x1="319.436" y1="1206.06" x2="345.036" y2="1206.06" style="stroke:#ffa500; stroke-width:3.2; stroke-opacity:1"/>
<g clip-path="url(#clip830)">
<text style="fill:#000000; fill-opacity:1; font-family:Times New Roman,TimesNewRoman,Times,Baskerville,Georgia,serif; font-size:53px; text-anchor:start;" transform="rotate(0, 415.122, 1223.56)" x="415.122" y="1223.56">No Adv.</text>
</g>
<polyline clip-path="url(#clip830)" style="stroke:#deb887; stroke-linecap:butt; stroke-linejoin:round; stroke-width:4; stroke-opacity:1; fill:none" stroke-dasharray="16, 8, 2, 8, 2, 8" points="
  247.672,1258.21 391.2,1258.21 
  "/>
<path clip-path="url(#clip830)" d="M319.436 1232.61 L295.091 1250.3 L304.383 1278.92 L334.489 1278.92 L343.782 1250.3 Z" fill="#deb887" fill-rule="evenodd" fill-opacity="1" stroke="#000000" stroke-opacity="1" stroke-width="8.192"/>
<g clip-path="url(#clip830)">
<text style="fill:#000000; fill-opacity:1; font-family:Times New Roman,TimesNewRoman,Times,Baskerville,Georgia,serif; font-size:53px; text-anchor:start;" transform="rotate(0, 415.122, 1275.71)" x="415.122" y="1275.71">Good Matches</text>
</g>
<polyline clip-path="url(#clip830)" style="stroke:#808080; stroke-linecap:butt; stroke-linejoin:round; stroke-width:4; stroke-opacity:1; fill:none" stroke-dasharray="16, 10" points="
  247.672,1310.37 391.2,1310.37 
  "/>
<path clip-path="url(#clip830)" d="M319.436 1335.97 L315.519 1319.84 L301.337 1328.46 L309.964 1314.28 L293.836 1310.37 L309.964 1306.45 L301.337 1292.27 L315.519 1300.89 L319.436 1284.77 L323.353 1300.89 L337.535 1292.27 L328.908 1306.45 L345.036 1310.37 L328.908 1314.28 L337.535 1328.46 L323.353 1319.84 L319.436 1335.97 Z" fill="#808080" fill-rule="evenodd" fill-opacity="1" stroke="#000000" stroke-opacity="1" stroke-width="8.192"/>
<g clip-path="url(#clip830)">
<text style="fill:#000000; fill-opacity:1; font-family:Times New Roman,TimesNewRoman,Times,Baskerville,Georgia,serif; font-size:53px; text-anchor:start;" transform="rotate(0, 415.122, 1327.87)" x="415.122" y="1327.87">Iterative</text>
</g>
<polyline clip-path="url(#clip830)" style="stroke:#000000; stroke-linecap:butt; stroke-linejoin:round; stroke-width:4; stroke-opacity:1; fill:none" stroke-dasharray="16, 8, 2, 8" points="
  247.672,1362.52 391.2,1362.52 
  "/>
<path clip-path="url(#clip830)" d="M319.436 1388.12 L315.519 1371.99 L301.337 1380.62 L309.964 1366.44 L293.836 1362.52 L309.964 1358.6 L301.337 1344.42 L315.519 1353.05 L319.436 1336.92 L323.353 1353.05 L337.535 1344.42 L328.908 1358.6 L345.036 1362.52 L328.908 1366.44 L337.535 1380.62 L323.353 1371.99 L319.436 1388.12 Z" fill="#000000" fill-rule="evenodd" fill-opacity="1" stroke="none"/>
<g clip-path="url(#clip830)">
<text style="fill:#000000; fill-opacity:1; font-family:Times New Roman,TimesNewRoman,Times,Baskerville,Georgia,serif; font-size:53px; text-anchor:start;" transform="rotate(0, 415.122, 1380.02)" x="415.122" y="1380.02">Local Projection</text>
</g>
</svg>
